SplineFontDB: 3.0
FontName: Crimson-Semibold
FullName: Crimson Semibold
FamilyName: Crimson
Weight: Semibold
Copyright: Copyright (c) 2011, Sebastian Kosch (sebastian@aldusleaf.org),\nwith Reserved Font Name "Crimson".\nThis Font Software is licensed under the SIL Open Font License, Version 1.1.\nThis license is available with a FAQ at: http://scripts.sil.org/OFL
UComments: "2011-9-20: Created." 
Version: 0.6
ItalicAngle: 0
UnderlinePosition: -100
UnderlineWidth: 50
Ascent: 717
Descent: 307
sfntRevision: 0x00009999
LayerCount: 2
Layer: 0 0 "Back"  1
Layer: 1 0 "Fore"  0
NeedsXUIDChange: 1
XUID: [1021 732 1356305489 5808660]
OS2Version: 0
OS2_WeightWidthSlopeOnly: 0
OS2_UseTypoMetrics: 1
CreationTime: 1316567991
ModificationTime: 1317215446
OS2TypoAscent: 0
OS2TypoAOffset: 1
OS2TypoDescent: 0
OS2TypoDOffset: 1
OS2TypoLinegap: 0
OS2WinAscent: 0
OS2WinAOffset: 1
OS2WinDescent: 0
OS2WinDOffset: 1
HheadAscent: 0
HheadAOffset: 1
HheadDescent: 0
HheadDOffset: 1
OS2Vendor: 'PfEd'
MarkAttachClasses: 1
DEI: 91125
Encoding: UnicodeBmp
UnicodeInterp: none
NameList: Adobe Glyph List
DisplaySize: -36
AntiAlias: 1
FitToEm: 1
WinInfo: 182 13 14
BeginChars: 65690 857

StartChar: exclam
Encoding: 33 33 1
Width: 253
Flags: HW
HStem: -11 130<76.3035 172.376>
VStem: 59 130<6.35497 102.479> 70 111<354.461 629.398>
LayerCount: 2
Fore
SplineSet
59 56 m 0xc0
 59 91 88 119 124 119 c 1
 160 119 189 89 189 54 c 0
 189 19 161 -11 125 -11 c 1
 89 -11 59 20 59 56 c 0xc0
128 642 m 0
 159 642 181 613 181 579 c 0
 181 551 160 365 143 196 c 1
 139 186 135 179 125 177 c 1
 120 178 111 183 107 191 c 1
 95 305 70 529 70 580 c 0xa0
 70 615 94 642 128 642 c 0
EndSplineSet
EndChar

StartChar: quotedbl
Encoding: 34 34 2
Width: 301
Flags: HW
HStem: 452 248<74.5952 105.831 214.595 245.831>
VStem: 36 86<516.562 682.109> 176 86<516.562 682.109>
LayerCount: 2
Fore
SplineSet
233 700 m 0
 246 700 254 696 262 685 c 1
 262 653 252 530 246 473 c 1
 242 467 232 456 224 452 c 1
 220 452 216 455 214 459 c 1
 191 537 176 593 176 623 c 0
 176 653 198 700 233 700 c 0
93 700 m 0
 106 700 114 696 122 685 c 1
 122 653 112 530 106 473 c 1
 102 467 92 456 84 452 c 1
 80 452 76 455 74 459 c 1
 51 537 36 593 36 623 c 0
 36 653 58 700 93 700 c 0
EndSplineSet
EndChar

StartChar: numbersign
Encoding: 35 35 3
Width: 474
Flags: HW
HStem: 163 58<57.3306 386.38> 354 58<84.4228 414.302>
LayerCount: 2
Fore
SplineSet
408 354 m 1
 249 354 249 354 79 354 c 1
 67 354 78 408 91 412 c 9
 417 412 l 17
 431 412 421 360 408 354 c 1
380 163 m 1
 221 163 221 163 51 163 c 1
 39 163 51 217 64 221 c 9
 390 221 l 17
 404 221 393 169 380 163 c 1
373 528 m 1
 298 56 l 2
 297 52 285 44 270 44 c 0
 260 44 259 48 259 48 c 1
 335 518 l 1
 338 527 341 531 360 531 c 0
 369 531 370 530 373 528 c 1
212 528 m 1
 136 56 l 2
 135 52 124 44 109 44 c 0
 99 44 98 48 98 48 c 1
 174 518 l 1
 177 527 180 531 199 531 c 0
 208 531 209 530 212 528 c 1
EndSplineSet
EndChar

StartChar: dollar
Encoding: 36 36 4
Width: 506
Flags: HW
HStem: -10 38<198.505 308.386> 602 38<199.023 277.531>
VStem: 50 39<123.344 182.613> 62 102<447.858 546.295> 170 37<-42.1892 -2.25682> 288 37<631.849 672.841> 350 105<86.3493 195.968> 386 37<460.001 521.026>
LayerCount: 2
Fore
SplineSet
258 640 m 0xde
 316 640 352 626 412 613 c 1
 420 562 421 507 423 465 c 1
 421 461 416 460 412 460 c 0
 408 460 388 458 386 467 c 0
 379 518 333 602 258 602 c 0
 198 602 164 564 164 509 c 0xdd
 164 441 239 396 302 356 c 0
 366 316 455 277 455 166 c 0
 455 60 354 -10 250 -10 c 0
 190 -10 125 4 73 16 c 1
 62 66 51 153 50 172 c 1
 53 178 70 184 76 184 c 0
 82 184 88 182 89 176 c 0xee
 97 136 140 28 246 28 c 0
 294 28 350 56 350 132 c 0
 350 210 273 244 216 280 c 0
 144 325 62 371 62 469 c 0
 62 569 160 640 258 640 c 0xde
288 676 m 17
 296 676 325 675 325 668 c 9
 207 -46 l 17
 198 -46 170 -44 170 -37 c 9
 288 676 l 17
EndSplineSet
EndChar

StartChar: percent
Encoding: 37 37 5
Width: 674
Flags: HW
HStem: -4 28<457.67 524.317> 282 27<442.672 508.983> 331 28<163.014 231.532> 616 27<149.732 216.028>
VStem: 37 80<404.888 567.583> 262 80<406.184 569.212> 330 80<70.3876 233.083> 554 80<71.684 236.297>
LayerCount: 2
Fore
SplineSet
184 616 m 1xfd
 130 616 117 552 117 498 c 0
 117 434 147 359 197 359 c 1
 251 359 262 424 262 476 c 0
 262 539 235 616 184 616 c 1xfd
190 643 m 0
 280 643 342 574 342 488 c 0
 342 406 280 331 190 331 c 0
 102 331 37 400 37 486 c 0
 37 572 102 643 190 643 c 0
477 282 m 1
 423 282 410 218 410 164 c 0xfb
 410 100 440 24 490 24 c 1
 544 24 554 90 554 142 c 0
 554 205 528 282 477 282 c 1
483 309 m 0
 573 309 634 240 634 154 c 0
 634 72 573 -4 483 -4 c 0
 395 -4 330 65 330 151 c 0
 330 237 395 309 483 309 c 0
608 630 m 1
 108 -2 l 2
 104 -8 86 -16 72 -16 c 0
 58 -16 55 -5 55 -4 c 1
 554 628 l 1
 560 634 572 640 584 640 c 0
 603 640 604 637 608 630 c 1
EndSplineSet
EndChar

StartChar: ampersand
Encoding: 38 38 6
Width: 675
Flags: HW
HStem: -4 60<215.635 338.72 495.75 583.313> 284 28<464.306 511.802 591.45 660.239> 614 36<261.542 343.932>
VStem: 47 108<116.725 241.678> 142 94<447.756 582.417> 370 86<460.102 592.091>
LayerCount: 2
Fore
SplineSet
386 95 m 1xf4
 340 147 244 290 226 314 c 1
 188 286 155 255 155 196 c 0
 155 116 210 56 292 56 c 0
 329 56 364 73 386 95 c 1xf4
305 614 m 0
 266 614 236 581 236 534 c 0xec
 236 484 264 436 288 396 c 1
 341 426 370 460 370 522 c 0
 370 560 350 614 305 614 c 0
294 650 m 0
 388 650 456 607 456 536 c 0
 456 446 378 396 310 362 c 1
 345 308 414 216 454 168 c 1
 484 210 512 255 512 266 c 0
 512 288 473 282 466 284 c 1
 462 290 462 309 466 312 c 1
 540 312 l 2
 575 312 613 314 659 316 c 1
 663 314 662 288 658 285 c 1
 646 285 602 279 588 269 c 0
 578 262 526 184 482 134 c 1
 508 106 545 62 568 62 c 0
 592 62 618 98 626 112 c 1
 636 112 648 102 650 94 c 1
 646 84 594 -2 524 -2 c 1
 468 -2 426 50 412 66 c 1
 366 24 300 -4 234 -4 c 1
 134 -4 47 56 47 157 c 0xf4
 47 263 131 314 200 352 c 1
 176 392 142 436 142 504 c 0
 142 587 205 650 294 650 c 0
EndSplineSet
EndChar

StartChar: quotesingle
Encoding: 39 39 7
Width: 168
Flags: HW
HStem: 462 243<76.1186 109.331>
VStem: 34 94<529.12 685.309>
LayerCount: 2
Fore
SplineSet
96 705 m 0
 110 705 120 700 128 688 c 1
 126 642 119 541 110 481 c 1
 106 475 96 466 86 462 c 1
 82 462 78 464 76 468 c 1
 54 533 34 590 34 628 c 0
 34 664 59 705 96 705 c 0
EndSplineSet
EndChar

StartChar: parenleft
Encoding: 40 40 8
Width: 271
Flags: HW
VStem: 32 92<135.062 455.061>
LayerCount: 2
Fore
SplineSet
124 295 m 0
 124 101 200 -62 266 -120 c 1
 267 -122 258 -140 252 -144 c 1
 156 -81 32 63 32 295 c 0
 32 527 156 670 252 733 c 1
 258 729 267 712 266 710 c 1
 200 652 124 489 124 295 c 0
EndSplineSet
EndChar

StartChar: parenright
Encoding: 41 41 9
Width: 271
Flags: HW
VStem: 147 92<135.062 455.061>
LayerCount: 2
Fore
SplineSet
239 295 m 0
 239 63 115 -81 19 -144 c 1
 13 -140 4 -122 5 -120 c 1
 71 -62 147 101 147 295 c 0
 147 489 71 652 5 710 c 1
 4 712 13 729 19 733 c 1
 115 670 239 527 239 295 c 0
EndSplineSet
EndChar

StartChar: asterisk
Encoding: 42 42 10
Width: 441
Flags: HW
HStem: 386 72<303.363 391.306> 429 77<39.6858 144.692>
VStem: 205 34<417.335 462.906>
LayerCount: 2
Fore
SplineSet
294 616 m 0x60
 313 638 342 640 357 626 c 0
 373 610 373 583 353 563 c 0
 319 529 284 533 256 506 c 1
 256 506 250 497 250 492 c 0
 250 488 254 485 259 483 c 0
 294 467 322 478 366 458 c 0
 392 447 404 421 395 402 c 0
 385 382 360 374 334 386 c 0xa0
 291 407 283 442 249 460 c 1
 249 460 239 465 235 463 c 0
 231 461 231 458 230 452 c 0
 226 414 244 392 239 344 c 0
 236 316 215 298 195 300 c 0
 173 304 157 324 161 352 c 0
 168 400 198 418 205 456 c 1
 205 456 207 466 203 470 c 0
 201 473 198 473 192 472 c 0
 155 464 138 439 91 429 c 0
 63 423 39 438 35 458 c 0
 31 480 46 501 74 506 c 0
 121 514 148 491 187 496 c 1
 187 496 197 498 199 503 c 0
 201 507 199 511 196 516 c 0
 177 549 149 556 124 598 c 0
 110 622 116 650 134 660 c 0
 154 670 178 663 192 638 c 0
 214 595 200 563 217 528 c 1
 217 528 222 518 227 517 c 0
 231 517 234 518 238 522 c 0
 264 550 262 580 294 616 c 0x60
EndSplineSet
EndChar

StartChar: plus
Encoding: 43 43 11
Width: 542
Flags: HW
HStem: 218 57<33.875 240.5 298 507.213>
VStem: 241 57<9.09914 217.5 274.5 481.778>
LayerCount: 2
Fore
SplineSet
241 474 m 1
 255 482 278 485 284 485 c 0
 294 485 298 482 298 478 c 1
 298 275 l 1
 338 275 462 275 502 275 c 1
 507 275 510 269 510 262 c 0
 510 243 504 227 496 218 c 1
 458 218 298 218 298 218 c 1
 298 218 298 56 298 18 c 1
 286 10 263 6 253 6 c 0
 247 6 241 11 241 15 c 2
 241 218 l 1
 36 218 l 1
 34 218 30 220 30 230 c 0
 30 234 34 265 43 275 c 1
 83 275 240 275 240 275 c 1
 240 275 241 464 241 474 c 1
EndSplineSet
EndChar

StartChar: comma
Encoding: 44 44 12
Width: 208
Flags: HW
HStem: -148 279
VStem: 82 78<-30.7432 67.5>
LayerCount: 2
Fore
SplineSet
110 131 m 0
 122 131 135 126 144 120 c 1
 152 106 160 83 160 52 c 0
 160 -24 93 -116 33 -148 c 1
 24 -146 15 -132 15 -126 c 1
 35 -112 82 -73 82 -17 c 0
 82 16 42 19 42 71 c 0
 42 89 61 131 110 131 c 0
EndSplineSet
EndChar

StartChar: hyphen
Encoding: 45 45 13
Width: 373
Flags: HW
HStem: 210 66<73.1688 310.221>
VStem: 54 262
LayerCount: 2
Fore
SplineSet
68 264 m 1
 68 264 276 275 309 276 c 0
 313 276 316 275 316 267 c 0
 316 250 310 227 302 210 c 1
 255 207 152 203 61 199 c 0
 56 199 54 201 54 210 c 0
 54 229 61 249 68 264 c 1
EndSplineSet
EndChar

StartChar: period
Encoding: 46 46 14
Width: 217
Flags: HW
HStem: -11 130<59.3035 155.376>
VStem: 42 130<6.35497 102.479>
LayerCount: 2
Fore
SplineSet
42 56 m 0
 42 91 72 119 108 119 c 1
 144 119 172 89 172 54 c 0
 172 19 144 -11 108 -11 c 1
 72 -11 42 20 42 56 c 0
EndSplineSet
EndChar

StartChar: slash
Encoding: 47 47 15
Width: 417
Flags: HW
LayerCount: 2
Fore
SplineSet
370 761 m 0
 381 761 385 756 386 752 c 1
 91 -13 l 2
 89 -20 75 -35 46 -35 c 0
 31 -35 28 -28 28 -28 c 1
 326 742 l 1
 328 748 343 761 370 761 c 0
EndSplineSet
EndChar

StartChar: zero
Encoding: 48 48 16
Width: 543
Flags: HW
HStem: -3 40<229.182 312.641> 594 40<228.731 317.732>
VStem: 50 109<172.072 455.039> 380 109<171.269 464.209>
LayerCount: 2
Fore
SplineSet
274 594 m 0
 200 594 159 468 159 311 c 0
 159 154 207 37 269 37 c 0
 346 37 380 169 380 326 c 0
 380 483 338 594 274 594 c 0
271 634 m 0
 401 634 489 502 489 315 c 0
 489 141 400 -3 271 -3 c 0
 143 -3 50 128 50 315 c 0
 50 489 142 634 271 634 c 0
EndSplineSet
EndChar

StartChar: one
Encoding: 49 49 17
Width: 344
Flags: HW
HStem: -4 33<57.1289 123.441 241.879 308.191>
VStem: 131 104<36.9863 546.493>
LayerCount: 2
Fore
SplineSet
131 130 m 2
 131 501 l 2
 131 537 125 546 110 546 c 0
 98 546 57 534 39 525 c 1
 33 529 27 537 27 543 c 0
 27 545 26 551 29 552 c 0
 127 595 228 642 231 642 c 2
 233 642 l 2
 239 642 243 630 244 625 c 1
 244 625 235 593 235 530 c 2
 235 130 l 2
 235 94 236 64 242 46 c 0
 246 34 294 29 306 29 c 1
 310 23 310 2 306 -4 c 1
 266 -1 222 2 182 2 c 0
 142 2 100 -1 60 -4 c 1
 56 2 56 23 60 29 c 1
 73 29 120 34 124 46 c 0
 130 64 131 94 131 130 c 2
EndSplineSet
EndChar

StartChar: two
Encoding: 50 50 18
Width: 484
Flags: HW
HStem: 0 88<140 379.199> 570 72<150.726 254.835>
VStem: 302 108<381.01 522.935>
LayerCount: 2
Fore
SplineSet
448 171 m 1
 432 123 396 18 390 0 c 9
 390 0 39 0 35 0 c 1
 31 4 26 12 26 16 c 1
 106 105 185 190 249 288 c 0
 293 354 302 405 302 452 c 0
 302 520 252 570 193 570 c 0
 118 570 74 506 64 492 c 1
 58 492 44 502 44 512 c 1
 56 544 128 642 236 642 c 0
 332 642 410 570 410 474 c 0
 410 415 383 360 343 312 c 0
 280 236 197 144 140 88 c 1
 148 88 326 88 326 88 c 2
 376 88 396 126 414 170 c 0
 416 175 422 177 428 177 c 0
 434 177 444 175 448 171 c 1
EndSplineSet
EndChar

StartChar: three
Encoding: 51 51 19
Width: 472
Flags: HW
HStem: -6 41<153.09 265.897> 316 32<132.185 185.648> 578 64<153.044 250.164>
VStem: 285 96<445.172 542.876> 316 110<129.469 264.883>
LayerCount: 2
Fore
SplineSet
240 642 m 0xf0
 290 642 381 605 381 514 c 0xf0
 381 440 310 392 280 376 c 1
 318 375 426 322 426 219 c 0
 426 80 290 -6 164 -6 c 0
 118 -6 72 8 46 24 c 1
 40 30 30 52 30 65 c 0
 30 91 48 116 76 116 c 0
 104 116 120 88 136 70 c 0
 154 50 183 35 209 35 c 0
 267 35 316 82 316 184 c 0xe8
 316 262 262 326 196 326 c 0
 182 326 158 321 139 316 c 1
 135 321 132 330 132 338 c 0
 132 342 131 345 133 348 c 1
 201 362 285 399 285 477 c 0
 285 534 247 578 189 578 c 0
 131 578 86 528 78 520 c 1
 72 521 66 535 66 544 c 1
 100 592 161 642 240 642 c 0xf0
EndSplineSet
EndChar

StartChar: four
Encoding: 52 52 20
Width: 494
Flags: HW
HStem: 174 62<83.9687 285 387.5 451.878>
VStem: 285 102<-3.54306 174 236.5 495>
LayerCount: 2
Fore
SplineSet
366 644 m 0
 374 644 387 631 387 621 c 2
 387 236 l 25
 440 236 l 2
 446 236 454 217 454 192 c 0
 454 180 449 176 448 174 c 1
 435 174 387 174 387 174 c 25
 387 2 l 1
 387 2 372 -6 332 -6 c 0
 303 -6 285 -3 285 5 c 2
 285 174 l 25
 17 174 l 1
 9 178 7 186 7 196 c 1
 67 270 289 558 342 624 c 1
 348 632 358 644 366 644 c 0
285 495 m 17
 267 473 94 246 84 236 c 1
 80 236 260 236 285 236 c 1
 285 272 285 495 285 495 c 17
EndSplineSet
EndChar

StartChar: five
Encoding: 53 53 21
Width: 463
Flags: HW
HStem: -6 41<153.09 265.679> 334 76<123.442 242.249> 542 94<147.65 358.123>
VStem: 316 107<133.423 259.026>
LayerCount: 2
Fore
SplineSet
228 410 m 0
 330 410 423 319 423 224 c 0
 423 85 290 -6 164 -6 c 0
 118 -6 72 8 46 24 c 1
 40 30 30 52 30 65 c 0
 30 91 48 116 76 116 c 0
 104 116 120 88 136 70 c 0
 154 50 183 35 209 35 c 0
 267 35 316 81 316 184 c 0
 316 260 252 334 166 334 c 1
 124 334 91 325 78 319 c 1
 73 319 70 330 70 336 c 1
 82 394 116 580 126 636 c 1
 183 636 258 636 290 636 c 1
 332 636 374 643 381 645 c 1
 387 642 394 640 394 632 c 0
 394 620 372 566 360 549 c 1
 320 545 275 543 228 542 c 1
 212 542 164 542 152 542 c 1
 145 507 128 421 122 393 c 1
 148 401 196 410 228 410 c 0
EndSplineSet
EndChar

StartChar: six
Encoding: 54 54 22
Width: 495
Flags: HW
HStem: -6 38<210.956 300.131> 346 54<190.357 295.098> 618 28<392.912 419.604>
VStem: 45 108<126.474 321.055> 344 108<114.484 290.248>
LayerCount: 2
Fore
SplineSet
160 316 m 1
 156 288 153 256 153 230 c 0
 153 143 183 32 255 32 c 0
 306 32 344 93 344 183 c 0
 344 268 313 346 233 346 c 0
 213 346 184 341 160 316 c 1
269 400 m 0
 387 400 452 313 452 205 c 0
 452 91 355 -6 245 -6 c 0
 129 -6 45 112 45 231 c 1
 45 337 90 432 151 498 c 0
 229 582 337 630 413 646 c 1
 421 643 423 626 422 618 c 1
 317 578 208 504 170 365 c 1
 200 387 239 400 269 400 c 0
EndSplineSet
EndChar

StartChar: seven
Encoding: 55 55 23
Width: 448
Flags: HW
HStem: 548 86<82.4529 373>
VStem: 22 34<461.774 508.833>
LayerCount: 2
Fore
SplineSet
360 635 m 2
 390 635 433 638 439 638 c 0
 445 638 446 631 446 626 c 0
 446 615 432 592 418 562 c 2
 150 -5 l 1
 147 -7 140 -8 136 -8 c 0
 125 -8 92 -1 92 13 c 1
 164 121 327 452 373 548 c 1
 343 548 130 548 130 548 c 2
 85 548 70 514 56 468 c 0
 55 464 52 462 44 462 c 0
 37 462 26 464 22 468 c 1
 37 520 57 602 64 634 c 1
 72 634 360 635 360 635 c 2
EndSplineSet
EndChar

StartChar: eight
Encoding: 56 56 24
Width: 507
Flags: HW
HStem: -8 39<204.326 311.23> 600 38<207.199 292.701>
VStem: 54 105<74.8362 227.229> 75 102<435.949 554.978> 331 98<422.707 564.554> 346 106<87.5752 193.396>
LayerCount: 2
Fore
SplineSet
254 31 m 1xe4
 312 31 346 72 346 128 c 1
 346 208 248 270 226 285 c 0
 222 287 220 288 218 288 c 0
 216 288 215 290 214 288 c 0
 176 257 159 213 159 156 c 1
 159 86 198 31 254 31 c 1xe4
250 600 m 1
 208 600 177 557 177 505 c 1
 177 432 240 393 272 375 c 0
 274 373 277 372 280 372 c 0
 282 372 284 372 286 374 c 0
 316 401 331 438 331 486 c 1xd8
 331 538 302 600 250 600 c 1
254 638 m 1
 344 638 429 586 429 492 c 1xd8
 429 422 370 375 318 349 c 1
 315 348 316 346 318 344 c 0
 366 316 452 248 452 167 c 1
 452 63 353 -8 249 -8 c 1
 143 -8 54 46 54 154 c 1xe4
 54 240 132 290 182 312 c 0
 184 314 185 316 182 318 c 0
 144 346 75 399 75 483 c 1
 75 569 163 638 254 638 c 1
EndSplineSet
EndChar

StartChar: nine
Encoding: 57 57 25
Width: 495
Flags: HW
HStem: -6 28<72.8964 99.5877> 240 54<197.402 302.143> 608 38<192.369 281.544>
VStem: 40 108<349.752 525.516> 339 108<318.877 513.526>
LayerCount: 2
Fore
SplineSet
333 324 m 1
 337 349 339 382 339 410 c 0
 339 497 310 608 238 608 c 0
 187 608 148 547 148 457 c 0
 148 372 180 294 260 294 c 0
 280 294 309 299 333 324 c 1
70 22 m 1
 175 62 285 136 323 275 c 1
 293 253 254 240 224 240 c 0
 106 240 40 327 40 435 c 0
 40 549 138 646 248 646 c 0
 364 646 447 528 447 409 c 1
 447 303 403 208 342 142 c 0
 264 58 156 10 80 -6 c 1
 72 -3 69 14 70 22 c 1
EndSplineSet
EndChar

StartChar: colon
Encoding: 58 58 26
Width: 241
Flags: HW
HStem: 135 150<84 155.5> 155 110<84 155.5>
VStem: 54 130<152.355 268.479>
LayerCount: 2
Fore
SplineSet
54 202 m 0xa0
 54 237 84 265 120 265 c 1x60
 156 265 184 235 184 200 c 0
 184 165 156 135 120 135 c 1
 84 135 54 166 54 202 c 0xa0
54 222 m 0
 54 257 84 285 120 285 c 1xa0
 156 285 184 255 184 220 c 0
 184 185 156 155 120 155 c 1
 84 155 54 186 54 222 c 0
EndSplineSet
EndChar

StartChar: semicolon
Encoding: 59 59 27
Width: 237
Flags: HW
HStem: 301 130<67.0697 159.917>
VStem: 48 128<319.107 414.979> 99 78<-30.7432 67.5>
LayerCount: 2
Fore
SplineSet
126 131 m 0xa0
 138 131 153 126 162 120 c 1
 170 106 177 83 177 52 c 0
 177 -24 110 -116 50 -148 c 1
 41 -146 32 -132 32 -126 c 1
 52 -112 99 -73 99 -17 c 0
 99 16 58 19 58 71 c 0
 58 89 77 131 126 131 c 0xa0
48 368 m 0xc0
 48 403 78 431 114 431 c 1
 149 431 176 403 176 368 c 0
 176 333 150 301 114 301 c 1
 78 301 48 333 48 368 c 0xc0
EndSplineSet
EndChar

StartChar: less
Encoding: 60 60 28
Width: 494
Flags: HW
LayerCount: 2
Fore
SplineSet
444 40 m 0
 444 33 434 -15 428 -15 c 0
 427 -15 424 -14 422 -13 c 2
 48 177 l 2
 33 185 30 200 30 217 c 0
 30 228 38 236 48 241 c 2
 418 428 l 2
 420 429 423 430 424 430 c 0
 427 430 433 415 440 378 c 0
 441 372 438 369 438 369 c 1
 116 209 l 1
 440 46 l 1
 440 46 444 45 444 40 c 0
EndSplineSet
EndChar

StartChar: equal
Encoding: 61 61 29
Width: 555
Flags: HW
HStem: 127 57<74.5699 479.271> 271 57<74.5699 479.271>
LayerCount: 2
Fore
SplineSet
472 127 m 1
 311 127 238 127 66 127 c 1
 54 127 68 179 82 184 c 9
 485 184 l 17
 499 184 486 134 472 127 c 1
472 271 m 1
 311 271 238 271 66 271 c 1
 54 271 68 323 82 328 c 9
 485 328 l 17
 499 328 486 278 472 271 c 1
EndSplineSet
EndChar

StartChar: greater
Encoding: 62 62 30
Width: 494
Flags: HW
LayerCount: 2
Fore
SplineSet
48 40 m 0
 48 44 51 46 51 46 c 1
 376 209 l 1
 54 369 l 1
 54 369 52 372 52 378 c 0
 56 406 64 430 68 430 c 0
 69 430 71 429 73 428 c 2
 444 241 l 2
 454 236 462 228 462 217 c 0
 462 200 459 185 444 177 c 2
 70 -13 l 2
 68 -14 65 -15 64 -15 c 0
 58 -15 48 32 48 40 c 0
EndSplineSet
EndChar

StartChar: question
Encoding: 63 63 31
Width: 376
Flags: HW
HStem: -11 130<80.6789 174.376> 574 70<116 217.946>
VStem: 62 128<7.08217 102.829> 102 34<177.814 248.381> 268 68<423.678 542.663>
LayerCount: 2
Fore
SplineSet
62 56 m 0xe8
 62 92 92 119 126 119 c 0
 162 119 190 92 190 56 c 0
 190 20 163 -11 128 -11 c 0
 94 -11 62 18 62 56 c 0xe8
106 533 m 0
 80 533 52 558 52 591 c 0
 52 607 58 626 64 632 c 1
 76 638 99 644 134 644 c 0
 190 644 336 592 336 464 c 0
 336 386 286 348 222 310 c 0
 195 294 154 267 142 249 c 0
 134 236 136 209 136 193 c 1
 133 186 127 178 120 178 c 1
 114 179 106 184 102 189 c 1xd8
 96 207 88 250 88 284 c 0
 88 350 135 380 171 404 c 0
 221 436 268 469 268 510 c 0
 268 546 241 574 204 574 c 0
 160 574 140 533 106 533 c 0
EndSplineSet
EndChar

StartChar: at
Encoding: 64 64 32
Width: 757
Flags: HW
HStem: -124 19<260.82 286.471> -7 52<482 585.81> -5 78<251.75 336.052> 389 50<389.558 498> 538 40<325.088 536.539>
VStem: 46 44<56.4094 290.08> 184 98<82.5959 223.456> 416 94<48.093 167.086> 678 42<165.318 387.975>
LayerCount: 2
Fore
SplineSet
430 578 m 0xdf80
 626 578 720 436 720 280 c 0
 720 127 623 -7 506 -7 c 0xdf80
 457 -7 416 18 416 79 c 0
 416 89 419 108 422 116 c 1
 403 79 340 -5 280 -5 c 3xbf80
 224 -5 184 38 184 125 c 3
 184 271 340 439 480 439 c 0
 515 439 553 433 572 426 c 9
 513 116 l 2
 512 112 510 97 510 92 c 0
 510 69 519 45 546 45 c 0
 602 45 678 150 678 275 c 0
 678 410 604 538 430 538 c 0
 226 538 90 344 90 170 c 0
 90 53 152 -36 224 -78 c 0
 260 -99 281 -102 300 -105 c 1
 300 -113 276 -124 262 -124 c 0
 248 -124 233 -121 220 -116 c 0
 128 -82 46 27 46 168 c 0
 46 364 198 578 430 578 c 0xdf80
438 389 m 3
 358 389 282 265 282 150 c 0
 282 100 299 73 328 73 c 3xbf80
 374 73 432 171 452 274 c 2
 472 376 l 17
 463 386 451 389 438 389 c 3
EndSplineSet
EndChar

StartChar: A
Encoding: 65 65 33
Width: 644
Flags: HW
HStem: -4 21G<-13.5346 8.4654> 3 26<140.148 198.299 394.087 450.273 603.795 652.744> 238 45<204.215 376.215> 642 20G<327.216 335.216>
LayerCount: 2
Fore
SplineSet
92 136 m 6x70
 92 136 265 551 295 629 c 5
 301 643 322 662 332 662 c 4
 338 662 344 660 346 658 c 5
 550 137 l 5
 564 103 572 80 577 68 c 4
 591 36 642 30 650 30 c 5
 655 22 654 0 652 -4 c 5xb0
 612 -2 574 3 530 3 c 4x70
 484 3 438 -2 397 -4 c 5
 392 1 392 28 397 30 c 5
 411 30 443 35 455 45 c 4
 459 49 461 54 461 60 c 4
 461 80 398 234 398 234 c 5
 398 234 395 238 392 238 c 4
 360 240 318 238 293 238 c 4
 252 238 229 238 189 236 c 4
 187 236 183 233 183 232 c 5
 183 232 156 168 142 130 c 4
 131 100 124 70 124 60 c 4
 124 35 188 30 196 30 c 5
 200 25 199 1 197 -4 c 5xb0
 159 -1 139 3 95 3 c 4x70
 49 3 28 -1 -12 -4 c 5xb0
 -16 0 -16 20 -13 29 c 5
 -1 29 41 40 51 54 c 4
 69 81 79 104 92 136 c 6x70
292 506 m 5
 204 290 l 5
 204 290 204 286 206 286 c 4
 229 284 268 283 291 283 c 4
 322 283 342 284 373 286 c 4
 375 286 376 291 376 291 c 5
 292 506 l 5
EndSplineSet
EndChar

StartChar: B
Encoding: 66 66 34
Width: 604
Flags: HW
HStem: -3 38<38.0947 107.532 234.437 379.573> 333 38<225.386 358.706> 622 38<38.2826 107.761 228.226 347.535>
VStem: 112 114<50.97 333 371.5 619.492> 399 120<436.032 575.004> 437 128<114.168 267.782>
LayerCount: 2
Fore
SplineSet
226 333 m 1xf4
 226 114 l 2
 226 104 226 60 234 50 c 0
 246 36 273 35 305 35 c 0
 365 35 437 64 437 176 c 0
 437 251 406 333 282 333 c 2
 226 333 l 1xf4
226 371 m 1
 302 371 l 2
 363 371 399 421 399 487 c 0xf8
 399 579 352 622 280 622 c 0
 262 622 234 621 230 611 c 0
 225 599 226 573 226 543 c 2
 226 371 l 1
317 660 m 0
 409 660 519 621 519 506 c 0xf8
 519 428 445 380 414 368 c 0
 409 366 409 363 411 362 c 1
 461 358 565 298 565 196 c 0xf4
 565 134 526 72 473 38 c 0
 418 2 346 -3 270 -3 c 0
 233 -3 78 -3 39 -3 c 1
 35 3 35 24 39 30 c 1
 51 30 101 34 105 46 c 0
 111 64 112 94 112 130 c 2
 112 528 l 2
 112 564 111 594 105 612 c 0
 101 624 51 628 39 628 c 1
 35 634 35 655 39 661 c 1
 82 659 129 657 169 657 c 0
 209 657 259 660 317 660 c 0
EndSplineSet
EndChar

StartChar: C
Encoding: 67 67 35
Width: 671
Flags: HW
HStem: -6 40<319.095 500.945> 627 40<304.766 488.316>
VStem: 41 130<207.041 442.236> 602 34<150.961 191.579>
LayerCount: 2
Fore
SplineSet
383 667 m 0
 449 667 527 661 593 647 c 1
 594 641 622 509 622 498 c 1
 622 490 609 482 598 482 c 1
 592 482 587 483 584 487 c 1
 576 522 544 627 390 627 c 0
 246 627 171 488 171 348 c 0
 171 192 246 34 408 34 c 0
 469 34 508 53 536 78 c 0
 577 114 598 178 602 198 c 1
 616 198 632 192 636 188 c 1
 636 172 611 49 597 40 c 1
 538 13 472 -6 380 -6 c 0
 187 -6 41 139 41 322 c 0
 41 512 189 667 383 667 c 0
EndSplineSet
EndChar

StartChar: D
Encoding: 68 68 36
Width: 732
Flags: HW
HStem: -3 38<38.0947 107.532 233.234 406.262> 622 37<38.2826 107.761 229.059 389.175>
VStem: 112 114<54.638 618.712> 557 129<205.439 454.097>
LayerCount: 2
Fore
SplineSet
226 543 m 2
 226 130 l 1
 226 120 227 67 233 54 c 0
 240 42 273 35 305 35 c 0
 457 35 557 124 557 319 c 0
 557 530 436 622 290 622 c 0
 272 622 235 620 231 610 c 0
 226 596 226 572 226 543 c 2
318 659 m 0
 543 659 686 530 686 335 c 0
 686 133 557 -3 308 -3 c 0
 265 -3 78 -3 39 -3 c 1
 35 3 35 24 39 30 c 1
 51 30 101 34 105 46 c 0
 111 64 112 94 112 130 c 2
 112 528 l 2
 112 564 111 594 105 612 c 0
 101 624 51 628 39 628 c 1
 35 634 35 655 39 661 c 1
 82 659 129 657 169 657 c 0
 209 657 266 659 318 659 c 0
EndSplineSet
EndChar

StartChar: E
Encoding: 69 69 37
Width: 566
Flags: HW
HStem: -3 33<36.3545 105.385> -1 41<232.842 453.835> 311 42<225.401 387.825> 620 36<228.559 436.667> 629 33<36.3545 105.165>
VStem: 112 114<55.1153 308.713 353.951 617.463> 420 32<378.533 431.41> 486 36<517.117 564.804>
LayerCount: 2
Fore
SplineSet
169 656 m 0x37
 237 656 409 664 493 664 c 1
 500 614 513 567 522 522 c 1
 519 519 508 517 501 517 c 0
 494 517 488 519 486 524 c 0
 464 592 431 620 374 620 c 2
 290 620 l 0
 272 620 234 619 230 609 c 0
 225 595 226 571 226 543 c 2
 226 362 l 2
 226 356 246 353 268 353 c 2
 321 353 l 2
 399 353 404 362 420 424 c 0
 421 429 427 432 434 432 c 0
 441 432 449 429 452 426 c 1
 452 236 l 1
 450 234 442 232 435 232 c 0
 428 232 422 235 420 240 c 0
 406 292 397 299 388 304 c 0
 376 310 335 311 297 311 c 0
 269 311 226 310 226 300 c 2
 226 130 l 2
 226 120 225 66 232 54 c 0
 242 42 266 40 300 40 c 1
 362 40 l 2x77
 400 40 441 47 467 68 c 0
 490 87 509 117 525 166 c 0
 526 170 532 172 539 172 c 0
 549 172 564 169 567 166 c 1
 548 112 520 41 513 -3 c 1xa7
 445 -3 304 -1 170 -1 c 0x67
 111 -1 65 -3 39 -3 c 1
 35 3 35 24 39 30 c 1
 51 30 101 34 105 46 c 0
 111 64 112 94 112 130 c 2
 112 528 l 2
 112 564 111 594 105 612 c 0
 101 624 51 629 39 629 c 1
 35 635 35 656 39 662 c 1xaf
 79 659 129 656 169 656 c 0x37
EndSplineSet
EndChar

StartChar: F
Encoding: 70 70 38
Width: 537
Flags: HW
HStem: -4 33<36.3545 105.165 232.114 310.417> 309 42<225.386 387.825> 620 36<228.559 436.667> 628 33<36.9642 105.385>
VStem: 112 114<37.7039 306.713 351.951 617.462> 420 32<376.533 429.41> 486 36<517.117 564.804>
LayerCount: 2
Fore
SplineSet
169 656 m 0xee
 237 656 409 664 493 664 c 1
 500 614 513 567 522 522 c 1
 519 519 508 517 501 517 c 0
 494 517 488 519 486 524 c 0
 464 592 431 620 374 620 c 2
 290 620 l 0xee
 272 620 234 619 230 609 c 0
 225 595 226 571 226 543 c 2
 226 360 l 2
 226 354 246 351 268 351 c 2
 321 351 l 2
 399 351 404 360 420 422 c 0
 421 427 427 430 434 430 c 0
 441 430 449 427 452 424 c 1
 452 234 l 1
 450 232 442 230 435 230 c 0
 428 230 422 233 420 238 c 0
 406 290 397 297 388 302 c 0
 376 308 335 309 297 309 c 0
 269 309 226 308 226 298 c 2
 226 130 l 2
 226 94 226 64 232 46 c 0
 236 34 296 29 308 29 c 1
 312 23 312 2 308 -4 c 1
 268 -1 208 2 168 2 c 0
 124 2 78 -2 39 -4 c 1
 35 2 35 23 39 29 c 1
 51 29 101 34 105 46 c 0
 111 64 112 94 112 130 c 2
 112 528 l 2
 112 564 111 594 105 612 c 0
 101 624 51 628 39 628 c 1
 35 634 35 655 39 661 c 1xde
 82 659 129 656 169 656 c 0xee
EndSplineSet
EndChar

StartChar: G
Encoding: 71 71 39
Width: 717
Flags: HW
HStem: -6 40<319.231 501.47> 263 33<436.089 505.753 634.854 696.033> 627 40<304.503 490.413>
VStem: 41 130<209.335 440.559> 514 112<66.8549 248.021> 584 37<487.261 534.98>
LayerCount: 2
Fore
SplineSet
514 179 m 1xf8
 514 204 515 223 509 242 c 0
 504 260 451 263 439 263 c 1
 435 265 433 291 438 296 c 1
 484 294 531 290 576 290 c 0
 616 290 654 294 694 296 c 1
 698 287 698 265 694 263 c 1
 684 263 641 257 634 248 c 0
 628 238 626 214 626 190 c 1
 626 172 626 123 626 101 c 0xf8
 626 86 634 74 634 66 c 0
 634 58 621 51 606 44 c 0
 553 20 492 -6 380 -6 c 0
 186 -6 41 139 41 322 c 0
 41 509 189 667 383 667 c 0
 449 667 527 661 593 647 c 1
 594 641 621 509 621 498 c 1
 621 490 609 482 598 482 c 1
 592 482 587 483 584 487 c 1xf4
 576 522 545 627 391 627 c 0
 243 627 171 485 171 345 c 0
 171 189 248 34 406 34 c 0
 451 34 482 44 506 56 c 0
 511 58 514 62 514 70 c 0
 514 91 514 155 514 179 c 1xf8
EndSplineSet
EndChar

StartChar: H
Encoding: 72 72 40
Width: 730
Flags: HW
HStem: -4 34<36.3545 105.385 231.887 300.917 427.355 496.385 622.887 691.917> 321 41<226.556 502.881> 628 34<36.3545 105.385 231.887 300.917 427.355 496.385 622.887 691.917>
VStem: 112 114<38.4863 315.952 365.001 620.014> 503 114<38.4863 317.998 365.001 620.014>
LayerCount: 2
Fore
SplineSet
169 656 m 0
 209 656 258 659 298 662 c 1
 302 656 302 634 298 628 c 1
 286 628 236 622 232 610 c 0
 226 592 226 562 226 526 c 2
 226 368 l 1
 226 366 227 365 227 365 c 1
 271 364 316 362 366 362 c 0
 408 362 461 364 501 365 c 1
 501 365 503 367 503 369 c 0
 503 403 503 526 503 526 c 2
 503 562 502 592 496 610 c 0
 492 622 442 628 430 628 c 1
 426 634 426 656 430 662 c 1
 470 659 520 656 560 656 c 0
 600 656 649 659 689 662 c 1
 693 656 693 634 689 628 c 1
 677 628 627 622 623 610 c 0
 617 592 617 562 617 526 c 2
 617 132 l 2
 617 96 617 66 623 48 c 0
 627 36 677 30 689 30 c 1
 693 24 693 2 689 -4 c 1
 649 -1 599 2 559 2 c 0
 519 2 470 -1 430 -4 c 1
 426 2 426 24 430 30 c 1
 442 30 492 36 496 48 c 0
 502 66 503 96 503 132 c 2
 503 314 l 1
 503 316 501 318 501 318 c 1
 459 319 412 321 366 321 c 0
 241 321 230 318 226 316 c 1
 225 315 226 313 226 313 c 1
 226 132 l 2
 226 96 226 66 232 48 c 0
 236 36 286 30 298 30 c 1
 302 24 302 2 298 -4 c 1
 258 -1 208 2 168 2 c 0
 128 2 79 -1 39 -4 c 1
 35 2 35 24 39 30 c 1
 51 30 101 36 105 48 c 0
 111 66 112 96 112 132 c 2
 112 526 l 2
 112 562 111 592 105 610 c 0
 101 622 51 628 39 628 c 1
 35 634 35 656 39 662 c 1
 79 659 129 656 169 656 c 0
EndSplineSet
EndChar

StartChar: I
Encoding: 73 73 41
Width: 338
Flags: HW
HStem: -4 33<36.3545 105.165 232.107 300.917> 629 33<36.3545 105.165 232.107 300.917>
VStem: 112 114<36.9863 621.514>
LayerCount: 2
Fore
SplineSet
169 656 m 4
 209 656 258 659 298 662 c 5
 302 656 302 635 298 629 c 5
 286 629 236 624 232 612 c 4
 226 594 226 564 226 528 c 6
 226 130 l 6
 226 94 226 64 232 46 c 4
 236 34 286 29 298 29 c 5
 302 23 302 2 298 -4 c 5
 258 -1 208 2 168 2 c 4
 128 2 79 -1 39 -4 c 5
 35 2 35 23 39 29 c 5
 51 29 101 34 105 46 c 4
 111 64 112 94 112 130 c 6
 112 528 l 6
 112 564 111 594 105 612 c 4
 101 624 51 629 39 629 c 5
 35 635 35 656 39 662 c 5
 79 659 129 656 169 656 c 4
EndSplineSet
EndChar

StartChar: J
Encoding: 74 74 42
Width: 320
Flags: HW
HStem: -222 54<-55.75 59.4105> 629 33<30.4688 99.2791 226.221 295.031>
VStem: 106 114<-25.5014 621.514>
LayerCount: 2
Fore
SplineSet
164 656 m 0
 204 656 252 659 292 662 c 1
 296 656 296 635 292 629 c 1
 280 629 230 624 226 612 c 0
 220 594 220 564 220 528 c 2
 220 130 l 6
 220 -88 118 -222 -46 -222 c 5
 -66 -222 -96 -212 -106 -204 c 5
 -112 -196 -118 -186 -118 -172 c 5
 -118 -140 -94 -110 -62 -110 c 5
 -42 -110 -25 -126 -10 -141 c 4
 4 -155 20 -168 34 -168 c 5
 82 -168 106 -78 106 126 c 6
 106 528 l 2
 106 564 106 594 100 612 c 0
 96 624 45 629 33 629 c 1
 29 635 29 656 33 662 c 1
 73 659 124 656 164 656 c 0
EndSplineSet
EndChar

StartChar: K
Encoding: 75 75 43
Width: 682
Flags: HW
HStem: -4 34<36.3545 105.385 231.887 300.917 623.51 693.362> 628 34<36.3545 105.385 231.887 300.917 416.325 473.608 579.992 656.659>
VStem: 112 114<38.4863 306.499 340 620.014>
LayerCount: 2
Fore
SplineSet
169 656 m 0
 209 656 258 659 298 662 c 1
 302 656 302 634 298 628 c 1
 286 628 236 622 232 610 c 0
 226 592 226 562 226 526 c 2
 226 340 l 1
 258 364 302 403 334 435 c 0
 403 504 418 516 462 574 c 0
 470 584 474 598 474 606 c 0
 474 629 430 628 418 628 c 1
 414 635 414 653 417 662 c 1
 454 660 503 656 540 656 c 0
 584 656 618 659 656 662 c 1
 658 656 659 632 654 629 c 1
 645 628 583 624 548 588 c 1
 505 541 420 460 339 378 c 0
 333 372 335 367 339 362 c 0
 423 257 517 137 555 101 c 1
 605 43 660 32 692 30 c 1
 697 24 693 -2 692 -4 c 1
 644 -5 585 -4 555 0 c 0
 509 2 471 28 445 59 c 0
 421 87 322 209 244 303 c 0
 242 306 238 306 235 306 c 0
 231 306 228 304 226 302 c 1
 226 132 l 2
 226 96 226 66 232 48 c 0
 236 36 286 30 298 30 c 1
 302 24 302 2 298 -4 c 1
 258 -1 208 2 168 2 c 0
 128 2 79 -1 39 -4 c 1
 35 2 35 24 39 30 c 1
 51 30 101 36 105 48 c 0
 111 66 112 96 112 132 c 2
 112 526 l 2
 112 562 111 592 105 610 c 0
 101 622 51 628 39 628 c 1
 35 634 35 656 39 662 c 1
 79 659 129 656 169 656 c 0
EndSplineSet
EndChar

StartChar: L
Encoding: 76 76 44
Width: 566
Flags: HW
HStem: -3 33<36.3545 105.385> -1 41<232.842 453.835> 629 33<36.3545 105.165 232.107 300.917>
VStem: 112 114<55.1149 621.514>
LayerCount: 2
Fore
SplineSet
226 130 m 6xb0
 226 120 225 66 232 54 c 4
 242 42 266 40 300 40 c 5
 362 40 l 6x70
 400 40 441 47 467 68 c 4
 490 87 509 117 525 166 c 4
 526 170 532 172 539 172 c 4
 549 172 564 169 567 166 c 5
 548 112 520 41 513 -3 c 5xb0
 445 -3 304 -1 170 -1 c 4x70
 111 -1 65 -3 39 -3 c 5
 35 3 35 24 39 30 c 5
 51 30 101 34 105 46 c 4
 111 64 112 94 112 130 c 6
 112 528 l 6
 112 564 111 594 105 612 c 4
 101 624 51 629 39 629 c 5
 35 635 35 656 39 662 c 5
 79 659 129 656 169 656 c 0
 209 656 258 659 298 662 c 1
 302 656 302 635 298 629 c 1
 286 629 236 624 232 612 c 0
 226 594 226 564 226 528 c 2
 226 130 l 6xb0
EndSplineSet
EndChar

StartChar: M
Encoding: 77 77 45
Width: 902
Flags: HW
HStem: -4 32<18.2231 89.8875 181.64 256.506 605.54 673.707 806.301 873.996> 629 33<56.5999 120.19 790.101 849.797>
VStem: 670 111<296.369 553.986> 683 110<44.7918 419.503>
LayerCount: 2
Fore
SplineSet
164 656 m 0xe0
 198 656 226 660 257 662 c 1
 281 598 384 366 457 192 c 1
 457 191 460 190 461 190 c 0
 462 190 466 193 466 195 c 1
 496 271 550 410 601 544 c 0
 618 588 640 660 640 660 c 1
 660 658 714 656 733 656 c 0
 767 656 816 660 848 662 c 1
 850 658 853 632 851 628 c 1
 840 628 798 622 790 614 c 0
 783 606 781 594 781 574 c 0xe0
 783 504 789 275 793 146 c 0
 795 107 795 72 805 47 c 0
 811 33 864 30 872 30 c 1
 876 21 876 2 874 -4 c 1
 834 -2 790 3 746 3 c 0
 700 3 654 -2 608 -4 c 1
 605 -1 603 22 607 30 c 1
 619 30 664 34 674 44 c 0
 680 50 683 71 683 83 c 0xd0
 683 95 681 126 681 142 c 1
 679 214 673 450 670 531 c 1
 670 534 669 554 662 554 c 0
 660 554 659 552 657 547 c 1
 616 444 501 140 463 44 c 1
 459 35 437 -1 423 -2 c 0
 420 -2 417 -1 414 0 c 1
 180 554 l 1
 174 341 170 188 167 104 c 0
 167 88 169 62 171 54 c 0
 177 36 246 30 254 30 c 1
 258 24 258 2 256 -4 c 1
 216 -2 185 3 141 3 c 0
 95 3 66 -2 20 -4 c 1
 17 0 16 19 20 28 c 1
 32 28 93 36 103 56 c 0
 109 68 114 107 115 125 c 0
 123 303 129 544 130 576 c 0
 130 586 131 599 126 608 c 0
 120 620 72 629 58 629 c 1
 54 633 56 660 58 662 c 1
 104 660 118 656 164 656 c 0xe0
EndSplineSet
EndChar

StartChar: N
Encoding: 78 78 46
Width: 763
Flags: HW
HStem: -4 33<30.6058 103.26 196.676 269.064> 630 33<33.8172 103.493 502.576 577.703 664.546 741.373>
VStem: 122 55<44.3719 543.172> 594 54<207 617.183>
LayerCount: 2
Fore
SplineSet
144 658 m 4
 176 658 213 660 236 662 c 5
 280 583 476 361 593 207 c 5
 594 211 594 249 594 256 c 5
 594 510 l 5
 594 547 591 593 583 609 c 4
 576 623 519 630 505 630 c 5
 501 634 500 655 504 663 c 5
 547 661 577 656 622 656 c 4
 667 656 697 661 740 663 c 5
 742 657 745 640 739 630 c 5
 729 630 666 624 658 608 c 4
 651 594 648 549 648 512 c 6
 648 139 l 6
 648 81 650 51 652 -1 c 5
 649 -4 633 -5 630 -5 c 4
 621 -5 608 4 598 18 c 6
 177 544 l 5
 177 136 l 6
 177 100 179 68 187 53 c 4
 193 39 254 30 266 30 c 5
 272 22 270 2 268 -4 c 5
 228 -2 192 3 148 3 c 4
 102 3 78 -2 32 -4 c 5
 28 3 28 23 32 29 c 5
 44 29 103 37 111 52 c 4
 119 67 122 99 122 137 c 5
 122 203 122 465 122 531 c 5
 122 564 119 593 108 610 c 4
 100 622 48 630 36 630 c 5
 31 636 31 658 35 663 c 5
 73 661 104 658 144 658 c 4
EndSplineSet
EndChar

StartChar: O
Encoding: 79 79 47
Width: 750
Flags: HW
HStem: -10 40<312.589 468.572> 627 40<277.197 433.035>
VStem: 41 130<210.992 445.566> 576 130<210.892 445.669>
LayerCount: 2
Fore
SplineSet
354 627 m 1
 220 627 171 484 171 356 c 1
 171 202 240 30 392 30 c 1
 526 30 576 172 576 300 c 1
 576 454 506 627 354 627 c 1
373 667 m 0
 549 667 706 521 706 328 c 0
 706 141 549 -10 373 -10 c 0
 197 -10 41 136 41 328 c 0
 41 515 197 667 373 667 c 0
EndSplineSet
EndChar

StartChar: P
Encoding: 80 80 48
Width: 562
Flags: HW
HStem: -4 33<36.3545 105.165 232.107 300.917> 280 44<271.104 367.745> 622 38<38.2826 107.761 228.226 349.271>
VStem: 112 114<36.9863 619.492> 418 120<388.279 556.136>
LayerCount: 2
Fore
SplineSet
538 484 m 0
 538 358 446 280 330 280 c 0
 300 280 281 290 273 296 c 0
 270 299 261 313 261 320 c 0
 261 324 263 328 265 328 c 1
 275 325 289 324 304 324 c 0
 368 324 418 377 418 465 c 0
 418 554 369 622 280 622 c 0
 262 622 234 621 230 611 c 0
 225 599 226 573 226 543 c 2
 226 130 l 2
 226 94 226 64 232 46 c 0
 236 34 286 29 298 29 c 1
 302 23 302 2 298 -4 c 1
 258 -1 208 2 168 2 c 0
 128 2 79 -1 39 -4 c 1
 35 2 35 23 39 29 c 1
 51 29 101 34 105 46 c 0
 111 64 112 94 112 130 c 2
 112 528 l 2
 112 564 111 594 105 612 c 0
 101 624 51 628 39 628 c 1
 35 634 35 655 39 661 c 1
 82 659 131 657 171 657 c 0
 211 657 260 660 319 660 c 0
 427 660 538 598 538 484 c 0
EndSplineSet
EndChar

StartChar: Q
Encoding: 81 81 49
Width: 747
Flags: HW
HStem: -140 62<583.936 708.875> 627 40<277.197 433.035>
VStem: 41 130<209.619 445.566> 576 130<211.766 445.669>
LayerCount: 2
Fore
SplineSet
373 667 m 0
 549 667 706 521 706 328 c 0
 706 176 602 49 470 6 c 1
 564 -40 590 -78 692 -78 c 0
 732 -78 755 -71 762 -70 c 1
 768 -70 779 -74 783 -80 c 0
 784 -82 784 -83 784 -84 c 1
 729 -113 660 -140 599 -140 c 0
 491 -140 413 -33 294 0 c 0
 152 36 41 166 41 328 c 0
 41 515 197 667 373 667 c 0
354 627 m 0
 220 627 171 484 171 356 c 0
 171 202 240 30 392 30 c 0
 526 30 576 172 576 300 c 0
 576 454 506 627 354 627 c 0
EndSplineSet
EndChar

StartChar: R
Encoding: 82 82 50
Width: 651
Flags: HW
HStem: -4 33<36.3545 105.165 232.107 300.917 620.818 685.862> 300 35<225.386 284.928> 622 38<38.2826 107.761 228.226 349.011>
VStem: 112 114<36.9863 300.5 335.5 619.492> 408 120<411.663 564.922>
LayerCount: 2
Fore
SplineSet
319 660 m 0
 427 660 528 599 528 482 c 0
 528 405 449 338 391 320 c 1
 454 227 512 152 545 108 c 1
 597 42 653 31 685 29 c 1
 690 23 685 -2 684 -4 c 1
 636 -5 583 -4 553 0 c 0
 507 2 468 28 444 60 c 0
 436 70 315 238 283 287 c 0
 280 291 270 300 259 300 c 0
 256 300 230 300 226 300 c 1
 226 264 226 130 226 130 c 1
 226 94 226 64 232 46 c 0
 236 34 286 29 298 29 c 1
 302 23 302 2 298 -4 c 1
 258 -1 208 2 168 2 c 0
 128 2 79 -1 39 -4 c 1
 35 2 35 23 39 29 c 1
 51 29 101 34 105 46 c 0
 111 64 112 94 112 130 c 2
 112 528 l 2
 112 564 111 594 105 612 c 0
 101 624 51 628 39 628 c 1
 35 634 35 655 39 661 c 1
 82 659 131 657 171 657 c 0
 211 657 260 660 319 660 c 0
408 465 m 0
 408 549 376 622 280 622 c 0
 262 622 234 621 230 611 c 0
 225 599 226 573 226 543 c 2
 226 335 l 1
 226 335 265 335 275 335 c 0
 346 335 408 388 408 465 c 0
EndSplineSet
EndChar

StartChar: S
Encoding: 83 83 51
Width: 509
Flags: HW
HStem: -10 40<176.846 314.266> 628 40<198.876 319.773>
VStem: 46 40<128.167 190.805> 58 106<469.804 568.861> 358 109<93.2266 199.109>
LayerCount: 2
Fore
SplineSet
262 668 m 0xd8
 322 668 358 654 422 640 c 1
 428 588 431 530 433 486 c 1
 432 481 426 479 422 479 c 0
 418 479 396 479 394 488 c 0
 387 541 339 628 261 628 c 0
 197 628 164 589 164 531 c 0xd8
 164 460 242 416 306 374 c 0
 372 331 467 283 467 174 c 0
 467 64 362 -10 254 -10 c 0
 190 -10 122 6 68 18 c 1
 57 70 47 160 46 180 c 1
 49 185 68 193 74 193 c 0
 80 193 85 190 86 184 c 0xe8
 94 138 139 30 250 30 c 0
 306 30 358 64 358 138 c 0
 358 215 278 254 218 291 c 0
 143 338 58 388 58 490 c 0
 58 594 160 668 262 668 c 0xd8
EndSplineSet
EndChar

StartChar: T
Encoding: 84 84 52
Width: 624
Flags: HW
HStem: -4 33<179.969 248.779 375.721 444.531> 618 40<95.3771 255.5 369 527.994>
VStem: 7 36<490.827 550.813> 256 114<36.9863 618.5> 580 36<490.827 550.813>
LayerCount: 2
Fore
SplineSet
492 658 m 0
 536 658 559 673 574 676 c 0
 583 678 585 678 590 676 c 1
 594 646 610 524 616 498 c 1
 613 495 601 490 592 490 c 0
 587 490 582 492 580 496 c 1
 568 564 529 618 479 618 c 2
 370 618 l 1
 370 130 l 2
 370 94 370 64 376 46 c 0
 380 34 430 29 442 29 c 1
 446 23 446 2 442 -4 c 1
 402 -1 352 2 312 2 c 0
 272 2 222 -1 182 -4 c 1
 178 2 178 23 182 29 c 1
 194 29 245 34 249 46 c 0
 255 64 256 94 256 130 c 2
 256 618 l 1
 144 618 l 2
 94 618 55 564 43 496 c 1
 41 492 37 490 32 490 c 0
 23 490 10 495 7 498 c 1
 13 524 30 646 34 676 c 1
 39 678 44 678 51 676 c 0
 66 673 87 658 131 658 c 0
 219 658 401 658 492 658 c 0
EndSplineSet
EndChar

StartChar: U
Encoding: 85 85 53
Width: 723
Flags: HW
HStem: -6 65<299.265 474.837> 629 33<20.8545 89.6648 216.607 285.417 481.424 552.813 640.517 716.166>
VStem: 96 114<165.938 621.514> 569 55<165.693 615.615>
LayerCount: 2
Fore
SplineSet
154 656 m 4
 194 656 243 659 283 662 c 5
 287 656 287 635 283 629 c 5
 271 629 220 624 216 612 c 4
 210 594 210 564 210 528 c 6
 210 313 l 6
 210 237 219 182 247 136 c 4
 282 72 342 59 391 59 c 4
 483 59 567 118 569 292 c 6
 569 512 l 6
 569 552 566 590 557 608 c 4
 550 622 498 630 484 630 c 5
 479 637 480 656 483 662 c 5
 527 659 556 656 601 656 c 4
 646 656 670 660 714 662 c 5
 718 656 719 639 714 630 c 5
 702 630 644 624 636 608 c 4
 628 590 624 553 624 513 c 6
 624 281 l 6
 624 79 506 -6 356 -6 c 4
 278 -6 207 19 161 70 c 4
 118 117 96 184 96 276 c 6
 96 528 l 6
 96 564 97 594 90 612 c 4
 86 624 35 629 23 629 c 5
 19 635 19 656 23 662 c 5
 63 659 114 656 154 656 c 4
EndSplineSet
EndChar

StartChar: V
Encoding: 86 86 54
Width: 654
Flags: HW
HStem: 629 33<-8.89045 47.6456 199.684 256.609 452.341 518.295 611.054 673.976>
LayerCount: 2
Fore
SplineSet
122 656 m 0
 165 656 215 659 255 662 c 1
 258 656 258 633 254 629 c 1
 244 629 193 625 193 599 c 0
 193 586 202 559 214 528 c 0
 259 416 359 163 361 159 c 1
 364 166 473 431 508 522 c 0
 517 546 528 578 528 598 c 0
 528 623 467 629 455 629 c 1
 450 633 451 656 455 662 c 1
 497 659 525 656 567 656 c 0
 612 656 632 660 672 662 c 1
 676 656 675 633 671 629 c 1
 661 629 618 625 604 607 c 0
 590 590 573 551 559 515 c 0
 481 323 436 217 358 31 c 0
 348 9 327 -6 315 -6 c 0
 309 -6 307 2 303 8 c 1
 269 97 137 416 99 512 c 1
 85 546 72 578 59 601 c 0
 47 622 5 629 -7 629 c 1
 -10 633 -10 658 -7 662 c 1
 35 659 78 656 122 656 c 0
EndSplineSet
EndChar

StartChar: W
Encoding: 87 87 55
Width: 918
Flags: HW
HStem: 629 33<-8.26752 46.104 195.384 252.309 710.041 775.995 870.185 932.676>
LayerCount: 2
Fore
SplineSet
126 656 m 0
 169 656 211 659 251 662 c 1
 254 656 254 633 250 629 c 1
 240 629 189 625 189 599 c 1
 189 588 199 561 209 529 c 0
 242 426 293 273 314 202 c 1
 338 280 427 545 454 627 c 0
 460 646 476 662 487 662 c 0
 491 662 495 657 499 646 c 1
 535 551 634 282 668 182 c 1
 690 258 746 436 770 522 c 0
 777 547 786 578 786 598 c 0
 786 623 725 629 713 629 c 1
 708 633 709 656 713 662 c 1
 755 659 784 656 826 656 c 0
 871 656 891 660 931 662 c 1
 935 656 934 633 930 629 c 1
 920 629 879 623 863 607 c 0
 849 591 837 566 825 528 c 0
 767 339 728 218 670 36 c 0
 663 14 643 -6 631 -6 c 0
 625 -6 619 2 616 8 c 1
 584 102 484 362 450 460 c 1
 422 368 364 198 313 38 c 0
 309 24 289 -6 277 -6 c 0
 271 -6 265 2 262 8 c 1
 233 100 123 423 92 521 c 1
 81 556 71 583 57 602 c 0
 44 622 7 629 -6 629 c 1
 -10 633 -9 658 -6 662 c 1
 37 659 82 656 126 656 c 0
EndSplineSet
EndChar

StartChar: X
Encoding: 88 88 56
Width: 682
Flags: HW
HStem: -4 33<-10.7903 62.5199 164.908 238.651 400.555 454.472 619.618 688.107> 629 33<21.3181 85.2695 246.21 301.592 431.362 497.733 605.783 669.708>
LayerCount: 2
Fore
SplineSet
165 656 m 0
 214 656 261 660 301 662 c 1
 303 656 304 629 299 629 c 1
 285 629 242 622 242 602 c 0
 242 595 246 585 252 576 c 2
 366 403 l 1
 418 471 487 557 502 588 c 0
 503 592 506 597 506 601 c 0
 506 613 480 628 435 628 c 1
 431 628 429 656 433 662 c 1
 471 658 516 656 553 656 c 0
 605 656 642 659 668 662 c 1
 671 656 673 631 667 628 c 1
 659 628 603 626 567 582 c 1
 529 534 426 413 390 365 c 1
 432 301 580 79 588 71 c 1
 612 39 662 29 686 29 c 1
 690 22 690 1 687 -4 c 1
 647 -2 596 2 555 2 c 0
 499 2 459 -2 403 -4 c 1
 398 1 399 29 404 29 c 0
 415 29 461 40 461 58 c 0
 461 61 459 66 457 69 c 2
 315 286 l 1
 277 236 186 112 164 74 c 0
 161 68 157 62 157 58 c 0
 157 43 193 29 236 29 c 1
 240 23 241 3 239 -4 c 1
 204 -2 153 2 116 2 c 0
 64 2 31 -2 -9 -4 c 1
 -13 2 -11 24 -8 29 c 1
 0 29 67 32 97 72 c 1
 135 120 251 279 287 327 c 1
 267 357 146 542 146 542 c 2
 126 574 107 601 86 614 c 0
 70 624 36 629 24 629 c 1
 19 629 19 657 24 662 c 1
 73 660 116 656 165 656 c 0
EndSplineSet
EndChar

StartChar: Y
Encoding: 89 89 57
Width: 603
Flags: HW
HStem: -4 33<168.037 236.847 363.789 432.599> 629 33<-9.53368 45.4624 205.972 263.296 395.12 464.435 549.933 617.037>
VStem: 244 114<36.9863 325.915>
LayerCount: 2
Fore
SplineSet
244 130 m 2
 244 276 l 0
 244 283 241 291 237 300 c 0
 195 380 133 489 104 542 c 1
 86 574 75 586 55 604 c 0
 39 622 5 629 -7 629 c 1
 -12 633 -11 656 -7 662 c 1
 37 659 81 656 127 656 c 0
 172 656 222 659 262 662 c 1
 265 656 266 633 261 629 c 1
 247 629 200 626 200 600 c 0
 200 594 204 586 210 576 c 2
 338 348 l 1
 365 390 439 529 467 585 c 0
 469 591 471 598 471 604 c 0
 471 616 432 628 398 628 c 1
 394 632 394 658 397 662 c 1
 439 659 463 656 505 656 c 0
 553 656 576 660 616 662 c 1
 619 656 619 632 615 628 c 1
 605 628 553 628 534 596 c 0
 505 548 399 370 363 300 c 0
 358 291 358 282 358 274 c 0
 358 244 358 130 358 130 c 2
 358 94 358 64 364 46 c 0
 368 34 418 29 430 29 c 1
 434 23 434 2 430 -4 c 1
 390 -1 340 2 300 2 c 0
 260 2 211 -1 171 -4 c 1
 167 2 167 23 171 29 c 1
 183 29 233 34 237 46 c 0
 243 64 244 94 244 130 c 2
EndSplineSet
EndChar

StartChar: Z
Encoding: 90 90 58
Width: 630
Flags: HW
HStem: 0 42<177 491.197> 617 41<148.951 432.611> 646 20G<70.4199 83.6699>
VStem: 40 40<478.594 533.512>
LayerCount: 2
Fore
SplineSet
220 617 m 2xd0
 133 617 103 555 80 483 c 1
 78 480 75 478 67 478 c 0
 57 478 43 481 40 484 c 1
 54 536 66 600 74 666 c 1xb0
 92 662 161 658 181 658 c 1
 225 658 348 658 348 658 c 2
 432 658 485 662 569 668 c 1
 573 667 583 650 583 641 c 1
 581 633 177 42 177 42 c 17
 185 42 415 42 415 42 c 2
 455 42 488 56 510 78 c 0
 535 103 548 134 562 171 c 0
 563 174 570 176 576 176 c 0
 586 176 599 172 603 168 c 1
 583 102 562 47 552 0 c 1
 531 0 142 0 45 0 c 1
 33 0 20 13 23 18 c 2
 433 617 l 1
 220 617 l 2xd0
EndSplineSet
EndChar

StartChar: bracketleft
Encoding: 91 91 59
Width: 280
Flags: HW
HStem: -141 30<212.152 275.722> 725 30<212.152 275.722>
VStem: 74 78<-89.74 703.74>
LayerCount: 2
Fore
SplineSet
93 744 m 0
 185 744 254 751 272 755 c 1
 273 755 276 752 276 746 c 0
 276 736 270 727 266 725 c 0
 232 711 166 703 152 700 c 1
 152 -86 l 1
 166 -89 232 -97 266 -111 c 0
 270 -113 276 -122 276 -132 c 0
 276 -138 273 -141 272 -141 c 1
 254 -137 185 -130 93 -130 c 0
 77 -130 74 -113 74 -107 c 1
 74 721 l 1
 74 727 77 744 93 744 c 0
EndSplineSet
EndChar

StartChar: backslash
Encoding: 92 92 60
Width: 414
Flags: HW
LayerCount: 2
Fore
SplineSet
32 752 m 1
 36 757 43 759 51 759 c 0
 69 759 81 751 84 743 c 2
 84 743 382 -16 382 -22 c 1
 381 -26 369 -32 356 -32 c 0
 348 -32 335 -26 331 -16 c 0
 217 276 122 524 32 752 c 1
EndSplineSet
EndChar

StartChar: bracketright
Encoding: 93 93 61
Width: 280
Flags: HW
HStem: -141 30<2.27759 65.8482> 725 30<2.27759 65.8482>
VStem: 126 78<-89.74 703.74>
LayerCount: 2
Fore
SplineSet
185 744 m 0
 201 744 204 727 204 721 c 1
 204 -107 l 1
 204 -113 201 -130 185 -130 c 0
 93 -130 24 -137 6 -141 c 1
 5 -141 2 -138 2 -132 c 0
 2 -122 8 -113 12 -111 c 0
 46 -97 112 -89 126 -86 c 1
 126 700 l 1
 112 703 46 711 12 725 c 0
 8 727 2 736 2 746 c 0
 2 752 5 755 6 755 c 1
 24 751 93 744 185 744 c 0
EndSplineSet
EndChar

StartChar: asciicircum
Encoding: 94 94 62
Width: 390
Flags: HW
HStem: 421 236
VStem: 50 272
LayerCount: 2
Fore
SplineSet
186 657 m 0
 192 657 200 652 204 644 c 0
 250 560 274 518 322 438 c 1
 322 428 312 421 305 421 c 1
 253 472 186 554 186 554 c 25
 186 554 120 472 68 421 c 1
 61 421 50 428 50 438 c 1
 98 518 123 560 169 644 c 0
 173 652 180 657 186 657 c 0
EndSplineSet
EndChar

StartChar: underscore
Encoding: 95 95 63
Width: 498
Flags: HW
HStem: -43 56<13.9907 472.32>
LayerCount: 2
Fore
SplineSet
10 -33 m 1
 10 -33 15 13 25 13 c 2
 474 13 l 2
 476 13 478 12 478 8 c 0
 478 -1 474 -15 468 -37 c 0
 466 -43 462 -43 462 -43 c 1
 17 -43 l 1
 17 -43 10 -43 10 -33 c 1
EndSplineSet
EndChar

StartChar: grave
Encoding: 96 96 64
Width: 295
Flags: HW
HStem: 524 162
VStem: 76 170
LayerCount: 2
Fore
SplineSet
76 660 m 0
 76 666 84 686 119 686 c 0
 133 686 148 683 153 678 c 0
 190 635 246 545 246 540 c 0
 246 534 239 524 232 524 c 0
 222 524 76 621 76 660 c 0
EndSplineSet
EndChar

StartChar: a
Encoding: 97 97 65
Width: 446
Flags: HW
HStem: -8 62<119 216.205 325.5 406> 404 38<158.645 276>
VStem: 30 109<71.1359 169.361> 44 94<293.729 362.551> 268 103<65.8703 223 257.257 374.206>
LayerCount: 2
Fore
SplineSet
204 54 m 0xe8
 234 54 268 77 268 85 c 2
 268 223 l 1
 244 214 207 202 188 192 c 0
 156 176 139 150 139 120 c 0
 139 80 172 54 204 54 c 0xe8
241 442 m 0
 311 442 371 382 371 298 c 2
 371 101 l 2
 371 74 380 57 398 57 c 0
 414 57 425 66 429 68 c 1
 433 67 434 60 434 56 c 1
 434 50 433 44 430 39 c 1
 417 27 373 -6 341 -6 c 0
 310 -6 280 24 272 52 c 1
 262 42 190 -8 154 -8 c 0
 83 -8 30 48 30 110 c 0xe8
 30 150 58 182 82 190 c 0
 129 206 222 241 262 257 c 1
 267 263 268 268 268 280 c 2
 268 306 l 2
 268 354 237 404 195 404 c 0
 159 404 146 374 138 332 c 0
 132 304 117 286 87 286 c 0
 63 286 44 306 44 330 c 0xd8
 44 338 48 353 54 363 c 1
 76 384 161 442 241 442 c 0
EndSplineSet
EndChar

StartChar: b
Encoding: 98 98 66
Width: 515
Flags: HW
HStem: -8 39<194.264 300.467> 377 66<221.314 308.637> 626 29<-1.57214 58.0689> 674 20G<157.139 171.139>
VStem: 67 103<51.5469 352.359 392.778 617.756> 368 114<134.259 307.919>
LayerCount: 2
Fore
SplineSet
224 -8 m 0
 190 -8 147 9 124 12 c 0
 104 15 88 17 73 11 c 1
 69 11 55 28 55 34 c 1
 63 53 67 88 67 131 c 2
 67 558 l 2
 67 573 67 594 61 608 c 0
 55 621 20 626 0 626 c 1
 -2 626 -3 653 1 655 c 1
 82 663 146 684 168 694 c 1
 174 694 181 684 181 678 c 1
 181 678 170 640 170 584 c 2
 170 404 l 2
 170 399 170 388 176 393 c 0
 191 405 250 443 286 443 c 0
 404 443 482 341 482 234 c 0
 482 88 360 -8 224 -8 c 0
237 377 m 0
 210 377 183 362 174 352 c 0
 171 349 170 346 170 342 c 2
 170 98 l 2
 170 60 207 31 250 31 c 0
 318 31 368 117 368 195 c 0
 368 321 313 377 237 377 c 0
EndSplineSet
EndChar

StartChar: c
Encoding: 99 99 67
Width: 430
Flags: HW
HStem: -8 75<205.375 323.149> 395 48<188.205 306.5>
VStem: 32 102<142.646 291.453>
LayerCount: 2
Fore
SplineSet
394 384 m 0
 394 352 372 329 346 329 c 1
 322 329 304 356 288 370 c 0
 269 386 251 395 225 395 c 0
 177 395 134 325 134 242 c 0
 134 114 210 67 287 67 c 0
 343 67 379 98 396 117 c 1
 400 116 406 108 406 101 c 1
 406 95 404 86 402 82 c 0
 384 54 324 -8 238 -8 c 0
 122 -8 32 79 32 197 c 0
 32 331 163 443 284 443 c 0
 329 443 362 434 380 422 c 1
 386 415 394 402 394 384 c 0
EndSplineSet
EndChar

StartChar: d
Encoding: 100 100 68
Width: 526
Flags: HW
HStem: -8 63<205.581 289.521> 24 30<455.477 508.312> 396 46<194.85 324.522> 626 29<273.539 333.18> 674 20G<432.25 446.25>
VStem: 32 113<128.106 294.263> 342 104<70.2976 376.13 436.009 617.756>
LayerCount: 2
Fore
SplineSet
282 442 m 0xbe
 303 442 328 438 337 436 c 1
 341 436 342 448 342 458 c 1
 342 470 342 542 342 558 c 1
 342 574 342 594 336 608 c 0
 330 621 296 626 276 626 c 1
 274 626 272 653 276 655 c 1
 357 663 422 684 444 694 c 1
 450 694 456 684 456 678 c 1
 456 678 446 640 446 584 c 2
 446 136 l 2
 446 109 446 80 454 68 c 0
 462 54 500 54 506 54 c 1
 508 52 508 46 508 41 c 0
 508 37 506 27 502 24 c 1x7e
 446 20 357 -8 350 -8 c 0
 345 -8 342 3 342 14 c 2
 342 40 l 2
 342 44 341 47 339 45 c 0
 323 31 261 -8 211 -8 c 0
 117 -8 32 83 32 203 c 0
 32 353 192 442 282 442 c 0xbe
250 396 m 0
 180 396 145 318 145 236 c 0
 145 134 190 55 266 55 c 0xbe
 302 55 342 80 342 94 c 2
 342 348 l 2
 342 368 299 396 250 396 c 0
EndSplineSet
EndChar

StartChar: e
Encoding: 101 101 69
Width: 441
Flags: HW
HStem: -8 74<206.407 322.894> 245 38<138.923 281.129> 254 33<178.683 299.726> 404 38<183.24 270.755>
VStem: 32 100<144.773 245 283.5 298.109> 300 104<287.632 371.86>
LayerCount: 2
Fore
SplineSet
136 283 m 1xdc
 145 283 265 285 282 287 c 0xbc
 294 287 300 295 300 307 c 1
 300 342 281 404 228 404 c 1
 156 404 135 300 136 283 c 1xdc
132 245 m 1xdc
 130 111 218 66 284 66 c 0
 340 66 379 98 396 117 c 1
 400 116 406 108 406 101 c 1
 406 95 403 86 401 82 c 0
 383 54 324 -8 238 -8 c 0
 123 -8 32 76 32 200 c 0
 32 330 140 442 242 442 c 0
 368 442 404 348 404 299 c 0
 404 273 396 255 379 254 c 0xbc
 329 250 175 246 132 245 c 1xdc
EndSplineSet
EndChar

StartChar: f
Encoding: 102 102 70
Width: 325
Flags: HW
HStem: -4 33<21.6616 87.4741 204.413 272.224> 386 44<32.822 94.1928 197.693 316.586> 632 66<224.41 300.011>
VStem: 94 104<36.9863 386 430 545.862>
LayerCount: 2
Fore
SplineSet
284 698 m 4
 315 698 326 693 340 686 c 5
 350 680 364 667 364 650 c 5
 364 616 342 595 319 595 c 5
 299 595 286 610 271 620 c 4
 260 628 251 632 237 632 c 4
 213 632 194 598 194 544 c 5
 194 521 195 446 196 430 c 5
 200 430 298 430 314 430 c 5
 318 430 319 424 319 418 c 4
 319 409 311 394 301 386 c 5
 286 386 214 386 198 386 c 5
 198 341 198 130 198 130 c 6
 198 94 198 64 204 46 c 4
 208 34 258 29 270 29 c 5
 274 23 274 2 270 -4 c 5
 230 -1 186 2 146 2 c 4
 106 2 64 -1 24 -4 c 5
 20 2 20 23 24 29 c 5
 36 29 84 34 88 46 c 4
 94 64 94 94 94 130 c 6
 94 130 94 342 94 386 c 5
 80 386 43 386 30 386 c 5
 26 387 25 393 25 397 c 5
 30 406 48 424 54 430 c 5
 69 430 84 430 94 430 c 5
 94 436 94 440 94 440 c 6
 94 581 216 698 284 698 c 4
EndSplineSet
EndChar

StartChar: g
Encoding: 103 103 71
Width: 466
Flags: HW
HStem: -222 48<161.549 301.336> -9 90<134.385 344.881> 142 34<180.799 264.924> 370 56<384.408 448.122> 408 34<170.86 254.195>
VStem: 20 94<-131.356 -56.7491> 42 99<220.4 363.145> 292 99<222.021 368.233> 376 78<-99.1348 -3.5>
LayerCount: 2
Fore
SplineSet
212 408 m 1xeb
 158 408 141 351 141 300 c 1
 141 242 168 176 224 176 c 1
 278 176 292 233 292 283 c 1
 292 341 269 408 212 408 c 1xeb
254 -9 m 0
 226 -9 166 -10 153 -12 c 1
 138 -22 114 -43 114 -67 c 0
 114 -133 164 -174 242 -174 c 0
 324 -174 376 -124 376 -80 c 0xe480
 376 -44 334 -9 254 -9 c 0
310 81 m 0
 396 79 454 19 454 -26 c 0
 454 -128 328 -222 190 -222 c 0
 100 -222 20 -179 20 -104 c 0xf480
 20 -62 80 -22 116 -4 c 1
 82 6 45 46 45 92 c 1
 53 111 102 146 130 162 c 1
 77 187 42 238 42 291 c 0
 42 372 117 442 216 442 c 0xea
 260 442 293 431 316 418 c 0
 327 413 324 413 330 412 c 1
 446 426 l 1
 451 424 456 421 456 416 c 0
 456 408 442 376 432 370 c 1
 408 372 385 373 372 375 c 1
 370 375 366 374 366 372 c 1
 376 358 391 329 391 292 c 0xf3
 391 216 316 142 216 142 c 0
 198 142 175 146 162 150 c 1
 148 140 132 125 132 112 c 0
 132 100 154 82 186 82 c 0
 238 82 270 82 310 81 c 0
EndSplineSet
EndChar

StartChar: h
Encoding: 104 104 72
Width: 544
Flags: HW
HStem: -4 33<13.3545 79.167 196.102 258.417 296.855 356.672 473.605 539.417> 372 70<266.195 390.58> 626 29<17.4244 77.0656> 674 20G<176.136 190.136>
VStem: 86 104<36.9863 343.267 364.524 618.305> 363 104<36.9863 341.846>
LayerCount: 2
Fore
SplineSet
334 442 m 0
 445 442 467 370 467 218 c 2
 467 130 l 2
 467 94 467 64 473 46 c 0
 477 34 525 29 537 29 c 1
 541 23 541 2 537 -4 c 1
 497 -1 455 2 415 2 c 0
 375 2 339 -1 299 -4 c 1
 295 2 295 23 299 29 c 1
 311 29 353 34 357 46 c 0
 363 64 363 94 363 130 c 2
 363 220 l 2
 363 318 347 372 281 372 c 0
 243 372 190 331 190 317 c 2
 190 130 l 2
 190 96 190 64 196 46 c 0
 200 34 244 29 256 29 c 1
 260 23 260 2 256 -4 c 1
 216 -1 177 2 137 2 c 0
 96 2 56 -1 16 -4 c 1
 12 2 12 23 16 29 c 1
 28 29 75 34 79 46 c 0
 85 64 86 94 86 130 c 2
 86 558 l 2
 86 573 86 594 80 608 c 0
 74 621 39 626 19 626 c 1
 17 626 16 653 20 655 c 1
 101 663 165 684 187 694 c 1
 193 694 200 684 200 678 c 1
 200 678 190 632 190 584 c 1
 190 584 190 372 190 368 c 0
 190 366 189 364 191 364 c 1
 193 364 194 366 196 368 c 0
 220 395 287 442 334 442 c 0
EndSplineSet
EndChar

StartChar: i
Encoding: 105 105 73
Width: 287
Flags: HW
HStem: -4 33<27.3165 93.1289 210.064 272.379> 365 28<26.9495 88.8272> 421 20G<178.848 201.348> 544 122<95.6769 190.316>
VStem: 82 123<557.329 651.671> 100 104<36.9863 356.638>
LayerCount: 2
Fore
SplineSet
204 317 m 5xf4
 204 130 l 6
 204 96 204 64 210 46 c 4
 214 34 258 29 270 29 c 5
 274 23 274 2 270 -4 c 5
 230 -1 191 2 151 2 c 4
 110 2 70 -1 30 -4 c 5
 26 2 26 23 30 29 c 5
 42 29 89 34 93 46 c 4
 100 64 100 94 100 130 c 6
 100 279 l 6
 100 291 100 332 93 346 c 4
 85 362 36 365 29 365 c 5
 27 367 25 391 29 393 c 5
 93 399 159 421 198 441 c 5
 204 440 212 428 212 424 c 5
 210 416 204 377 204 365 c 5
 204 354 204 320 204 317 c 5xf4
82 604 m 4xf8
 82 638 109 666 143 666 c 4
 177 666 205 638 205 604 c 4
 205 570 177 544 143 544 c 4
 109 544 82 570 82 604 c 4xf8
EndSplineSet
EndChar

StartChar: j
Encoding: 106 106 74
Width: 257
Flags: HW
HStem: 365 28<14.4768 76.3544> 421 20G<166.375 188.875> 542 124<79.9493 175.801>
VStem: 66 124<556.574 652.426> 87 104<-42.7502 356.638>
LayerCount: 2
Fore
SplineSet
-17 -202 m 5xe8
 13 -180 87 -132 87 54 c 6
 87 279 l 6
 87 291 86 332 80 346 c 4
 72 362 23 365 16 365 c 5
 14 367 13 391 17 393 c 5
 81 399 147 421 186 441 c 5
 192 440 200 428 200 424 c 5
 198 416 191 379 191 365 c 5
 191 354 191 319 191 316 c 5
 191 94 l 5
 191 -44 136 -128 82 -172 c 4
 50 -198 4 -217 -11 -217 c 5
 -15 -214 -17 -206 -17 -202 c 5xe8
66 604 m 0xf0
 66 638 94 666 128 666 c 0
 162 666 190 638 190 604 c 0
 190 570 162 542 128 542 c 0
 94 542 66 570 66 604 c 0xf0
EndSplineSet
EndChar

StartChar: k
Encoding: 107 107 75
Width: 549
Flags: HW
HStem: -4 33<13.7005 78.3528 196.657 261.571 479.211 546.327> 4 27<482.69 548.503> 400 32<299.901 355.954 448.816 518.115> 626 29<17.4244 77.0656> 674 20G<176.136 190.136>
VStem: 86 104<36.9863 202.5 235.5 618.305>
LayerCount: 2
Fore
SplineSet
190 130 m 6x7c
 190 94 190 64 196 46 c 4
 200 34 247 29 259 29 c 5
 263 23 263 2 259 -4 c 5
 219 -1 177 2 137 2 c 4
 96 2 56 -1 16 -4 c 5
 12 2 12 23 16 29 c 5xbc
 28 29 75 34 79 46 c 4
 85 64 86 94 86 130 c 6
 86 558 l 6
 86 574 86 594 80 608 c 4
 74 621 39 626 19 626 c 5
 17 626 16 653 20 655 c 5
 101 663 165 684 187 694 c 5
 193 694 200 684 200 678 c 5
 200 678 190 632 190 584 c 5
 189 236 l 5
 206 242 233 262 267 292 c 4
 328 344 357 369 357 381 c 4
 357 395 315 399 301 400 c 5
 297 408 298 430 303 432 c 5
 317 430 380 428 417 428 c 4
 452 428 482 430 516 432 c 5
 521 424 519 404 515 400 c 5
 493 398 451 390 427 374 c 4
 411 362 340 304 280 252 c 5
 353 170 401 118 441 76 c 4
 481 35 517 31 546 31 c 5
 550 24 549 8 547 4 c 5
 535 0 496 -5 464 -5 c 4
 406 -5 356 20 334 46 c 6
 334 46 256 130 203 192 c 4
 199 198 190 202 190 202 c 5
 190 130 l 6x7c
EndSplineSet
EndChar

StartChar: l
Encoding: 108 108 76
Width: 275
Flags: HW
HStem: -4 33<13.3545 79.167 196.105 261.917> 626 29<17.4244 77.0656> 674 20G<176.136 190.136>
VStem: 86 104<36.9863 618.305>
LayerCount: 2
Fore
SplineSet
86 558 m 2
 86 574 86 594 80 608 c 0
 74 621 39 626 19 626 c 1
 17 626 16 653 20 655 c 1
 101 663 165 684 187 694 c 1
 193 694 200 684 200 678 c 1
 200 678 190 632 190 584 c 1
 190 500 190 130 190 130 c 2
 190 94 190 64 196 46 c 0
 200 34 247 29 259 29 c 1
 263 23 263 2 259 -4 c 1
 219 -1 177 2 137 2 c 0
 96 2 56 -1 16 -4 c 1
 12 2 12 23 16 29 c 1
 28 29 75 34 79 46 c 0
 85 64 86 94 86 130 c 2
 86 558 l 2
EndSplineSet
EndChar

StartChar: m
Encoding: 109 109 77
Width: 831
Flags: HW
HStem: -4 33<27.3165 93.1289 210.064 272.379 306.817 367.633 484.566 549.379 583.317 643.134 760.067 825.879> 365 28<26.9495 88.8272> 372 70<276.361 377.598 549.985 676.475>
VStem: 100 104<36.9863 345.279> 374 104<36.6415 342.21> 650 104<36.9863 341.711>
LayerCount: 2
Fore
SplineSet
347 442 m 0xbc
 409 442 445 420 465 358 c 1
 509 400 574 442 621 442 c 0
 732 442 754 370 754 218 c 2
 754 130 l 2
 754 94 754 64 760 46 c 0
 764 34 811 29 823 29 c 1
 827 23 827 2 823 -4 c 1
 783 -1 741 2 701 2 c 0
 661 2 626 -1 586 -4 c 1
 582 2 582 23 586 29 c 1
 598 29 639 34 643 46 c 0
 649 64 650 94 650 130 c 2
 650 224 l 2
 650 310 636 372 569 372 c 0
 525 372 473 330 473 316 c 0
 473 314 474 309 474 307 c 0
 476 283 478 250 478 224 c 2
 478 130 l 2
 478 94 478 64 484 46 c 0
 488 34 535 29 547 29 c 1
 551 23 551 2 547 -4 c 1
 507 -1 466 2 426 2 c 0
 386 2 349 -1 309 -4 c 1
 305 2 305 23 309 29 c 1
 321 29 364 34 368 46 c 0
 374 64 374 94 374 130 c 2
 374 221 l 2
 374 318 356 372 294 372 c 0xbc
 252 372 204 333 204 317 c 2
 204 130 l 2
 204 96 204 64 210 46 c 0
 214 34 258 29 270 29 c 1
 274 23 274 2 270 -4 c 1
 230 -1 191 2 151 2 c 0
 110 2 70 -1 30 -4 c 1
 26 2 26 23 30 29 c 1
 42 29 89 34 93 46 c 0
 100 64 100 94 100 130 c 2
 100 279 l 2
 100 291 100 332 93 346 c 0
 85 362 36 365 29 365 c 1
 27 367 25 391 29 393 c 1xdc
 93 399 159 421 198 441 c 1
 204 440 212 428 212 424 c 1
 210 416 204 376 204 372 c 0
 204 370 204 367 206 367 c 1
 208 367 209 368 211 370 c 0
 237 396 297 442 347 442 c 0xbc
EndSplineSet
EndChar

StartChar: n
Encoding: 110 110 78
Width: 559
Flags: HW
HStem: -4 33<27.3165 93.1289 210.064 272.379 310.817 370.634 487.567 553.379> 365 28<26.9495 88.8272> 372 70<280.259 404.542>
VStem: 100 104<36.9863 343.149> 377 104<36.9863 341.846>
LayerCount: 2
Fore
SplineSet
348 442 m 4xb8
 459 442 481 370 481 218 c 6
 481 130 l 6
 481 94 481 64 487 46 c 4
 491 34 539 29 551 29 c 5
 555 23 555 2 551 -4 c 5
 511 -1 469 2 429 2 c 4
 389 2 353 -1 313 -4 c 5
 309 2 309 23 313 29 c 5
 325 29 367 34 371 46 c 4
 377 64 377 94 377 130 c 6
 377 220 l 6
 377 318 361 372 295 372 c 4xb8
 257 372 204 331 204 317 c 6
 204 130 l 6
 204 96 204 64 210 46 c 4
 214 34 258 29 270 29 c 5
 274 23 274 2 270 -4 c 5
 230 -1 191 2 151 2 c 4
 110 2 70 -1 30 -4 c 5
 26 2 26 23 30 29 c 5
 42 29 89 34 93 46 c 4
 100 64 100 94 100 130 c 6
 100 279 l 6
 100 291 100 332 93 346 c 4
 85 362 36 365 29 365 c 5
 27 367 25 391 29 393 c 5xd8
 93 399 159 421 198 441 c 5
 204 441 212 429 212 424 c 5
 210 416 204 374 204 370 c 4
 204 368 204 364 206 364 c 5
 208 364 209 366 211 368 c 4
 235 395 301 442 348 442 c 4xb8
EndSplineSet
EndChar

StartChar: o
Encoding: 111 111 79
Width: 517
Flags: HW
HStem: -7 38<216.916 320.15> 406 37<194.463 294.506>
VStem: 34 114<117.442 314.007> 367 114<122.712 319.367>
LayerCount: 2
Fore
SplineSet
246 406 m 1
 167 406 148 315 148 235 c 1
 148 143 186 31 268 31 c 1
 347 31 367 122 367 200 c 1
 367 293 327 406 246 406 c 1
256 443 m 0
 391 443 481 349 481 223 c 0
 481 95 384 -7 258 -7 c 0
 122 -7 34 89 34 215 c 0
 34 343 130 443 256 443 c 0
EndSplineSet
EndChar

StartChar: p
Encoding: 112 112 80
Width: 527
Flags: HW
HStem: -222 33<10.3164 76.1289 193.067 258.879> -8 40<209.239 317.998> 365 28<9.94948 71.8271> 377 66<242.788 321.798>
VStem: 83 104<-181.514 1.9967 51.8489 356.638> 379 114<136.556 308.522>
LayerCount: 2
Fore
SplineSet
305 443 m 0xdc
 427 443 493 331 493 233 c 0
 493 92 365 -8 254 -8 c 0
 227 -8 200 0 190 2 c 1
 188 2 187 -2 187 -12 c 2
 187 -88 l 2
 187 -124 187 -154 193 -172 c 0
 197 -184 244 -189 256 -189 c 1
 260 -195 260 -216 256 -222 c 1
 216 -219 174 -216 134 -216 c 0
 93 -216 53 -219 13 -222 c 1
 8 -216 8 -195 13 -189 c 1
 25 -189 72 -184 76 -172 c 0
 82 -154 83 -124 83 -88 c 2
 83 279 l 2
 83 291 82 332 76 346 c 0
 68 362 19 365 12 365 c 1
 9 367 7 391 12 393 c 1xec
 75 399 142 421 181 441 c 1
 187 440 195 428 195 424 c 1
 193 418 187 401 187 389 c 0
 187 385 188 383 190 384 c 0
 206 400 269 443 305 443 c 0xdc
256 377 m 0xdc
 217 377 187 354 187 344 c 2
 187 98 l 2
 187 52 232 32 267 32 c 0
 325 32 379 99 379 197 c 0
 379 308 334 377 256 377 c 0xdc
EndSplineSet
EndChar

StartChar: q
Encoding: 113 113 81
Width: 511
Flags: HW
HStem: -222 33<266.969 332.781 449.719 515.531> -8 62<208.221 290.379> 398 44<198.433 316.821>
VStem: 32 113<127.943 291.025> 340 104<-182.014 40.2 66.3024 375.771>
LayerCount: 2
Fore
SplineSet
256 398 m 0
 174 398 145 305 145 239 c 0
 145 139 190 54 270 54 c 0
 308 54 340 76 340 86 c 2
 340 338 l 2
 340 364 304 398 256 398 c 0
290 442 m 0
 324 442 376 418 408 418 c 0
 422 418 430 421 436 423 c 1
 442 422 455 406 455 400 c 1
 448 384 444 350 444 306 c 2
 444 -88 l 2
 444 -124 444 -154 450 -172 c 0
 454 -184 501 -189 513 -189 c 1
 517 -195 517 -216 513 -222 c 1
 473 -219 431 -216 391 -216 c 0
 351 -216 310 -219 270 -222 c 1
 266 -216 266 -195 270 -189 c 1
 282 -189 329 -184 333 -172 c 0
 339 -154 340 -124 340 -88 c 2
 340 28 l 2
 340 34 339 44 333 40 c 0
 318 28 259 -8 214 -8 c 0
 106 -8 32 98 32 196 c 0
 32 343 173 442 290 442 c 0
EndSplineSet
EndChar

StartChar: r
Encoding: 114 114 82
Width: 410
Flags: HW
HStem: -4 33<27.3165 93.1289 210.079 292.186> 354 88<273.43 343.251> 365 28<26.9495 88.8272>
VStem: 100 104<38.0769 321.238 338.424 356.638>
LayerCount: 2
Fore
SplineSet
330 442 m 1xd0
 356 442 381 433 392 419 c 1
 395 413 400 397 400 381 c 0
 400 345 375 316 353 316 c 1
 337 316 325 330 313 338 c 0
 303 346 295 354 277 354 c 1xd0
 235 354 204 290 204 268 c 2
 204 130 l 2
 204 96 204 64 210 46 c 0
 214 34 278 29 290 29 c 1
 294 23 294 2 290 -4 c 1
 250 -1 194 2 154 2 c 0
 113 2 70 -1 30 -4 c 1
 26 2 26 23 30 29 c 1
 42 29 89 34 93 46 c 0
 100 64 100 94 100 130 c 2
 100 279 l 2
 100 291 100 332 93 346 c 0
 85 362 36 365 29 365 c 1
 27 367 25 391 29 393 c 1xb0
 93 399 159 421 198 441 c 1
 204 440 212 428 212 424 c 1
 210 416 204 353 204 341 c 0
 204 337 208 336 209 338 c 0
 231 381 276 442 330 442 c 1xd0
EndSplineSet
EndChar

StartChar: s
Encoding: 115 115 83
Width: 382
Flags: HW
HStem: -10 36<124.711 224.788> 407 36<154.193 251.506>
VStem: 40 32<85.9755 133.987> 40 98<300.9 379.425> 244 100<56.1218 138.43> 298 32<304.094 351.049>
LayerCount: 2
Fore
SplineSet
206 443 m 0xd8
 249 443 275 432 313 426 c 1
 321 394 330 336 330 310 c 0
 330 306 322 304 316 304 c 0
 310 304 304 306 298 310 c 1
 288 351 258 407 202 407 c 0
 162 407 138 384 138 348 c 0xd4
 138 296 189 281 233 257 c 0
 281 231 344 202 344 128 c 0
 344 38 261 -10 169 -10 c 0
 124 -10 86 3 52 10 c 1
 46 32 40 110 40 128 c 1
 42 132 51 134 56 134 c 0
 61 134 69 132 72 128 c 1xe8
 85 64 134 26 180 26 c 0
 218 26 244 53 244 90 c 0
 244 146 184 162 132 192 c 0
 83 220 40 252 40 312 c 0
 40 399 130 443 206 443 c 0xd8
EndSplineSet
EndChar

StartChar: t
Encoding: 116 116 84
Width: 322
Flags: HW
HStem: -7 59<168.004 262.272> 386 44<18.1292 79.5 183 307.393>
VStem: 80 104<64.7735 386 430 509.011>
LayerCount: 2
Fore
SplineSet
184 430 m 1
 188 430 288 430 304 430 c 1
 308 430 310 424 310 418 c 0
 310 409 302 394 292 386 c 1
 277 386 200 386 184 386 c 1
 184 131 l 2
 184 78 203 52 243 52 c 0
 270 52 297 72 302 76 c 1
 304 74 307 69 307 65 c 0
 307 59 303 50 301 48 c 0
 289 35 246 -7 196 -7 c 0
 140 -7 80 21 80 120 c 2
 80 386 l 1
 66 386 28 386 15 386 c 1
 11 387 10 393 10 397 c 1
 15 406 33 424 39 430 c 1
 53 430 70 430 80 430 c 1
 80 436 80 474 80 488 c 1
 108 515 146 557 162 574 c 1
 170 580 184 580 184 575 c 1
 184 548 184 456 184 430 c 1
EndSplineSet
EndChar

StartChar: u
Encoding: 117 117 85
Width: 535
Flags: HW
HStem: -6 58<155.32 295.977> 24 30<463.547 516.306> 376 28<9.51784 65.4437 280.019 335.944> 421 20G<159.57 181.07 430.07 451.57>
VStem: 80 104<87.9368 366.706> 350 104<70.7971 366.706>
LayerCount: 2
Fore
SplineSet
350 288 m 6xbc
 350 300 350 341 342 356 c 4
 333 372 292 376 282 376 c 5
 279 378 279 402 283 404 c 5
 347 408 412 426 449 441 c 5
 455 440 463 426 463 422 c 5
 459 414 454 384 454 362 c 5
 454 351 454 310 454 307 c 5
 454 124 l 6
 454 111 454 87 462 68 c 4
 469 54 508 54 514 54 c 5
 516 52 517 47 517 42 c 4
 517 38 514 27 510 24 c 5x7c
 454 20 366 -8 359 -8 c 4
 355 -8 350 1 350 12 c 6
 350 44 l 6
 350 48 350 49 348 48 c 5
 326 28 266 -6 206 -6 c 5
 104 -6 80 94 80 183 c 6
 80 288 l 6
 80 300 79 341 71 356 c 4
 62 372 22 376 12 376 c 5
 9 378 8 402 12 404 c 5
 76 408 141 426 178 441 c 5
 184 440 192 426 192 422 c 5
 188 414 184 384 184 362 c 5
 184 351 184 311 184 308 c 5
 184 212 l 6
 184 106 206 52 272 52 c 4
 308 52 350 78 350 98 c 6
 350 288 l 6xbc
EndSplineSet
EndChar

StartChar: v
Encoding: 118 118 86
Width: 496
Flags: HW
HStem: 404 33<-4.10498 47.2707 174.479 229.71 305.632 366.729 441.376 500.981>
LayerCount: 2
Fore
SplineSet
116 430 m 0
 156 430 197 435 229 437 c 1
 233 431 232 407 227 404 c 1
 217 404 173 398 173 382 c 0
 173 380 172 376 174 372 c 0
 192 337 281 138 281 138 c 1
 281 138 329 256 365 340 c 0
 370 351 373 365 373 374 c 0
 373 396 330 404 309 404 c 1
 304 406 304 431 308 437 c 1
 338 434 361 430 401 430 c 0
 441 430 472 435 500 437 c 1
 504 431 502 408 498 404 c 1
 488 404 439 398 426 370 c 1
 396 300 303 97 274 26 c 1
 262 2 248 -11 239 -11 c 0
 235 -11 230 -7 228 -5 c 1
 166 132 118 248 57 374 c 1
 45 400 8 404 -2 404 c 1
 -6 410 -6 429 -2 437 c 1
 32 435 76 430 116 430 c 0
EndSplineSet
EndChar

StartChar: w
Encoding: 119 119 87
Width: 748
Flags: HW
HStem: 404 33<-4.09082 45.8606 176.061 229.67 276.354 322.372 457.51 509.049 559.693 622.537 695.363 752.924>
VStem: 350 102<314.086 382.685>
LayerCount: 2
Fore
SplineSet
112 430 m 0
 152 430 196 435 228 437 c 1
 232 431 231 408 227 404 c 1
 217 404 173 397 173 378 c 0
 173 376 173 371 176 364 c 0
 200 313 248 210 276 144 c 1
 302 208 350 319 350 331 c 0
 350 340 341 363 333 375 c 0
 320 397 290 404 280 404 c 1
 274 410 275 431 279 437 c 1
 319 433 352 430 392 430 c 1
 432 430 475 435 507 437 c 1
 511 431 511 409 507 404 c 1
 485 404 452 394 452 374 c 0
 452 371 452 366 454 361 c 0
 474 312 514 221 542 150 c 1
 562 199 597 285 620 343 c 0
 624 354 628 366 628 374 c 0
 628 401 579 403 563 404 c 1
 559 408 558 431 562 437 c 1
 598 434 618 430 658 430 c 0
 698 430 724 435 752 437 c 1
 754 433 756 410 750 404 c 1
 740 404 694 400 682 370 c 0
 626 236 594 159 536 25 c 0
 526 1 509 -11 501 -11 c 0
 497 -11 491 -7 489 -5 c 1
 489 -5 394 240 378 279 c 1
 362 240 274 26 274 26 c 2
 265 5 247 -11 237 -11 c 0
 233 -11 228 -7 226 -5 c 1
 160 147 124 231 57 374 c 1
 45 400 8 404 -2 404 c 1
 -6 411 -6 431 -2 437 c 1
 32 435 72 430 112 430 c 0
EndSplineSet
EndChar

StartChar: x
Encoding: 120 120 88
Width: 511
Flags: HW
HStem: -4 33<5.44726 69.611 156.81 219.303 268.192 314.912 453.159 507.823> 404 33<15.5951 73.7631 205.24 251.392 285.495 349.324 423.622 492.183>
LayerCount: 2
Fore
SplineSet
136 430 m 1
 178 430 226 435 250 437 c 1
 253 433 254 410 249 404 c 1
 235 404 205 400 205 384 c 0
 205 381 208 376 212 371 c 2
 277 278 l 1
 305 314 351 366 351 380 c 0
 351 402 295 404 288 404 c 1
 284 407 283 431 287 437 c 1
 323 434 350 430 390 430 c 0
 429 430 476 435 491 437 c 1
 493 432 494 408 490 404 c 1
 471 404 430 399 410 376 c 0
 374 332 332 277 303 243 c 1
 335 201 407 98 434 64 c 1
 454 36 488 29 506 29 c 1
 510 25 510 1 506 -4 c 1
 468 0 427 2 389 2 c 1
 347 2 304 -2 270 -4 c 1
 266 2 267 26 271 29 c 1
 284 29 316 36 316 50 c 0
 316 52 312 56 310 60 c 2
 310 60 249 146 235 166 c 1
 214 140 183 104 161 71 c 0
 156 64 154 58 154 54 c 0
 154 32 201 30 217 29 c 1
 221 27 221 2 217 -4 c 1
 183 -1 156 2 117 2 c 0
 77 2 34 -2 7 -4 c 1
 4 2 4 23 8 29 c 1
 33 31 73 39 97 66 c 1
 122 90 182 173 209 202 c 1
 179 242 113 342 86 376 c 1
 70 397 32 404 18 404 c 1
 14 408 14 431 18 437 c 1
 54 433 97 430 136 430 c 1
EndSplineSet
EndChar

StartChar: y
Encoding: 121 121 89
Width: 496
Flags: HW
HStem: -223 86<29.032 132.742> 404 33<-3.01751 48.1159 175.324 230.555 304.477 365.574 440.221 499.826>
LayerCount: 2
Fore
SplineSet
116 430 m 0
 156 430 208 435 229 437 c 1
 233 431 232 407 227 404 c 1
 217 404 173 398 173 382 c 0
 173 380 173 376 175 372 c 0
 193 337 279 138 279 138 c 1
 279 138 327 256 363 340 c 0
 368 351 372 365 372 374 c 0
 372 396 328 404 307 404 c 1
 302 406 303 431 307 437 c 1
 329 434 364 430 404 430 c 0
 444 430 480 435 498 437 c 1
 502 431 501 408 497 404 c 1
 487 404 438 398 425 370 c 1
 395 300 328 153 268 16 c 0
 240 -47 218 -101 182 -152 c 0
 148 -197 108 -223 78 -223 c 0
 47 -223 21 -207 21 -175 c 1
 21 -157 30 -145 39 -137 c 1
 102 -137 142 -122 178 -70 c 0
 196 -45 211 -4 219 16 c 1
 171 129 88 310 58 374 c 1
 46 400 9 404 -1 404 c 1
 -5 408 -4 433 -1 437 c 1
 22 435 76 430 116 430 c 0
EndSplineSet
EndChar

StartChar: z
Encoding: 122 122 90
Width: 448
Flags: HW
HStem: 0 40<153.5 338.684> 390 40<103.437 271.5> 418 19G<52.5 146 384 407>
VStem: 388 36<109.321 141.128>
LayerCount: 2
Fore
SplineSet
146 430 m 2xd0
 279 430 l 2
 333 430 363 433 404 438 c 1
 409 430 408 419 408 414 c 1
 408 414 154 42 154 40 c 1
 156 40 280 40 280 40 c 2
 341 40 378 96 388 136 c 0
 389 141 394 142 398 142 c 0
 408 142 421 136 424 132 c 1
 418 112 389 23 381 0 c 1
 352 0 107 0 41 0 c 1
 37 1 28 10 28 18 c 0
 28 21 29 28 31 30 c 2
 272 388 l 1
 272 388 166 390 150 390 c 1xd0
 96 390 81 334 71 308 c 0
 69 304 58 300 48 300 c 0
 42 300 37 301 37 303 c 1
 41 319 51 384 54 437 c 1xb0
 54 437 110 430 146 430 c 2xd0
EndSplineSet
EndChar

StartChar: braceleft
Encoding: 123 123 91
Width: 256
Flags: HW
HStem: -144 22<207.659 220.315> 718 22<207.659 220.315>
VStem: 66 79<-39.2715 84.8435 511.443 635.271> 103 80<110.371 236.634 359.366 487.159>
LayerCount: 2
Fore
SplineSet
103 404 m 0xd0
 103 432 92 455 83 481 c 0
 74 503 66 526 66 554 c 0
 66 654 166 730 212 740 c 1
 218 740 227 726 224 718 c 1
 196 704 145 657 145 599 c 0xe0
 145 560 155 540 165 516 c 0
 174 495 183 471 183 432 c 0
 183 356 116 303 85 298 c 1
 116 293 183 240 183 164 c 0xd0
 183 125 174 101 165 80 c 0
 155 56 145 36 145 -3 c 0
 145 -61 196 -108 224 -122 c 1
 227 -130 218 -144 212 -144 c 1
 166 -134 66 -58 66 42 c 0xe0
 66 73 76 98 85 122 c 0
 94 145 103 166 103 192 c 0
 103 245 61 275 21 287 c 1
 19 289 18 294 18 298 c 0
 18 302 19 307 21 309 c 1
 61 321 103 351 103 404 c 0xd0
EndSplineSet
EndChar

StartChar: bar
Encoding: 124 124 92
Width: 202
Flags: HW
VStem: 73 52<-117.716 764.903>
LayerCount: 2
Fore
SplineSet
125 -107 m 2
 125 -115 80 -123 78 -123 c 0
 71 -123 73 -119 73 -115 c 2
 73 757 l 1
 73 757 72 763 78 765 c 0
 95 770 113 771 116 771 c 0
 125 771 124 765 124 765 c 1
 125 -107 l 2
EndSplineSet
EndChar

StartChar: braceright
Encoding: 125 125 93
Width: 256
Flags: HW
HStem: -144 22<34.2505 46.9069> 718 22<34.2505 46.9069>
VStem: 71 81<110.749 236.634 359.366 486.479> 109 79<-39.2715 84.6009 512.324 635.271>
LayerCount: 2
Fore
SplineSet
42 740 m 1xd0
 88 730 188 654 188 554 c 0xd0
 188 525 180 501 171 478 c 0
 162 454 152 431 152 404 c 0
 152 351 194 321 234 309 c 1
 236 307 236 302 236 298 c 0
 236 294 236 289 234 287 c 1
 194 275 152 245 152 192 c 0xe0
 152 166 161 144 170 121 c 0
 179 97 188 72 188 42 c 0
 188 -58 88 -134 42 -144 c 1
 36 -144 28 -130 31 -122 c 1
 58 -108 109 -61 109 -3 c 0xd0
 109 35 100 56 90 79 c 0
 81 100 71 124 71 164 c 0
 71 240 139 293 170 298 c 1
 139 303 71 356 71 432 c 0xe0
 71 476 81 499 91 522 c 0
 100 544 109 564 109 599 c 0
 109 657 58 704 31 718 c 1
 28 726 36 740 42 740 c 1xd0
EndSplineSet
EndChar

StartChar: asciitilde
Encoding: 126 126 94
Width: 555
Flags: HW
HStem: 244 56<314.671 457.372> 304 56<102.426 243.507>
LayerCount: 2
Fore
SplineSet
262 275 m 0
 227 289 189 304 144 304 c 0
 105 304 74 278 56 259 c 1
 52 261 48 266 48 272 c 1
 48 310 118 360 174 360 c 0
 221 360 260 344 296 330 c 0
 330 316 368 300 414 300 c 0
 453 300 482 326 502 346 c 1
 506 344 510 339 510 333 c 1
 510 297 445 244 385 244 c 0
 337 244 298 261 262 275 c 0
EndSplineSet
EndChar

StartChar: exclamdown
Encoding: 161 161 96
Width: 228
Flags: HW
HStem: 306 130<64.6237 160.697>
VStem: 48 130<323.021 419.145> 56 111<-203.898 74.9258>
LayerCount: 2
Fore
SplineSet
48 372 m 0xc0
 48 407 76 436 112 436 c 1
 148 436 178 406 178 370 c 0
 178 335 148 306 112 306 c 1
 76 306 48 337 48 372 c 0xc0
108 -216 m 0
 77 -216 56 -188 56 -154 c 0
 56 -126 77 60 94 229 c 1
 98 239 102 246 112 248 c 1
 117 247 126 242 130 234 c 1
 142 120 167 -103 167 -154 c 0xa0
 167 -189 142 -216 108 -216 c 0
EndSplineSet
EndChar

StartChar: cent
Encoding: 162 162 97
Width: 460
Flags: HW
HStem: -8 75<236.187 332.149> 395 48<197.205 315.5>
VStem: 41 102<142.646 291.453> 274 32<432.456 474.522>
LayerCount: 2
Fore
SplineSet
274 476 m 17
 282 476 306 477 306 470 c 1
 222 -42 l 1
 213 -42 192 -40 190 -34 c 9
 274 476 l 17
404 385 m 0
 404 351 382 329 356 329 c 1
 332 329 312 356 296 370 c 0
 277 386 260 395 234 395 c 0
 186 395 143 325 143 242 c 0
 143 114 219 67 296 67 c 0
 352 67 388 98 405 117 c 1
 409 116 415 108 415 101 c 1
 415 95 412 86 410 82 c 0
 392 54 333 -8 247 -8 c 0
 130 -8 41 79 41 197 c 0
 41 331 172 443 293 443 c 0
 338 443 370 434 388 422 c 1
 394 415 404 401 404 385 c 0
EndSplineSet
EndChar

StartChar: sterling
Encoding: 163 163 98
Width: 475
Flags: HW
HStem: -8 84<262.792 362.412> 50 71<110.635 223.877> 306 39<59.9891 376.037> 585 51<235.313 329.627>
VStem: 109 91<348.247 496.25> 136 94<191.114 305.362>
LayerCount: 2
Fore
SplineSet
312 636 m 0x78
 347 636 362 627 384 613 c 1
 388 609 393 593 393 583 c 0
 393 547 372 530 350 530 c 1
 325 530 311 547 298 561 c 0
 284 575 275 585 259 585 c 0
 213 585 200 528 200 459 c 0x78
 200 385 230 334 230 278 c 0
 230 203 176 133 151 110 c 1
 167 118 184 121 201 121 c 0x74
 247 121 271 76 341 76 c 0
 387 76 414 124 422 140 c 1
 424 141 434 134 436 128 c 0
 438 123 438 118 437 112 c 1
 426 80 375 -8 297 -8 c 0xb4
 220 -8 188 50 125 50 c 0
 97 50 75 10 58 -6 c 1
 50 -6 42 7 42 16 c 0
 42 45 78 78 92 94 c 0
 118 122 136 183 136 232 c 0x74
 136 268 109 362 109 392 c 0
 107 528 218 636 312 636 c 0x78
70 345 m 1
 86 345 368 345 379 345 c 1
 393 334 376 310 370 306 c 1
 48 306 l 17
 42 312 61 345 70 345 c 1
EndSplineSet
EndChar

StartChar: currency
Encoding: 164 164 99
Width: 567
Flags: HW
HStem: 120 36<239.512 333.803> 460 36<226.231 319.845>
VStem: 96 83<220.761 396.988> 379 82<217.214 393.651>
LayerCount: 2
Fore
SplineSet
288 156 m 0
 344 156 379 219 379 294 c 0
 379 386 330 460 272 460 c 0
 216 460 179 394 179 319 c 0
 179 227 230 156 288 156 c 0
392 455 m 1
 452 510 l 2
 460 518 485 490 492 466 c 1
 432 410 l 1
 450 380 461 344 461 307 c 0
 461 267 449 230 428 199 c 1
 482 141 l 2
 490 133 462 107 438 100 c 1
 386 155 l 1
 356 133 320 120 280 120 c 0
 237 120 197 135 166 160 c 1
 114 110 l 2
 106 102 79 130 72 154 c 1
 126 205 l 1
 107 235 96 270 96 307 c 0
 96 351 110 391 134 423 c 1
 82 479 l 2
 74 487 102 513 126 520 c 1
 178 465 l 1
 207 485 242 496 280 496 c 0
 323 496 361 481 392 455 c 1
EndSplineSet
EndChar

StartChar: yen
Encoding: 165 165 100
Width: 683
Flags: HW
HStem: -4 33<204.662 273.472 400.414 469.224> 144 40<192.89 487.19> 224 40<192.89 487.19> 608 33<27.0913 82.0874 242.597 299.921 431.745 501.06 586.558 653.662>
VStem: 280 114<36.9863 306.8>
LayerCount: 2
Fore
SplineSet
202 184 m 1
 218 184 480 184 491 184 c 1
 505 173 487 148 481 144 c 1
 182 144 l 17
 176 150 193 184 202 184 c 1
202 264 m 1
 218 264 480 264 491 264 c 1
 505 253 487 228 481 224 c 1
 182 224 l 17
 176 230 193 264 202 264 c 1
280 130 m 2
 280 254 l 1
 280 258 279 268 275 276 c 0
 236 352 170 469 140 522 c 1
 122 554 112 566 92 584 c 0
 76 602 42 608 30 608 c 1
 25 612 26 635 30 641 c 1
 74 638 119 636 164 636 c 0
 210 636 258 638 298 641 c 1
 301 635 302 612 297 608 c 1
 283 608 237 605 237 579 c 0
 237 573 240 566 246 556 c 2
 375 328 l 1
 402 370 476 508 504 564 c 0
 506 570 508 578 508 584 c 0
 508 596 468 608 434 608 c 1
 430 612 430 637 433 641 c 1
 475 638 499 635 541 635 c 0
 589 635 612 639 652 641 c 1
 655 635 655 612 651 608 c 1
 641 608 589 608 570 576 c 0
 541 528 435 347 400 278 c 0
 395 269 395 259 395 254 c 1
 395 224 394 130 394 130 c 2
 394 94 394 64 400 46 c 0
 404 34 455 29 467 29 c 1
 471 23 471 2 467 -4 c 1
 427 -1 377 2 337 2 c 0
 297 2 247 -1 207 -4 c 1
 203 2 203 23 207 29 c 1
 219 29 270 34 274 46 c 0
 280 64 280 94 280 130 c 2
EndSplineSet
EndChar

StartChar: brokenbar
Encoding: 166 166 101
Width: 201
Flags: HW
VStem: 75 52<-118.239 256.903 389.761 764.903>
LayerCount: 2
Fore
SplineSet
127 400 m 2
 127 392 82 385 80 385 c 0
 73 385 75 389 75 393 c 2
 75 757 l 1
 75 757 74 763 80 765 c 0
 97 770 116 770 119 770 c 0
 128 770 127 764 127 764 c 1
 127 400 l 2
75 -115 m 2
 75 249 l 1
 75 249 74 255 80 257 c 0
 97 262 116 262 119 262 c 0
 128 262 127 256 127 256 c 1
 127 -108 l 2
 127 -116 82 -123 80 -123 c 0
 73 -123 75 -119 75 -115 c 2
EndSplineSet
EndChar

StartChar: section
Encoding: 167 167 102
Width: 452
Flags: HW
HStem: -85 50<133 237.837> 603 50<212.663 317.5>
VStem: 35 62<350.574 461.154> 120 52<461.314 568> 278 52<0 106.686> 353 62<106.76 217.426>
LayerCount: 2
Fore
SplineSet
310 653 m 0
 324 653 342 648 356 642 c 1
 361 632 362 620 362 614 c 0
 362 596 347 576 325 576 c 0
 307 576 296 586 286 592 c 0
 278 598 266 603 251 603 c 0
 220 603 172 587 172 549 c 0
 172 503 251 427 298 384 c 0
 356 330 415 271 415 182 c 0
 415 106 316 -8 278 -34 c 9
 280 -22 276 -14 282 -3 c 24
 290 15 314 35 314 35 c 0
 337 69 353 88 353 132 c 0
 353 215 294 278 240 328 c 0
 192 372 120 426 120 496 c 0
 120 576 198 653 310 653 c 0
140 -85 m 0
 126 -85 107 -80 94 -74 c 1
 90 -66 88 -54 88 -48 c 0
 88 -30 104 -8 126 -8 c 0
 144 -8 156 -19 166 -26 c 0
 174 -32 185 -35 200 -35 c 0
 231 -35 278 -19 278 19 c 0
 278 65 200 141 153 184 c 0
 95 238 35 297 35 386 c 0
 35 462 134 576 172 602 c 9
 170 590 174 582 168 571 c 24
 160 553 137 532 137 532 c 0
 113 498 97 480 97 436 c 0
 97 353 156 290 210 240 c 0
 258 196 330 142 330 72 c 0
 330 -8 252 -85 140 -85 c 0
EndSplineSet
EndChar

StartChar: dieresis
Encoding: 168 168 103
Width: 372
Flags: HW
HStem: 457 116<41.6101 133.89 238.302 330.89>
VStem: 29 118<470.093 560.407> 226 118<470.297 560.203>
LayerCount: 2
Fore
SplineSet
285 573 m 5
 317 573 344 547 344 515 c 5
 344 483 316 457 284 457 c 5
 252 457 226 484 226 516 c 5
 226 548 253 573 285 573 c 5
88 573 m 5
 120 573 147 547 147 515 c 5
 147 483 120 457 88 457 c 5
 56 457 29 484 29 516 c 5
 29 548 56 573 88 573 c 5
EndSplineSet
EndChar

StartChar: copyright
Encoding: 169 169 104
Width: 653
Flags: HW
HStem: 54 38<235.29 414.303> 179 28<296.703 398.958> 439 30<290.449 390.578> 561 38<235.29 414.303>
VStem: 52 39<233.596 415.749> 182 64<248.136 399.53> 420 22<232.188 266.401 383.101 406.62> 560 38<236.751 415.749>
LayerCount: 2
Fore
SplineSet
446 264 m 1
 446 260 433 204 427 202 c 0
 398 191 366 179 326 179 c 0
 243 179 182 236 182 320 c 0
 182 404 248 469 328 469 c 0
 356 469 398 461 427 452 c 1
 427 450 442 394 442 390 c 0
 442 386 432 382 426 382 c 1
 424 382 422 382 420 384 c 1
 416 398 399 439 335 439 c 0
 279 439 246 384 246 328 c 0
 246 256 290 207 342 207 c 0
 370 207 392 215 404 226 c 0
 418 240 424 266 426 268 c 1
 430 268 444 266 446 264 c 1
91 326 m 0
 91 196 195 92 325 92 c 0
 455 92 560 196 560 326 c 0
 560 456 455 561 325 561 c 0
 195 561 91 456 91 326 c 0
52 326 m 0
 52 477 173 599 324 599 c 0
 475 599 598 477 598 326 c 0
 598 175 475 54 324 54 c 0
 173 54 52 175 52 326 c 0
EndSplineSet
EndChar

StartChar: ordfeminine
Encoding: 170 170 105
Width: 361
Flags: HW
HStem: 248 42<127.1 184.548 251 311.923> 526 30<129.918 216.102>
VStem: 42 78<298.451 375.407> 51 68<451.159 502.215> 210 74<297.302 402 431.685 515.49>
LayerCount: 2
Fore
SplineSet
165 290 m 0xe8
 185 290 210 310 210 316 c 2
 210 402 l 1
 194 396 167 389 153 382 c 0
 131 371 120 356 120 336 c 0
 120 308 143 290 165 290 c 0xe8
191 556 m 0
 241 556 284 514 284 457 c 2
 284 323 l 2
 284 305 291 294 303 294 c 0
 314 294 324 302 326 303 c 1
 328 303 331 297 331 294 c 1
 331 290 329 284 327 281 c 1
 318 273 285 250 262 250 c 0
 240 250 219 270 213 288 c 1
 205 282 155 248 130 248 c 0
 80 248 42 288 42 330 c 0xe8
 42 357 62 379 78 385 c 0
 111 397 178 421 206 432 c 1
 210 436 210 437 210 445 c 2
 210 464 l 2
 210 496 191 526 159 526 c 0
 133 526 125 508 119 480 c 0
 115 460 103 449 82 449 c 0
 64 449 51 464 51 480 c 0xd8
 51 486 54 496 58 502 c 1
 73 516 133 556 191 556 c 0
EndSplineSet
EndChar

StartChar: guillemotleft
Encoding: 171 171 106
Width: 492
Flags: HW
LayerCount: 2
Fore
SplineSet
210 247 m 0
 210 255 212 258 216 264 c 1
 347 343 423 421 426 423 c 1
 437 420 447 414 450 408 c 1
 445 394 351 286 309 248 c 1
 351 210 445 102 450 88 c 1
 447 82 437 75 426 72 c 1
 423 74 347 153 216 232 c 1
 213 236 210 241 210 247 c 0
26 247 m 0
 26 255 28 258 32 264 c 1
 163 343 239 421 242 423 c 1
 253 420 263 414 266 408 c 1
 261 394 168 286 126 248 c 1
 168 210 261 102 266 88 c 1
 263 82 253 75 242 72 c 1
 239 74 163 153 32 232 c 1
 29 236 26 241 26 247 c 0
EndSplineSet
EndChar

StartChar: logicalnot
Encoding: 172 172 107
Width: 584
Flags: HW
HStem: 363 57<45.488 448>
VStem: 448 66<161.822 363>
LayerCount: 2
Fore
SplineSet
514 420 m 17
 514 365 514 169 514 169 c 1
 513 168 482 157 461 157 c 0
 456 157 450 161 448 164 c 1
 448 175 448 305 448 363 c 1
 48 363 l 1
 48 363 42 363 42 373 c 1
 42 373 46 420 56 420 c 2
 514 420 l 17
EndSplineSet
EndChar

StartChar: registered
Encoding: 174 174 108
Width: 653
Flags: HW
HStem: 111 38<235.29 414.303> 253 15<199.827 228.758 286.953 315.885 449.254 474.072> 379 19<284.305 306.036> 509 18<200.063 228.758 286.456 335.429> 618 39<235.29 417.466>
VStem: 52 39<291.565 473.71> 231 53<276.172 378.806 397.362 504.546> 357 55<408.503 500.964> 560 38<294.724 473.71>
LayerCount: 2
Fore
SplineSet
321 527 m 0
 365 527 412 501 412 453 c 0
 412 421 378 394 354 386 c 1
 380 348 407 316 421 299 c 0
 442 275 460 270 473 269 c 1
 475 266 473 254 473 253 c 1
 453 253 429 254 417 255 c 0
 399 256 384 264 370 282 c 0
 367 286 318 352 305 373 c 0
 304 375 299 379 295 379 c 0
 293 379 286 379 284 379 c 1
 284 364 284 310 284 310 c 1
 284 295 284 283 287 276 c 0
 289 271 309 268 314 268 c 1
 316 265 316 255 314 253 c 1
 297 254 276 256 259 256 c 0
 242 256 218 254 201 253 c 1
 199 255 199 265 201 268 c 1
 206 268 227 271 229 276 c 0
 232 283 231 295 231 310 c 2
 231 471 l 2
 231 486 232 498 229 505 c 0
 227 510 206 512 201 512 c 1
 199 515 199 525 201 527 c 1
 219 526 243 526 260 526 c 0
 277 526 297 527 321 527 c 0
357 447 m 0
 357 482 344 509 307 509 c 0
 300 509 288 509 286 505 c 0
 284 500 284 489 284 476 c 2
 284 398 l 1
 284 398 298 398 302 398 c 0
 333 398 357 415 357 447 c 0
91 384 m 0
 91 254 195 149 325 149 c 0
 455 149 560 254 560 384 c 0
 560 514 455 618 325 618 c 0
 195 618 91 514 91 384 c 0
52 384 m 0
 52 535 173 657 324 657 c 0
 475 657 598 535 598 384 c 0
 598 233 475 111 324 111 c 0
 173 111 52 233 52 384 c 0
EndSplineSet
EndChar

StartChar: macron
Encoding: 175 175 109
Width: 476
Flags: HW
HStem: 548 48<560.392 781.404>
VStem: 559 228<548.513 596.5>
LayerCount: 2
Fore
SplineSet
559 558 m 0
 559 560 560 596 571 596 c 2
 782 596 l 2
 784 596 787 596 787 590 c 0
 787 585 787 574 782 556 c 0
 780 550 774 548 774 548 c 1
 565 548 l 1
 565 548 559 548 559 558 c 0
EndSplineSet
EndChar

StartChar: degree
Encoding: 176 176 110
Width: 277
Flags: HW
HStem: 431 42<92.0066 182.945> 600 41<92.0066 182.945>
VStem: 32 42<490.171 582.411> 200 42<490.171 582.411>
LayerCount: 2
Fore
SplineSet
74 536 m 0
 74 501 103 473 138 473 c 0
 173 473 200 501 200 536 c 0
 200 571 173 600 138 600 c 0
 103 600 74 571 74 536 c 0
32 536 m 0
 32 594 80 641 138 641 c 0
 196 641 242 594 242 536 c 0
 242 478 196 431 138 431 c 0
 80 431 32 478 32 536 c 0
EndSplineSet
EndChar

StartChar: plusminus
Encoding: 177 177 111
Width: 562
Flags: HW
HStem: 8 57<42.6268 516.021> 306 57<42.6268 249.5 306.5 516.021>
VStem: 250 57<97.0991 305.5 362.5 569.778>
LayerCount: 2
Fore
SplineSet
52 65 m 1
 92 65 486 65 510 65 c 1
 515 65 520 59 520 52 c 0
 520 33 512 17 504 8 c 1
 466 8 45 8 45 8 c 1
 43 8 39 10 39 20 c 0
 39 24 43 55 52 65 c 1
52 363 m 1
 92 363 250 363 250 363 c 1
 250 363 250 552 250 562 c 1
 264 570 286 573 292 573 c 0
 302 573 307 570 307 566 c 1
 307 363 l 1
 347 363 470 363 510 363 c 1
 515 363 520 357 520 350 c 0
 520 331 512 315 504 306 c 1
 466 306 307 306 307 306 c 1
 307 306 307 144 307 106 c 1
 295 98 272 94 262 94 c 0
 256 94 250 99 250 103 c 2
 250 306 l 1
 45 306 l 1
 43 306 39 308 39 318 c 0
 39 322 43 353 52 363 c 1
EndSplineSet
EndChar

StartChar: uni00B2
Encoding: 178 178 112
Width: 350
Flags: HW
HStem: 254 63<118.657 273.238> 596 49<108.324 196.899>
VStem: 212 80<471.743 580.475>
LayerCount: 2
Fore
SplineSet
312 371 m 1
 303 342 283 276 274 254 c 1
 45 254 l 1
 41 256 35 263 35 267 c 1
 79 315 120 356 165 414 c 0
 196 455 212 491 212 528 c 0
 212 569 185 596 147 596 c 0
 103 596 80 560 68 546 c 1
 64 544 52 554 52 562 c 1
 69 594 117 645 175 645 c 0
 245 645 292 605 292 539 c 0
 292 495 263 457 229 421 c 0
 201 391 161 355 119 317 c 1
 128 317 235 317 235 317 c 2
 271 317 282 356 290 372 c 0
 291 374 294 376 298 376 c 0
 302 376 309 374 312 371 c 1
EndSplineSet
EndChar

StartChar: uni00B3
Encoding: 179 179 113
Width: 324
Flags: HW
HStem: 247 28<110.024 185.45> 443 21G<103.465 108.25> 602 42<100.244 179.097>
VStem: 191 68<507.937 590.058> 212 77<312.806 422.253>
LayerCount: 2
Fore
SplineSet
168 644 m 0xf0
 207 644 259 620 259 564 c 0xf0
 259 512 216 489 194 482 c 1
 217 482 289 452 289 382 c 0
 289 294 202 247 120 247 c 0
 89 247 56 255 45 265 c 1
 43 268 34 279 34 290 c 0
 34 308 48 324 66 324 c 0
 83 324 92 308 104 294 c 0
 114 281 130 275 146 275 c 0
 186 275 212 303 212 361 c 0xe8
 212 409 179 448 140 448 c 0
 129 448 112 445 104 443 c 1
 102 446 99 451 99 456 c 0
 99 459 99 465 100 467 c 1
 140 474 191 497 191 547 c 0
 191 577 168 602 136 602 c 0
 101 602 73 572 68 566 c 1
 64 568 55 577 57 583 c 1
 75 609 118 644 168 644 c 0xf0
EndSplineSet
EndChar

StartChar: acute
Encoding: 180 180 114
Width: 362
Flags: HW
HStem: 524 162
VStem: 274 170
LayerCount: 2
Fore
SplineSet
402 686 m 0
 437 686 444 666 444 660 c 0
 444 621 299 524 289 524 c 0
 282 524 274 534 274 540 c 0
 274 546 332 636 368 678 c 0
 373 683 388 686 402 686 c 0
EndSplineSet
EndChar

StartChar: uni00B5
Encoding: 181 181 115
Width: 519
Flags: HW
HStem: -8 98<185.688 272.67 407.362 476.682> 422 20G<106.5 117.5 357 368>
VStem: 86 92<257.926 423.214> 96 52<121.328 328.714> 337 94<276.245 422.485> 337 52<159.317 290.918>
LayerCount: 2
Fore
SplineSet
148 222 m 1xd0
 151 162 168 90 212 90 c 0
 275 90 328 160 340 222 c 1
 338 246 337 291 337 314 c 0
 337 327 337 382 336 420 c 1
 341 428 351 442 363 442 c 0
 373 442 431 416 431 403 c 0xd8
 431 378 418 330 406 264 c 0
 401 244 393 212 389 195 c 1
 389 119 418 85 450 85 c 0
 482 85 502 113 510 126 c 1
 514 126 522 114 524 108 c 0
 526 104 524 95 524 92 c 0
 510 49 477 -4 437 -4 c 0
 389 -3 368 86 362 132 c 1
 337 62 289 -8 226 -8 c 0
 180 -8 146 73 140 119 c 1
 142 94 142 -87 164 -205 c 1
 159 -213 145 -227 130 -227 c 0
 116 -227 74 -195 74 -182 c 0
 74 -164 84 106 96 210 c 1xd4
 96 234 86 316 86 339 c 0
 86 352 88 397 88 420 c 1
 92 430 100 442 112 442 c 0
 122 442 178 416 178 403 c 0xe0
 178 375 172 335 160 277 c 0
 156 255 151 236 148 222 c 1xd0
EndSplineSet
EndChar

StartChar: paragraph
Encoding: 182 182 116
Width: 506
Flags: HW
HStem: -4 32<163.096 224.649 393.448 458.125> 2 39<285.058 332.933> 288 42<281 337> 299 42<383 412.484> 607 41<281.286 337.805> 620 33<388.535 440.725>
VStem: 33 248<384.692 558.334> 236 44<47.7083 287> 338 45<47.2346 292 341.5 606.784>
LayerCount: 2
Fore
SplineSet
338 336 m 1x2980
 338 372 338 589 338 602 c 1
 334 606 319 607 309 607 c 0
 299 607 286 607 280 601 c 1
 280 601 280 432 280 330 c 1
 286 330 334 333 338 336 c 1x2980
337 292 m 1
 323 291 296 289 280 288 c 1
 280 226 280 179 280 117 c 0
 280 84 281 62 285 47 c 0
 286 42 302 41 309 41 c 0x6180
 318 41 332 42 333 46 c 0
 338 62 338 88 338 114 c 2
 338 114 337 258 337 292 c 1
382 299 m 1x1680
 382 228 382 182 382 116 c 0
 382 83 382 66 387 51 c 0
 392 36 446 28 456 28 c 1
 460 23 459 0 457 -4 c 1x9680
 407 -2 374 2 312 2 c 0x4280
 258 2 204 -2 164 -4 c 1
 160 4 162 26 166 28 c 1
 176 28 225 36 231 50 c 0
 237 66 236 90 236 116 c 2
 236 116 236 253 236 287 c 1x8180
 108 287 33 374 33 469 c 0
 33 593 134 652 216 652 c 0
 275 652 259 648 318 648 c 0x8a80
 385 648 438 653 438 653 c 1
 443 648 443 623 438 620 c 1
 423 620 391 612 386 600 c 0
 384 593 383 587 383 536 c 0
 383 475 383 360 383 341 c 1
 388 340 432 354 432 354 c 1
 437 354 439 350 439 346 c 0
 438 336 420 312 413 309 c 0
 402 304 390 300 382 299 c 1x1680
EndSplineSet
EndChar

StartChar: periodcentered
Encoding: 183 183 117
Width: 229
Flags: HW
HStem: 197 133<65.5019 160.827>
VStem: 47 132<214.983 312.923>
LayerCount: 2
Fore
SplineSet
47 264 m 0
 47 300 77 330 113 330 c 1
 149 330 179 300 179 264 c 0
 179 228 150 197 114 197 c 1
 77 197 47 228 47 264 c 0
EndSplineSet
EndChar

StartChar: cedilla
Encoding: 184 184 118
Width: 473
Flags: HW
HStem: -154 26<404.295 483.293> -63 38<449.733 502.75>
VStem: 491 46<-124.576 -64.0449>
LayerCount: 2
Fore
SplineSet
466 -26 m 1
 470 -26 486 -25 490 -25 c 1
 516 -25 537 -48 537 -74 c 0
 537 -121 499 -154 447 -154 c 0
 427 -154 408 -145 402 -139 c 1
 400 -135 396 -125 396 -120 c 0
 396 -116 396 -114 398 -114 c 1
 404 -117 427 -128 448 -128 c 0
 479 -128 491 -112 491 -96 c 0
 491 -77 479 -63 462 -63 c 0
 454 -63 446 -66 436 -70 c 1
 434 -70 424 -61 425 -56 c 1
 434 -41 448 -17 455 -3 c 1
 482 -3 l 1
 482 -3 468 -22 466 -26 c 1
EndSplineSet
EndChar

StartChar: uni00B9
Encoding: 185 185 119
Width: 287
Flags: HW
HStem: 252 26<52.4951 105.702 205.891 255.39>
VStem: 115 80<292.546 561.9>
LayerCount: 2
Fore
SplineSet
115 514 m 2
 115 550 108 564 96 564 c 0
 86 564 62 554 46 548 c 1
 40 550 36 559 36 566 c 0
 36 568 36 573 38 574 c 1
 126 611 188 646 190 646 c 2
 192 646 l 2
 197 646 205 628 206 625 c 1
 204 619 195 581 195 542 c 2
 195 343 l 2
 195 324 197 304 204 292 c 0
 210 284 248 278 254 278 c 1
 256 278 256 254 254 252 c 1
 222 253 188 256 156 256 c 0
 124 256 87 253 55 252 c 1
 51 255 51 278 55 278 c 1
 65 278 102 284 107 292 c 0
 112 302 115 332 115 342 c 2
 115 514 l 2
EndSplineSet
EndChar

StartChar: ordmasculine
Encoding: 186 186 120
Width: 393
Flags: HW
HStem: 249 28<166.455 241.182> 526 27<150.497 225.586>
VStem: 34 86<323.945 476.923> 272 86<326.48 481.749>
LayerCount: 2
Fore
SplineSet
188 526 m 1
 132 526 120 464 120 412 c 1
 120 350 144 277 204 277 c 1
 258 277 272 339 272 390 c 1
 272 452 247 526 188 526 c 1
196 553 m 0
 289 553 358 488 358 404 c 0
 358 320 287 249 196 249 c 0
 103 249 34 316 34 400 c 0
 34 484 104 553 196 553 c 0
EndSplineSet
EndChar

StartChar: guillemotright
Encoding: 187 187 121
Width: 494
Flags: HW
LayerCount: 2
Fore
SplineSet
282 247 m 0
 282 241 279 236 276 232 c 1
 145 153 69 74 66 72 c 1
 55 75 45 82 42 88 c 1
 47 102 141 210 183 248 c 1
 141 286 47 394 42 408 c 1
 45 414 55 420 66 423 c 1
 69 421 145 343 276 264 c 1
 280 258 282 255 282 247 c 0
466 247 m 0
 466 241 463 236 460 232 c 1
 329 153 253 74 250 72 c 1
 239 75 229 82 226 88 c 1
 231 102 324 210 366 248 c 1
 324 286 231 394 226 408 c 1
 229 414 239 420 250 423 c 1
 253 421 329 343 460 264 c 1
 464 258 466 255 466 247 c 0
EndSplineSet
EndChar

StartChar: onequarter
Encoding: 188 188 122
Width: 719
Flags: HW
HStem: 99 46<459.5 567.5 642 674.714> 252 24<50.015 98.3691 195.228 243.664> 620 20G<158.75 182.25>
VStem: 110 74<290.461 556.487> 568 73<-2.49947 99 144.5 283.5>
LayerCount: 2
Fore
SplineSet
626 396 m 0
 631 396 641 389 641 381 c 9
 641 333 641 188 641 142 c 1
 645 142 665 142 670 142 c 1
 681 132 685 115 678 99 c 1
 666 99 645 99 642 99 c 9
 642 1 l 1
 641 0 625 -3 604 -3 c 0
 586 -3 570 0 568 4 c 1
 568 99 l 1
 566 99 408 99 408 99 c 1
 403 101 398 106 398 116 c 1
 436 161 578 346 610 386 c 1
 614 391 620 396 626 396 c 0
568 145 m 1
 568 167 568 280 568 284 c 1
 536 244 488 181 460 145 c 1
 461 145 548 145 568 145 c 1
184 535 m 2
 184 341 l 2
 184 322 188 300 194 289 c 0
 199 281 236 276 242 276 c 1
 246 274 243 254 242 252 c 1
 210 253 182 255 150 255 c 0
 118 255 84 253 52 252 c 1
 48 255 48 274 52 276 c 1
 62 276 97 282 102 290 c 0
 107 300 110 330 110 340 c 2
 110 516 l 2
 110 539 103 556 92 556 c 0
 82 556 62 547 46 541 c 1
 40 543 34 560 34 564 c 1
 79 585 136 615 180 640 c 1
 184 639 195 627 195 622 c 1
 193 616 184 574 184 535 c 2
204 -23 m 0
 191 -23 189 -14 189 -14 c 1
 537 650 l 1
 541 656 553 664 570 664 c 0
 577 664 582 660 583 656 c 1
 238 -4 l 2
 235 -10 221 -23 204 -23 c 0
EndSplineSet
EndChar

StartChar: onehalf
Encoding: 189 189 123
Width: 750
Flags: HW
HStem: -2 63<522 676.582> 252 24<51.015 99.3691 196.228 244.664> 340 49<511.667 600.243> 620 20G<159.75 184.75>
VStem: 112 74<290.461 556.487> 616 80<216.696 324.975>
LayerCount: 2
Fore
SplineSet
578 389 m 0
 648 389 696 350 696 284 c 0
 696 240 666 202 632 166 c 0
 604 136 564 99 522 61 c 1
 531 61 638 61 638 61 c 2
 674 61 685 100 693 116 c 0
 694 118 697 120 701 120 c 0
 705 120 712 119 715 116 c 1
 706 87 687 20 678 -2 c 1
 448 -2 l 1
 444 0 438 8 438 12 c 1
 481 59 520 96 564 152 c 0
 598 195 616 233 616 272 c 0
 616 313 588 340 550 340 c 0
 506 340 484 305 472 291 c 1
 468 289 455 298 455 306 c 1
 472 338 520 389 578 389 c 0
186 535 m 2
 186 341 l 2
 186 322 188 300 194 289 c 0
 199 281 237 276 243 276 c 1
 247 274 245 254 244 252 c 1
 212 253 182 255 150 255 c 0
 118 255 86 253 54 252 c 1
 50 255 50 274 54 276 c 1
 64 276 97 282 102 290 c 0
 107 300 112 330 112 340 c 2
 112 516 l 2
 112 539 105 556 94 556 c 0
 84 556 63 547 47 541 c 1
 41 543 36 558 36 564 c 1
 81 585 138 615 182 640 c 1
 188 636 196 627 196 622 c 1
 194 616 186 574 186 535 c 2
572 656 m 1
 227 -4 l 2
 224 -10 210 -23 193 -23 c 0
 180 -23 178 -14 178 -14 c 1
 526 650 l 1
 530 656 542 664 559 664 c 0
 566 664 571 660 572 656 c 1
EndSplineSet
EndChar

StartChar: threequarters
Encoding: 190 190 124
Width: 718
Flags: HW
HStem: 99 46<459.5 567.5 642 674.714> 247 28<109.024 184.45> 443 21G<102.424 107.25> 602 42<99.2441 178.097>
VStem: 190 68<507.937 590.058> 212 77<312.806 422.253> 568 73<-2.49947 99 144.5 283.5>
LayerCount: 2
Fore
SplineSet
626 396 m 0xf2
 631 396 641 389 641 381 c 9
 641 333 641 188 641 142 c 1
 645 142 665 142 670 142 c 1
 681 132 685 115 678 99 c 1
 666 99 645 99 642 99 c 9
 642 1 l 1
 641 0 625 -3 604 -3 c 0
 586 -3 570 0 568 4 c 1
 568 99 l 1
 566 99 408 99 408 99 c 1
 403 101 398 106 398 116 c 1
 436 161 578 346 610 386 c 1
 614 391 620 396 626 396 c 0xf2
568 145 m 1
 568 167 568 280 568 284 c 1
 536 244 488 181 460 145 c 1
 461 145 548 145 568 145 c 1
166 644 m 0
 205 644 258 620 258 564 c 0xfa
 258 512 214 489 192 482 c 1
 215 482 289 452 289 382 c 0
 289 294 201 247 119 247 c 0
 88 247 55 255 44 265 c 1
 42 268 34 279 34 290 c 0
 34 308 47 324 65 324 c 0
 82 324 91 308 103 294 c 0
 113 281 129 275 145 275 c 0
 185 275 212 303 212 361 c 0xf6
 212 409 179 448 140 448 c 0
 129 448 112 445 104 443 c 1
 102 446 98 451 98 456 c 0
 98 459 98 465 99 467 c 1
 139 474 190 497 190 547 c 0xfa
 190 577 166 602 134 602 c 0
 99 602 73 572 68 566 c 1
 64 568 54 577 56 583 c 1
 74 609 116 644 166 644 c 0
591 656 m 1
 246 -4 l 2
 243 -10 228 -23 211 -23 c 0
 198 -23 197 -14 197 -14 c 1
 544 650 l 1
 548 656 561 664 578 664 c 0
 585 664 590 660 591 656 c 1
EndSplineSet
EndChar

StartChar: questiondown
Encoding: 191 191 125
Width: 366
Flags: HW
HStem: -218 70<152.054 254> 307 130<195.624 289.321>
VStem: 35 68<-116.663 2.32237> 179 128<323.171 418.918> 234 34<177.619 248.186>
LayerCount: 2
Fore
SplineSet
307 370 m 0xf0
 307 334 278 307 244 307 c 0
 208 307 179 334 179 370 c 0
 179 406 207 437 242 437 c 0
 276 437 307 408 307 370 c 0xf0
268 237 m 1xe8
 274 219 282 176 282 142 c 0
 282 76 235 46 199 22 c 0
 149 -10 103 -43 103 -84 c 0
 103 -120 129 -148 166 -148 c 0
 210 -148 230 -107 264 -107 c 0
 290 -107 318 -132 318 -165 c 0
 318 -181 312 -200 306 -206 c 1
 294 -212 271 -218 236 -218 c 0
 180 -218 35 -166 35 -38 c 0
 35 40 84 78 148 116 c 0
 175 132 216 159 228 177 c 0
 236 190 234 217 234 233 c 1
 237 240 243 248 250 248 c 1
 256 247 264 242 268 237 c 1xe8
EndSplineSet
EndChar

StartChar: AE
Encoding: 198 198 132
Width: 893
Flags: HW
HStem: -0 40<537.024 756.071> 240 46<260.067 391.283> 311 42<529.568 692.007> 620 44<583.44 746.162> 620 36<532.741 675.594>
VStem: 416 113<57.5646 180 286 308.713 353.951 541> 725 32<378.533 431.41> 791 36<517.117 564.804>
LayerCount: 2
Fore
SplineSet
416 286 m 1xe7
 416 541 l 1
 406 525 260 290 260 290 c 1
 260 290 259 286 261 286 c 0
 284 284 315 284 338 284 c 0
 368 284 393 284 416 286 c 1xe7
474 656 m 0xef
 542 656 713 664 797 664 c 1
 804 614 818 567 827 522 c 1
 824 519 813 517 806 517 c 0
 799 517 793 519 791 524 c 0
 769 592 736 620 679 620 c 2
 594 620 l 1xf7
 576 620 539 619 535 609 c 0
 530 595 529 571 529 543 c 2
 529 362 l 2
 529 356 551 353 573 353 c 2
 626 353 l 2
 704 353 709 362 725 424 c 0
 726 429 731 432 738 432 c 0
 745 432 754 429 757 426 c 1
 757 236 l 1
 755 234 746 232 739 232 c 0
 732 232 726 235 724 240 c 0
 710 292 702 299 693 304 c 0
 681 310 640 311 602 311 c 0
 574 311 529 310 529 300 c 2
 529 128 l 2
 529 118 530 66 537 54 c 0
 547 42 571 40 605 40 c 2
 662 40 l 2
 700 40 745 49 771 68 c 0
 791 84 814 117 830 166 c 0
 831 170 837 172 844 172 c 0
 854 172 868 169 871 166 c 1
 852 112 824 41 817 -3 c 1
 741 -3 468 0 403 -0 c 1
 367 3 342 12 344 16 c 1
 348 19 372 32 376 38 c 1
 386 48 411 69 413 97 c 1
 416 109 417 172 417 180 c 1
 401 180 387 240 377 240 c 1
 347 240 314 240 284 240 c 0
 262 240 254 237 230 235 c 1
 229 235 208 204 200 190 c 1
 192 178 161 126 145 98 c 0
 133 70 153 48 157 42 c 1
 159 26 188 13 190 11 c 1
 174 11 158 3 135 0 c 1
 92 1 72 1 32 -1 c 1
 7 1 1 10 -19 14 c 1
 -15 16 12 33 20 45 c 1
 37 59 57 72 73 90 c 1
 85 98 247 354 257 370 c 1
 395 596 l 1
 393 606 373 610 367 614 c 1
 365 626 348 641 344 644 c 1
 364 646 420 656 474 656 c 0xef
EndSplineSet
EndChar

StartChar: Eth
Encoding: 208 208 142
Width: 732
Flags: HW
HStem: -3 38<37.7193 107.156 232.858 405.886> 310 38<36.9619 373.453> 622 37<37.9072 107.385 228.684 388.799>
VStem: 112 114<54.638 618.712> 557 129<205.439 454.097>
LayerCount: 2
Fore
SplineSet
372 310 m 1
 343 310 53 310 39 310 c 1
 35 310 34 339 40 348 c 1
 69 348 358 348 372 348 c 1
 376 348 376 319 372 310 c 1
EndSplineSet
Refer: 36 68 N 1 0 0 1 -0 0 2
EndChar

StartChar: multiply
Encoding: 215 215 149
Width: 462
Flags: HW
LayerCount: 2
Fore
SplineSet
195 248 m 1
 193 250 52 390 52 390 c 1
 52 404 69 430 78 430 c 0
 81 430 83 430 85 428 c 2
 85 428 231 287 233 285 c 9
 377 428 l 2
 378 429 380 430 383 430 c 0
 392 430 407 398 407 388 c 1
 407 388 271 253 268 250 c 1
 269 249 407 106 407 106 c 1
 407 91 394 64 383 64 c 0
 381 64 378 64 376 66 c 2
 376 66 231 211 230 212 c 1
 228 210 82 65 82 65 c 2
 80 63 78 63 76 63 c 0
 67 63 52 96 52 106 c 1
 52 106 191 244 195 248 c 1
EndSplineSet
EndChar

StartChar: Oslash
Encoding: 216 216 150
Width: 750
Flags: HW
HStem: -10 40<313.089 469.072> 627 40<277.697 433.535>
VStem: 42 130<210.992 445.566> 577 130<210.892 445.669>
LayerCount: 2
Fore
SplineSet
554 672 m 21
 562 670 590 656 587 650 c 13
 190 -16 l 21
 182 -13 153 1 156 7 c 13
 554 672 l 21
EndSplineSet
Refer: 47 79 N 1 0 0 1 0 0 2
EndChar

StartChar: Thorn
Encoding: 222 222 156
Width: 553
Flags: HW
HStem: -4 33<36.3545 105.165 232.107 300.917> 135 44<265.604 361.925> 477 38<230.223 341.922> 629 33<36.3545 105.165 232.107 300.917>
VStem: 112 114<36.9863 473.587 509 621.514> 411 117<241.929 407.785>
LayerCount: 2
Fore
SplineSet
169 656 m 0
 209 656 258 659 298 662 c 1
 302 656 302 635 298 629 c 1
 286 629 236 624 232 612 c 0
 226 596 225 571 225 541 c 1
 225 538 226 513 226 509 c 1
 249 514 283 515 307 515 c 0
 425 515 528 442 528 334 c 0
 528 222 440 135 324 135 c 0
 294 135 275 146 267 152 c 0
 264 155 255 168 255 175 c 0
 255 179 257 182 259 182 c 1
 269 179 283 179 298 179 c 0
 362 179 411 233 411 316 c 0
 411 402 364 477 277 477 c 0
 259 477 234 474 230 464 c 0
 225 452 226 411 226 396 c 1
 226 130 l 2
 226 94 226 64 232 46 c 0
 236 34 286 29 298 29 c 1
 302 23 302 2 298 -4 c 1
 258 -1 208 2 168 2 c 0
 128 2 79 -1 39 -4 c 1
 35 2 35 23 39 29 c 1
 51 29 101 34 105 46 c 0
 111 64 112 94 112 130 c 2
 112 528 l 2
 112 564 111 594 105 612 c 0
 101 624 51 629 39 629 c 1
 35 635 35 656 39 662 c 1
 79 659 129 656 169 656 c 0
EndSplineSet
EndChar

StartChar: germandbls
Encoding: 223 223 157
Width: 558
Flags: HW
HStem: -10 38<21.977 84.8528 202.599 257.795 373.838 442.022> 386 44<37.0148 92.3857> 656 40<238.113 336.84>
VStem: 92 104<36.9863 386 430 540.572> 266 80<303.039 385.347> 373 97<493.987 619.344> 454 80<65.5761 147.793>
LayerCount: 2
Fore
SplineSet
295 696 m 0xfc
 385 696 470 649 470 562 c 0xfc
 470 513 442 482 415 458 c 0
 385 431 346 406 346 380 c 0
 346 341 406 303 444 276 c 0
 486 246 534 210 534 145 c 0
 534 55 459 -10 383 -10 c 0
 335 -10 291 8 278 25 c 1
 276 32 274 41 274 50 c 0
 275 79 288 106 315 106 c 0
 342 106 353 79 364 60 c 0
 374 43 386 28 407 28 c 0
 437 28 454 52 454 92 c 0xfa
 454 139 412 170 370 202 c 0
 323 237 266 270 266 336 c 0
 266 372 300 396 328 428 c 0
 354 457 373 486 373 537 c 0
 373 598 345 656 284 656 c 0
 220 656 196 571 196 480 c 0
 196 364 196 130 196 130 c 2
 196 94 196 64 202 46 c 0
 206 34 245 30 257 30 c 1
 261 24 261 2 257 -4 c 1
 217 -1 184 2 144 2 c 0
 104 2 62 -1 22 -4 c 1
 18 2 18 24 22 30 c 1
 34 30 82 34 86 46 c 0
 92 64 92 94 92 130 c 2
 92 130 92 342 92 386 c 1
 78 386 47 386 34 386 c 1
 30 387 29 393 29 397 c 1
 34 406 52 424 58 430 c 1
 72 430 82 430 92 430 c 1
 92 430 92 438 92 440 c 1
 92 570 203 696 295 696 c 0xfc
EndSplineSet
EndChar

StartChar: ae
Encoding: 230 230 164
Width: 670
Flags: HW
HStem: -8 74<436.779 552.394> -8 62<119 218.343> 245 38<368.423 510.629> 254 33<408.183 529.226> 404 38<157.874 262.5 411.69 500.255>
VStem: 30 109<71.1359 169.891> 44 94<293.548 362.575> 530 104<287.632 371.86>
LayerCount: 2
Fore
SplineSet
188 192 m 0x4d
 156 176 139 150 139 120 c 0
 139 80 172 54 204 54 c 0
 234 54 284 79 284 103 c 1
 276 123 269 162 267 194 c 0
 266 205 267 211 267 222 c 1
 245 214 206 202 188 192 c 0x4d
458 404 m 1
 386 404 365 300 366 283 c 1x29
 375 283 495 285 512 287 c 0x19
 524 287 530 295 530 307 c 1
 530 342 511 404 458 404 c 1
472 442 m 0
 598 442 634 348 634 299 c 0
 634 273 625 255 608 254 c 0x5b
 558 250 405 246 362 245 c 1
 360 111 448 66 514 66 c 0
 570 66 608 98 625 117 c 1
 629 116 635 108 635 101 c 1
 635 95 632 86 630 82 c 0
 612 54 553 -8 467 -8 c 0xab
 403 -8 338 18 304 70 c 1
 266 37 188 -8 154 -8 c 0
 83 -8 30 48 30 110 c 0x4d
 30 150 56 180 80 190 c 0
 123 208 224 244 264 260 c 1
 271 264 273 270 274 278 c 0
 275 289 275 298 274 310 c 0
 269 361 237 404 195 404 c 0
 159 404 146 373 138 331 c 0
 132 303 117 286 87 286 c 0
 63 286 44 306 44 330 c 0x4b
 44 340 48 354 54 363 c 1
 72 381 160 442 240 442 c 0
 285 442 323 418 345 384 c 1
 375 413 420 442 472 442 c 0
EndSplineSet
EndChar

StartChar: eth
Encoding: 240 240 174
Width: 525
Flags: HW
HStem: -6 38<211.57 306.456> 406 38<198.323 305.122> 664 26<89.6185 111.435>
VStem: 34 112<111.96 317.346> 360 113<133.97 347.01>
LayerCount: 2
Fore
SplineSet
354 704 m 17
 360 698 379 677 373 671 c 9
 128 506 l 17
 122 512 104 533 110 539 c 9
 354 704 l 17
246 406 m 0
 170 406 146 312 146 220 c 0
 146 113 199 32 259 32 c 0
 332 32 360 120 360 214 c 0
 360 267 351 320 335 352 c 1
 315 387 287 406 246 406 c 0
244 444 m 0
 271 444 298 440 318 432 c 1
 294 500 242 598 86 664 c 1
 85 673 88 687 96 690 c 1
 174 675 285 617 363 528 c 0
 426 456 473 364 473 253 c 3
 473 96 374 -6 256 -6 c 0
 135 -6 34 74 34 214 c 0
 34 346 126 444 244 444 c 0
EndSplineSet
EndChar

StartChar: ntilde
Encoding: 241 241 175
Width: 559
Flags: HW
HStem: -4 33<27.3165 93.1289 210.064 272.379 310.817 370.634 487.567 553.379> 365 28<26.9495 88.8272> 372 70<280.259 404.542> 504 54<311.929 401.497> 560 54<184.344 273.726>
VStem: 100 104<36.9863 343.149> 153 282 377 104<36.9863 341.846>
LayerCount: 2
Fore
SplineSet
364 703 m 28,124,-1
EndSplineSet
Refer: 244 771 N 1 0 0 1 97 -8 2
Refer: 78 110 N 1 0 0 1 0 0 3
EndChar

StartChar: divide
Encoding: 247 247 181
Width: 583
Flags: HW
HStem: 4 112<244.104 333.896> 221 57<52.7534 525.713> 379 112<244.104 333.896>
VStem: 233 112<14.604 104.396 390.104 479.896>
LayerCount: 2
Fore
SplineSet
233 435 m 0
 233 466 258 491 289 491 c 0
 320 491 345 466 345 435 c 0
 345 404 320 379 289 379 c 0
 258 379 233 404 233 435 c 0
233 60 m 0
 233 91 258 116 289 116 c 0
 320 116 345 91 345 60 c 0
 345 29 320 4 289 4 c 0
 258 4 233 29 233 60 c 0
55 221 m 1
 53 221 49 224 49 234 c 0
 49 238 53 268 63 278 c 1
 151 278 432 278 520 278 c 1
 525 278 529 272 529 265 c 0
 529 247 522 230 514 221 c 1
 476 221 55 221 55 221 c 1
EndSplineSet
EndChar

StartChar: oslash
Encoding: 248 248 182
Width: 518
Flags: HW
HStem: -7 38<217.916 321.15> 406 37<195.463 295.506>
VStem: 34 114<117.442 314.007> 368 114<122.712 319.367>
LayerCount: 2
Fore
SplineSet
404 434 m 17
 410 432 434 421 432 417 c 9
 133 -18 l 17
 127 -16 103 -4 105 0 c 9
 404 434 l 17
EndSplineSet
Refer: 79 111 N 1 0 0 1 1 0 2
EndChar

StartChar: thorn
Encoding: 254 254 188
Width: 509
Flags: HW
HStem: -222 33<-6.33839 59.4741 176.412 242.224> -8 40<192.584 301.343> 377 66<223.822 305.143> 626 29<-2.26843 57.3726> 674 20G<156.443 170.443>
VStem: 66 104<-181.514 1.9967 51.8489 365.145 384.526 618.305> 363 114<136.556 308.522>
LayerCount: 2
Fore
SplineSet
288 443 m 0
 410 443 477 331 477 233 c 0
 477 92 349 -8 237 -8 c 0
 210 -8 183 0 173 2 c 1
 171 2 170 -2 170 -12 c 2
 170 -88 l 2
 170 -124 170 -154 176 -172 c 0
 180 -184 228 -189 240 -189 c 1
 244 -195 244 -216 240 -222 c 1
 200 -219 158 -216 118 -216 c 0
 77 -216 36 -219 -4 -222 c 1
 -9 -216 -9 -195 -4 -189 c 1
 8 -189 56 -184 60 -172 c 0
 67 -154 66 -124 66 -88 c 2
 66 558 l 2
 66 574 66 594 60 608 c 0
 54 621 20 626 -0 626 c 1
 -2 626 -4 653 0 655 c 1
 81 663 146 684 168 694 c 1
 174 694 181 684 181 678 c 1
 181 678 170 632 170 584 c 1
 170 500 170 401 170 389 c 0
 170 388 170 385 171 384 c 0
 172 383 173 383 174 384 c 0
 202 410 252 443 288 443 c 0
239 377 m 0
 200 377 170 354 170 344 c 2
 170 98 l 2
 170 52 215 32 250 32 c 0
 308 32 363 99 363 197 c 0
 363 308 317 377 239 377 c 0
EndSplineSet
EndChar

StartChar: gravecomb
Encoding: 768 768 190
Width: 251
Flags: HW
HStem: 523 162
VStem: 46 170
LayerCount: 2
Fore
SplineSet
46 659 m 0
 46 665 55 685 90 685 c 0
 104 685 119 681 124 676 c 0
 161 633 216 543 216 538 c 0
 216 532 209 523 202 523 c 0
 192 523 46 620 46 659 c 0
EndSplineSet
EndChar

StartChar: acutecomb
Encoding: 769 769 191
Width: 237
Flags: HW
HStem: 523 162
VStem: 38 170
LayerCount: 2
Fore
SplineSet
164 685 m 0
 199 685 208 665 208 659 c 0
 208 620 62 523 52 523 c 0
 45 523 38 532 38 538 c 0
 38 544 94 634 130 676 c 0
 135 681 150 685 164 685 c 0
EndSplineSet
EndChar

StartChar: uni2010
Encoding: 8208 8208 197
Width: 317
Flags: HW
HStem: 196 68<33.2148 187.957> 207 69<141.043 288.448>
VStem: 31 261
LayerCount: 2
Fore
SplineSet
31 207 m 0x60
 31 255 40 264 43 264 c 2
 44 264 l 1xa0
 285 276 l 1
 286 276 l 2
 288 276 292 275 292 267 c 0
 292 218 279 207 279 207 c 1x60
 38 196 l 1xa0
 38 196 31 195 31 207 c 0x60
EndSplineSet
EndChar

StartChar: uni2011
Encoding: 8209 8209 198
Width: 317
Flags: HW
HStem: 196 68<33.2148 187.957> 207 69<141.043 288.448>
VStem: 31 261
LayerCount: 2
Fore
SplineSet
31 207 m 0x60
 31 255 40 264 43 264 c 2
 44 264 l 1xa0
 285 276 l 1
 286 276 l 2
 288 276 292 275 292 267 c 0
 292 218 279 207 279 207 c 1x60
 38 196 l 1xa0
 38 196 31 195 31 207 c 0x60
EndSplineSet
EndChar

StartChar: figuredash
Encoding: 8210 8210 199
Width: 490
Flags: HW
HStem: 197 68<32.9742 449.404>
LayerCount: 2
Fore
SplineSet
29 206 m 0
 29 208 32 265 43 265 c 2
 452 265 l 2
 454 265 458 264 458 257 c 0
 458 245 453 215 450 204 c 0
 448 198 442 197 442 197 c 1
 35 197 l 1
 35 197 29 196 29 206 c 0
EndSplineSet
EndChar

StartChar: endash
Encoding: 8211 8211 200
Width: 559
Flags: HW
HStem: 197 68<59.9742 491.904>
LayerCount: 2
Fore
SplineSet
56 206 m 0
 56 208 59 265 70 265 c 2
 495 265 l 2
 497 265 501 264 501 256 c 0
 501 238 493 208 492 204 c 0
 490 198 485 197 485 197 c 1
 62 197 l 1
 62 197 56 196 56 206 c 0
EndSplineSet
EndChar

StartChar: emdash
Encoding: 8212 8212 201
Width: 896
Flags: HW
HStem: 202 68<58.9742 829.404>
LayerCount: 2
Fore
SplineSet
55 211 m 0
 55 213 58 270 69 270 c 2
 832 270 l 2
 834 270 838 269 838 261 c 0
 838 243 831 213 830 209 c 0
 828 203 822 202 822 202 c 1
 61 202 l 1
 61 202 55 201 55 211 c 0
EndSplineSet
EndChar

StartChar: afii00208
Encoding: 8213 8213 202
Width: 1076
Flags: HW
HStem: 202 68<29.9742 1041.4>
LayerCount: 2
Fore
SplineSet
26 211 m 0
 26 213 29 270 40 270 c 2
 1044 270 l 1
 1045 270 1050 269 1050 261 c 0
 1050 243 1043 213 1042 209 c 0
 1040 203 1034 202 1034 202 c 1
 32 202 l 1
 32 202 26 201 26 211 c 0
EndSplineSet
EndChar

StartChar: quoteleft
Encoding: 8216 8216 203
Width: 181
Flags: HW
HStem: 478 228<82.5 149>
VStem: 39 65<541.25 628.49>
LayerCount: 2
Fore
SplineSet
39 555 m 0
 39 649 140 706 149 706 c 0
 157 706 165 699 169 688 c 1
 109 652 104 615 104 606 c 0
 104 586 116 570 126 558 c 0
 136 546 146 537 146 524 c 0
 146 500 114 478 82 478 c 0
 75 478 62 481 54 485 c 1
 45 498 39 527 39 555 c 0
EndSplineSet
EndChar

StartChar: quoteright
Encoding: 8217 8217 204
Width: 189
Flags: HW
HStem: 479 228<53.5 120>
VStem: 98 64<555.866 643.75>
LayerCount: 2
Fore
SplineSet
162 630 m 0
 162 536 63 479 54 479 c 0
 46 479 37 486 33 497 c 1
 93 533 98 571 98 580 c 0
 98 600 86 614 76 626 c 0
 66 638 57 647 57 660 c 0
 57 684 88 707 120 707 c 0
 127 707 140 704 148 700 c 1
 157 687 162 658 162 630 c 0
EndSplineSet
EndChar

StartChar: quotesinglbase
Encoding: 8218 8218 205
Width: 195
Flags: HW
HStem: -102 228<37 103.5>
VStem: 82 64<-25.5809 62.25>
LayerCount: 2
Fore
SplineSet
146 48 m 0
 146 -46 46 -102 37 -102 c 0
 29 -102 20 -95 16 -84 c 1
 76 -48 82 -11 82 -2 c 0
 82 18 70 32 60 44 c 0
 50 56 40 66 40 79 c 0
 40 103 72 126 104 126 c 0
 111 126 124 122 132 118 c 1
 141 105 146 76 146 48 c 0
EndSplineSet
EndChar

StartChar: quotedblleft
Encoding: 8220 8220 206
Width: 327
Flags: HW
HStem: 478 228<82.5 149 228.5 294.5>
VStem: 39 65<541.25 628.49> 185 64<541.25 629.134>
LayerCount: 2
Fore
SplineSet
185 555 m 0
 185 649 285 706 294 706 c 0
 302 706 311 699 315 688 c 1
 255 652 249 615 249 606 c 0
 249 587 258 573 268 562 c 0
 279 550 291 538 291 524 c 0
 291 500 260 478 228 478 c 0
 221 478 208 481 200 485 c 1
 191 498 185 527 185 555 c 0
39 555 m 0
 39 649 140 706 149 706 c 0
 157 706 165 699 169 688 c 1
 109 652 104 615 104 606 c 0
 104 586 115 572 125 560 c 0
 135 548 146 538 146 524 c 0
 146 500 114 478 82 478 c 0
 75 478 62 481 54 485 c 1
 45 498 39 527 39 555 c 0
EndSplineSet
EndChar

StartChar: quotedblright
Encoding: 8221 8221 207
Width: 335
Flags: HW
HStem: 479 228
VStem: 172 62<553.25 643.75>
LayerCount: 2
Fore
SplineSet
234 630 m 0
 234 536 134 479 125 479 c 0
 117 479 109 486 105 497 c 1
 165 533 170 571 170 580 c 0
 170 600 158 614 148 626 c 0
 138 638 128 647 128 660 c 0
 128 684 160 707 192 707 c 0
 199 707 212 704 220 700 c 1
 229 687 234 658 234 630 c 0
237 630 m 0
 237 536 137 479 128 479 c 0
 120 479 111 486 107 497 c 1
 167 533 172 571 172 580 c 0
 172 599 164 612 154 623 c 0
 143 635 131 646 131 660 c 0
 131 684 162 707 194 707 c 0
 201 707 214 704 222 700 c 1
 231 687 237 658 237 630 c 0
EndSplineSet
EndChar

StartChar: quotedblbase
Encoding: 8222 8222 208
Width: 342
Flags: HW
HStem: -104 228
VStem: 154 67<-29.75 61.75>
LayerCount: 2
Fore
SplineSet
219 47 m 0
 219 -47 118 -104 109 -104 c 0
 101 -104 93 -97 89 -86 c 1
 149 -50 154 -13 154 -4 c 0
 154 16 142 31 132 43 c 0
 122 55 112 65 112 78 c 0
 112 102 144 124 176 124 c 0
 183 124 196 121 204 117 c 1
 213 104 219 75 219 47 c 0
221 48 m 0
 221 -46 121 -102 112 -102 c 0
 104 -102 95 -96 91 -85 c 1
 151 -49 156 -11 156 -2 c 0
 156 19 143 33 132 46 c 0
 122 57 115 66 115 78 c 0
 115 102 146 125 178 125 c 0
 185 125 198 122 206 118 c 1
 215 105 221 76 221 48 c 0
EndSplineSet
EndChar

StartChar: dagger
Encoding: 8224 8224 209
Width: 398
Flags: HW
HStem: 434 86<39.4833 102.761 293.239 356.517> 464 23<102.93 173.684 221.746 293.07> 642 20G<187 209>
VStem: 154 87<565.826 656.775> 180 34<399.267 460.648 489.077 609.698> 190 16<-15.8875 79.752>
LayerCount: 2
Fore
SplineSet
152 487 m 8x68
 166 487 172 492 182 505 c 1
 182 538 173 606 154 625 c 1
 154 646 175 662 198 662 c 0
 219 662 241 646 241 625 c 1
 222 606 212 538 212 505 c 1
 222 492 231 487 244 487 c 0x70
 277 487 305 501 324 520 c 1
 345 520 362 497 362 476 c 0
 362 455 345 434 324 434 c 1xb0
 305 453 278 464 244 464 c 24
 228 464 214 448 214 436 c 1x68
 221 419 234 394 246 365 c 1
 224 227 222 178 206 -3 c 1
 204 -9 202 -15 198 -16 c 1
 194 -15 192 -7 190 -3 c 1x64
 174 178 171 227 149 365 c 1
 160 390 173 419 180 436 c 1
 180 448 168 464 152 464 c 24x68
 118 464 91 453 72 434 c 1
 51 434 34 455 34 476 c 0
 34 497 51 520 72 520 c 1xa8
 91 501 119 487 152 487 c 8x68
EndSplineSet
EndChar

StartChar: daggerdbl
Encoding: 8225 8225 210
Width: 417
Flags: HW
HStem: 318 1<158.418 177.673 236.096 254.044> 319 1<158.374 189.5 226 254.067> 324 5<42.5124 189.5 223.5 371.488> 326 1<158.374 189.5 223.5 254.067>
LayerCount: 2
Fore
SplineSet
255 327 m 1x50
 243 327 231 326 224 326 c 1
 224 326 236 326 252 326 c 24x50
 286 326 315 324 334 324 c 1x20
 355 324 372 327 372 327 c 0x10
 372 327 355 329 334 329 c 1x20
 315 329 285 328 252 328 c 0
 239 328 232 327 222 327 c 1
 222 327 231 327 250 327 c 1
 250 327 229 327 208 327 c 0
 185 327 163 327 163 327 c 1
 182 327 192 327 192 327 c 1x10
 182 327 176 328 162 328 c 16
 129 328 99 329 80 329 c 1x20
 59 329 42 327 42 327 c 0x10
 42 327 59 324 80 324 c 1x20
 99 324 128 326 162 326 c 24
 178 326 190 326 190 326 c 1
 183 326 169 327 158 327 c 1
 168 332 181 320 187 324 c 1
 181 328 174 313 158 319 c 1
 169 319 183 320 190 320 c 1
 190 320 178 320 162 320 c 24
 128 320 99 322 80 322 c 1
 59 322 42 319 42 319 c 0x50
 42 319 59 316 80 316 c 1
 99 316 129 318 162 318 c 8x80
 176 318 182 319 192 319 c 1x40
 192 319 182 319 163 319 c 1x80
 163 319 185 319 208 319 c 0x40
 229 319 250 319 250 319 c 1x80
 231 319 222 319 222 319 c 1x40
 232 319 239 318 252 318 c 0x80
 285 318 315 316 334 316 c 1
 355 316 372 319 372 319 c 0
 372 319 355 322 334 322 c 1
 315 322 286 320 252 320 c 24
 236 320 224 320 224 320 c 1
 231 320 243 319 255 319 c 1
 239 314 232 328 226 324 c 1
 231 322 243 333 255 327 c 1x50
EndSplineSet
EndChar

StartChar: bullet
Encoding: 8226 8226 211
Width: 324
Flags: HW
HStem: 139 248<92.3828 230.301>
VStem: 38 247<193.883 332.275>
LayerCount: 2
Fore
SplineSet
38 263 m 0
 38 331 94 387 162 387 c 0
 230 387 285 331 285 263 c 0
 285 195 230 139 162 139 c 0
 94 139 38 195 38 263 c 0
EndSplineSet
EndChar

StartChar: onedotenleader
Encoding: 8228 8228 212
Width: 742
Flags: HW
HStem: 46 17<354.103 371.997>
VStem: 354 18<45.5033 62.4709>
LayerCount: 2
Fore
SplineSet
372 54 m 0
 372 50 367 46 363 46 c 1
 358 46 354 50 354 56 c 0
 354 60 358 63 362 63 c 1
 367 63 372 58 372 54 c 0
EndSplineSet
EndChar

StartChar: ellipsis
Encoding: 8230 8230 213
Width: 811
Flags: HW
HStem: 46 17<100.115 116.998 395.615 412.498 691.115 707.998>
VStem: 100 17<45.5807 62.4804> 396 17<45.5807 62.4804> 691 17<45.5807 62.4804>
CounterMasks: 1 70
LayerCount: 2
Fore
SplineSet
708 54 m 0
 708 50 704 46 700 46 c 1
 695 46 691 50 691 56 c 0
 691 60 696 63 700 63 c 1
 705 63 708 58 708 54 c 0
413 54 m 0
 413 50 409 46 405 46 c 1
 400 46 396 50 396 56 c 0
 396 60 400 63 404 63 c 1
 409 63 413 58 413 54 c 0
117 54 m 0
 117 50 114 46 110 46 c 1
 105 46 100 50 100 56 c 0
 100 60 105 63 109 63 c 1
 114 63 117 58 117 54 c 0
EndSplineSet
EndChar

StartChar: perthousand
Encoding: 8240 8240 214
Width: 1011
Flags: HW
HStem: -4 28<798.475 867.115> 162 2<130.166 167.5> 282 27<785.188 851.528> 628 4<404.545 404.836>
VStem: 55 54<188.349 282.85> 164 72<195.253 268.827> 300 83<254.5 388.5> 451 73<30.3759 280.552> 672 79<70.3876 233.083> 897 80<71.684 234.712>
LayerCount: 2
Fore
SplineSet
820 282 m 1
 766 282 751 218 751 164 c 0
 751 100 782 24 832 24 c 1
 886 24 897 90 897 142 c 0
 897 205 871 282 820 282 c 1
826 309 m 0
 916 309 977 240 977 154 c 0
 977 72 916 -4 826 -4 c 0
 738 -4 672 65 672 151 c 0
 672 237 738 309 826 309 c 0
408 628 m 1
 378 628 109 276 109 246 c 1
 107 208 118 164 134 164 c 0
 156 164 164 205 164 234 c 1
 164 268 422 525 422 554 c 1
 426 591 434 531 442 560 c 0
 446 594 434 630 408 628 c 1
340 460 m 1
 359 460 388 392 388 324 c 0
 388 255 370 178 348 178 c 1
 331 178 300 244 300 312 c 0
 300 386 320 460 340 460 c 1
487 296 m 0
 503 296 524 232 524 160 c 0
 524 84 511 9 492 9 c 0
 474 9 451 76 451 147 c 0
 451 223 469 296 487 296 c 0
336 462 m 1
 355 462 383 394 383 326 c 0
 383 257 366 180 344 180 c 1
 327 180 296 246 296 314 c 0
 296 388 316 462 336 462 c 1
400 632 m 1
 446 632 236 288 236 246 c 1
 234 202 192 162 142 162 c 0
 88 162 55 200 55 243 c 1
 55 285 352 636 400 632 c 1
EndSplineSet
EndChar

StartChar: minute
Encoding: 8242 8242 215
Width: 156
Flags: HW
HStem: 489 210<54.0928 65.7099>
VStem: 34 96
LayerCount: 2
Fore
SplineSet
95 699 m 0
 110 699 130 691 130 671 c 0
 130 624 87 544 59 498 c 0
 55 492 50 489 46 489 c 0
 40 489 34 494 34 501 c 0
 34 504 40 612 48 666 c 0
 50 678 76 699 95 699 c 0
EndSplineSet
EndChar

StartChar: second
Encoding: 8243 8243 216
Width: 285
Flags: HW
HStem: 489 210<54.0928 65.7012 178.093 189.693>
VStem: 34 218
LayerCount: 2
Fore
SplineSet
219 699 m 0
 234 699 252 691 252 671 c 0
 252 624 211 544 183 498 c 0
 179 492 174 489 170 489 c 0
 164 489 158 494 158 501 c 0
 158 504 164 612 172 666 c 0
 174 678 200 699 219 699 c 0
95 699 m 0
 110 699 130 691 130 671 c 0
 130 624 87 544 59 498 c 0
 55 492 50 489 46 489 c 0
 40 489 34 494 34 501 c 0
 34 504 40 612 48 666 c 0
 50 678 76 699 95 699 c 0
EndSplineSet
EndChar

StartChar: uni2038
Encoding: 8248 8248 217
Width: 413
Flags: HW
LayerCount: 2
Fore
SplineSet
260 44 m 0
 251 44 219 68 199 84 c 1
 147 14 82 -38 74 -40 c 1
 70 -42 74 -40 78 -42 c 1
 84 -36 166 21 200 70 c 1
 218 60 268 24 274 22 c 1
 288 24 288 22 312 -2 c 1
 319 -10 306 1 272 51 c 1
 270 51 266 44 260 44 c 0
EndSplineSet
EndChar

StartChar: guilsinglleft
Encoding: 8249 8249 218
Width: 310
Flags: HW
HStem: 170 166
VStem: 34 233
LayerCount: 2
Fore
SplineSet
134 336 m 1
 146 330 146 322 148 318 c 1
 214 274 249 235 223 206 c 1
 215 196 200 174 192 170 c 1
 190 173 187 184 169 202 c 1
 214 194 265 250 267 248 c 1
 265 247 248 249 242 248 c 1
 239 247 173 237 34 245 c 1
 30 244 134 338 134 336 c 1
EndSplineSet
EndChar

StartChar: guilsinglright
Encoding: 8250 8250 219
Width: 310
Flags: HW
VStem: 42 232
LayerCount: 2
Fore
SplineSet
176 160 m 1
 164 160 162 162 160 162 c 1
 94 128 64 92 86 115 c 1
 83 115 118 165 116 170 c 1
 108 182 131 264 138 293 c 1
 90 339 44 397 42 404 c 1
 44 415 60 421 66 423 c 1
 70 420 144 345 274 266 c 1
 280 260 182 169 176 160 c 1
EndSplineSet
EndChar

StartChar: uni203E
Encoding: 8254 8254 220
Width: 561
Flags: HW
HStem: 736 68<-11.5258 578.403>
LayerCount: 2
Fore
SplineSet
-16 746 m 0
 -16 748 -13 804 -2 804 c 2
 580 804 l 2
 582 804 586 803 586 795 c 0
 586 777 579 748 578 744 c 0
 576 738 570 736 570 736 c 1
 -10 736 l 1
 -10 736 -16 736 -16 746 c 0
EndSplineSet
EndChar

StartChar: Euro
Encoding: 8364 8364 221
Width: 710
Flags: HW
HStem: 314 29<251.964 435.525> 358 99<291.68 528.527> 467 29<189.969 327.934> 483 13<196.718 265.061>
LayerCount: 2
Fore
SplineSet
236 467 m 1xe0
 276 467 483 465 524 457 c 1
 531 451 533 372 530 365 c 1
 530 360 333 358 328 358 c 1
 322 361 137 467 236 467 c 1xe0
54 343 m 1
 77 343 424 343 436 343 c 1
 445 337 435 319 431 314 c 1
 430 310 237 304 232 298 c 1
 214 301 44 337 54 343 c 1
359 292 m 1
 373 286 535 221 535 218 c 0
 506 207 473 191 427 188 c 0
 333 184 256 248 251 330 c 1
 237 420 138 496 224 496 c 0xe0
 254 496 297 497 327 494 c 1
 329 492 342 425 343 422 c 0
 344 422 335 411 330 414 c 1
 328 418 325 411 324 416 c 1
 320 438 298 480 229 483 c 0xd0
 161 487 129 416 130 352 c 0
 131 280 162 197 238 200 c 0
 269 204 285 206 299 221 c 0
 321 243 332 273 334 280 c 1
 342 284 350 290 359 292 c 1
EndSplineSet
EndChar

StartChar: arrowleft
Encoding: 8592 8592 222
Width: 768
Flags: HW
HStem: 213 68<156 727.404>
LayerCount: 2
Fore
SplineSet
270 400 m 0
 270 390 260 384 200 326 c 1
 156 281 l 1
 728 281 l 1
 728 281 736 282 736 272 c 0
 736 254 729 224 728 220 c 0
 726 214 720 213 720 213 c 1
 155 213 l 1
 202 166 l 1
 258 110 269 104 269 94 c 0
 269 82 246 74 240 72 c 1
 239 74 181 131 34 226 c 1
 29 228 27 234 27 240 c 0
 27 250 28 260 35 268 c 1
 166 347 238 420 241 422 c 1
 251 420 270 410 270 400 c 0
EndSplineSet
EndChar

StartChar: arrowup
Encoding: 8593 8593 223
Width: 396
Flags: HW
HStem: -11 0<193.335 225.572>
VStem: 162 68<45.2041 280.5>
LayerCount: 2
Fore
SplineSet
294 506 m 1
 286 506 292 222 230 280 c 1
 230 280 231 -11 226 -11 c 1
 217 -11 200 -11 193 -11 c 0
 181 -10 168 -3 166 -3 c 1
 163 -2 162 282 162 282 c 1
 146 548 l 1
 120 521 80 482 76 482 c 1
 40 452 38 467 32 470 c 1
 26 470 54 508 100 584 c 1
 102 587 134 616 184 690 c 1
 190 692 197 694 204 690 c 1
 248 624 289 589 295 583 c 1
 334 515 366 463 360 463 c 1
 354 456 346 474 320 500 c 1
 318 493 298 506 294 506 c 1
EndSplineSet
EndChar

StartChar: arrowright
Encoding: 8594 8594 224
Width: 767
Flags: HW
HStem: 174 150
LayerCount: 2
Fore
SplineSet
550 188 m 1
 550 195 534 207 592 268 c 1
 565 294 266 303 266 307 c 1
 266 313 277 318 280 324 c 1
 282 331 321 308 387 270 c 1
 391 269 394 265 394 260 c 1
 394 257 678 254 676 253 c 1
 602 205 544 207 544 206 c 1
 513 234 496 238 496 250 c 0
 496 260 515 272 545 300 c 1
 545 299 592 287 666 239 c 1
 668 238 388 235 388 232 c 1
 388 227 384 223 380 222 c 1
 314 184 274 166 274 174 c 1
 267 181 277 178 277 178 c 1
 270 180 550 184 550 188 c 1
EndSplineSet
EndChar

StartChar: arrowdown
Encoding: 8595 8595 225
Width: 398
Flags: HW
HStem: 690 0<171.313 202.165>
VStem: 165 68<399 634.296>
LayerCount: 2
Fore
SplineSet
102 173 m 1
 109 173 104 457 165 399 c 1
 165 399 165 690 170 690 c 1
 179 690 195 690 202 690 c 0
 214 689 228 683 230 683 c 1
 233 682 233 398 233 398 c 1
 250 132 l 1
 276 159 316 197 320 197 c 1
 356 227 356 213 364 210 c 1
 370 210 342 171 296 95 c 1
 294 92 262 63 212 -11 c 1
 206 -13 199 -14 192 -10 c 1
 148 56 106 91 100 97 c 1
 61 165 30 216 36 216 c 1
 42 223 50 206 76 180 c 1
 78 187 98 173 102 173 c 1
EndSplineSet
EndChar

StartChar: partialdiff
Encoding: 8706 8706 227
Width: 489
Flags: HW
HStem: 0 44<188.284 289.04> 324 45<176.167 292.909> 588 50<125.427 253.306>
VStem: 44 100<95.4033 270.948> 328 106<151.11 450.621>
LayerCount: 2
Fore
SplineSet
328 218 m 1
 328 290 278 324 222 324 c 0
 170 324 144 264 144 204 c 0
 144 106 180 44 244 44 c 0
 301 44 328 124 328 218 c 1
210 0 m 0
 112 0 44 72 44 184 c 0
 44 285 125 369 238 369 c 0
 271 369 306 356 324 350 c 0
 329 348 333 356 333 362 c 1
 335 406 318 516 268 556 c 0
 238 581 210 588 182 588 c 1
 142 588 103 565 74 543 c 1
 70 547 62 562 68 572 c 0
 83 595 139 638 224 638 c 1
 379 638 434 438 434 288 c 1
 434 115 350 0 210 0 c 0
EndSplineSet
EndChar

StartChar: uni2206
Encoding: 8710 8710 228
Width: 676
Flags: HW
HStem: 0 68<112.411 511>
LayerCount: 2
Fore
SplineSet
514 76 m 2
 320 464 l 1
 316 467 312 468 308 462 c 2
 112 80 l 1
 110 73 115 68 120 68 c 2
 511 68 l 2
 515 68 516 72 514 76 c 2
350 613 m 1
 652 14 l 1
 652 14 646 8 644 0 c 1
 33 0 l 1
 29 6 28 9 24 16 c 1
 333 613 l 1
 350 613 l 1
EndSplineSet
EndChar

StartChar: gradient
Encoding: 8711 8711 229
Width: 676
Flags: HW
HStem: 573 69<160.932 562.589>
LayerCount: 2
Fore
SplineSet
161 566 m 2
 355 178 l 1
 359 175 363 174 367 180 c 2
 562 562 l 1
 564 569 560 573 555 573 c 2
 164 573 l 2
 160 573 159 570 161 566 c 2
326 28 m 1
 24 628 l 1
 24 628 30 634 32 642 c 1
 642 642 l 1
 646 636 648 633 652 626 c 1
 342 28 l 1
 326 28 l 1
EndSplineSet
EndChar

StartChar: element
Encoding: 8712 8712 230
Width: 455
Flags: HW
HStem: 10 54<155.854 423.376> 190 54<96.0044 378> 372 54<154.089 423.616>
VStem: 29 67<174.038 308.034>
LayerCount: 2
Fore
SplineSet
386 218 m 0
 386 191 378 190 377 190 c 1
 101 190 l 2
 100 190 95 189 96 186 c 0
 108 123 155 64 222 64 c 2
 410 64 l 1
 410 64 425 59 425 24 c 0
 425 15 418 10 418 10 c 1
 224 10 l 2
 112 10 29 106 29 218 c 0
 29 327 105 426 214 426 c 2
 418 426 l 1
 418 426 425 421 425 409 c 0
 425 378 410 372 410 372 c 1
 214 372 l 2
 151 372 107 311 96 249 c 0
 96 246 98 244 101 244 c 2
 378 244 l 1
 378 243 386 235 386 218 c 0
EndSplineSet
EndChar

StartChar: notelement
Encoding: 8713 8713 231
Width: 452
Flags: HW
HStem: 10 54<180.508 422.876> 190 54<274.5 377.5> 280 145<130.319 238> 372 54<375 423.116>
VStem: 28 67<210.536 264.279>
LayerCount: 2
Fore
SplineSet
386 218 m 0xd8
 386 191 377 190 376 190 c 1
 244 190 l 1
 180 72 l 1
 192 67 206 64 222 64 c 2
 410 64 l 1
 410 64 424 59 424 24 c 0
 424 15 418 10 418 10 c 1
 224 10 l 2
 198 10 174 16 152 25 c 1
 130 -16 l 1
 128 -17 127 -18 123 -18 c 0
 120 -18 103 -14 90 2 c 0
 86 6 87 10 87 10 c 1
 109 50 l 1
 59 88 28 150 28 218 c 0
 28 327 105 425 214 425 c 2xe8
 318 425 l 1
 346 476 l 1
 346 476 348 478 352 478 c 0
 364 478 376 470 384 461 c 0
 389 456 389 450 389 450 c 1
 375 425 l 1
 418 425 l 1
 418 425 424 421 424 409 c 0
 424 378 410 372 410 372 c 1
 346 372 l 1
 274 244 l 1
 378 244 l 1
 378 243 386 235 386 218 c 0xd8
176 170 m 1
 238 280 l 1
 155 280 l 2
 123 280 101 254 95 222 c 0
 95 218 96 220 98 219 c 1
 98 216 156 189 176 170 c 1
180 176 m 1
 237 282 l 1
 159 282 l 2
 127 282 100 246 95 214 c 0
 97 200 172 186 180 176 c 1
EndSplineSet
EndChar

StartChar: summation
Encoding: 8721 8721 232
Width: 624
Flags: HW
HStem: 25 74<286.892 337.707> 566 66<264.581 325.119>
LayerCount: 2
Fore
SplineSet
382 24 m 1
 344 24 270 25 241 25 c 0
 227 25 249 24 263 32 c 1
 271 38 282 58 290 88 c 0
 290 94 295 99 299 99 c 0
 309 99 332 110 338 114 c 1
 328 87 406 173 402 151 c 1
 350 153 261 160 214 162 c 0
 174 172 101 243 63 294 c 1
 55 304 41 317 35 321 c 0
 34 325 34 332 35 336 c 0
 41 340 52 353 58 360 c 1
 58 360 184 486 218 486 c 1
 266 488 345 492 398 494 c 1
 395 479 351 524 317 552 c 1
 309 559 290 566 280 566 c 0
 276 566 271 571 270 577 c 0
 258 605 234 632 202 633 c 1
 191 633 212 632 232 632 c 0
 261 632 324 634 378 630 c 1
 382 606 471 466 475 444 c 1
 475 440 472 435 468 432 c 0
 464 430 461 429 459 430 c 0
 409 408 335 343 330 339 c 0
 322 339 304 338 320 338 c 1
 337 338 315 338 329 338 c 1
 345 338 361 340 361 348 c 0
 353 353 352 370 360 388 c 1
 360 390 458 267 462 267 c 1
 468 264 476 258 478 254 c 1
 468 224 352 46 382 24 c 1
EndSplineSet
EndChar

StartChar: minus
Encoding: 8722 8722 233
Width: 609
Flags: HW
HStem: 242 37<302.273 517.361>
LayerCount: 2
Fore
SplineSet
293 218 m 1
 212 218 155 250 74 250 c 1
 68 250 303 277 310 279 c 1
 312 279 538 279 538 275 c 1
 545 271 536 252 534 244 c 1
 540 241 530 242 530 242 c 1
 537 242 302 242 302 242 c 1
 309 242 300 216 293 218 c 1
EndSplineSet
EndChar

StartChar: uni2213
Encoding: 8723 8723 234
Width: 534
Flags: HW
HStem: 264 2<134.427 138.5 362 366.343> 396 36<34.2154 133>
VStem: 136 36<434.57 525.934> 392 4<315.684 394.637> 396 4<291.323 394.433>
LayerCount: 2
Fore
SplineSet
396 394 m 1xf0
 396 394 401 302 400 296 c 1xe8
 396 272 386 270 362 266 c 1
 360 266 136 266 135 266 c 1
 132 266 128 267 129 276 c 1
 131 294 133 394 136 394 c 2
 136 395 133 396 133 396 c 2
 133 396 35 396 38 396 c 1
 38 396 31 396 34 401 c 1
 34 403 32 418 38 430 c 1
 39 433 39 432 42 432 c 1
 42 432 131 432 134 432 c 2
 136 432 133 434 136 435 c 2
 136 435 133 526 136 526 c 1
 136 526 132 529 138 530 c 1
 150 534 162 534 167 534 c 1
 172 534 169 530 172 530 c 1
 172 530 169 434 172 434 c 2
 172 432 170 432 174 432 c 2
 174 432 267 432 270 432 c 2
 272 432 271 432 274 428 c 1
 274 424 269 410 269 399 c 1
 268 396 263 396 266 396 c 1
 266 396 171 396 174 396 c 2
 172 396 396 395 396 394 c 1xf0
392 404 m 1xf0
 392 404 397 308 396 302 c 1xe8
 392 278 390 268 366 264 c 1
 364 264 139 264 138 264 c 1
 134 264 132 265 133 274 c 1
 134 281 134 390 137 400 c 1
 138 404 140 406 138 406 c 1
 138 406 392 405 392 404 c 1xf0
EndSplineSet
EndChar

StartChar: radical
Encoding: 8730 8730 235
Width: 515
Flags: HW
LayerCount: 2
Fore
SplineSet
8 159 m 1
 -6 165 -15 178 -15 186 c 0
 -15 196 -2 203 8 209 c 0
 42 231 133 296 147 308 c 0
 155 315 171 315 174 307 c 1
 183 275 192 254 198 238 c 2
 301 8 l 1
 309 51 446 791 446 791 c 1
 494 788 l 1
 494 788 343 -25 318 -153 c 1
 303 -171 283 -176 277 -176 c 0
 273 -176 269 -176 267 -172 c 2
 95 208 l 1
 8 159 l 1
EndSplineSet
EndChar

StartChar: proportional
Encoding: 8733 8733 236
Width: 670
Flags: HW
HStem: 94 36<441.352 471.5>
LayerCount: 2
Fore
SplineSet
366 170 m 1
 370 135 396 100 431 94 c 1
 464 84 483 110 500 130 c 1
 435 130 400 191 394 191 c 1
 378 211 344 262 309 262 c 1
 249 230 287 200 203 200 c 0
 121 200 155 244 120 292 c 0
 86 346 200 394 220 394 c 0
 234 394 338 356 324 332 c 0
 290 331 361 330 327 331 c 0
 314 357 416 394 420 394 c 0
 390 394 463 380 428 368 c 0
 394 364 463 357 425 357 c 0
 389 357 454 357 416 357 c 0
 348 357 380 301 346 301 c 0
 323 286 328 204 366 170 c 1
366 136 m 1
 300 101 293 145 314 145 c 1
 347 145 372 183 384 199 c 1
 358 169 292 196 204 196 c 0
 130 196 370 172 366 136 c 1
EndSplineSet
EndChar

StartChar: infinity
Encoding: 8734 8734 237
Width: 889
Flags: HW
HStem: 41 66<174.286 306.168 596.267 713.73> 357 67<177.086 290.27 581.929 710.37>
VStem: 50 79<155.111 305.871> 756 80<154.511 307.016>
LayerCount: 2
Fore
SplineSet
641 362 m 0
 580 362 519 277 493 246 c 0
 492 245 491 245 492 244 c 0
 526 200 587 107 656 107 c 0
 715 107 756 166 756 233 c 0
 756 304 705 362 641 362 c 0
129 229 m 0
 129 159 179 104 241 104 c 0
 307 104 359 180 393 218 c 0
 394 219 394 219 393 220 c 0
 369 252 304 357 234 357 c 0
 173 357 129 297 129 229 c 0
246 424 m 0
 343 424 414 342 455 294 c 0
 456 292 460 290 461 292 c 0
 503 345 571 424 668 424 c 0
 763 424 836 337 836 242 c 0
 836 132 746 41 636 41 c 0
 505 41 437 171 426 171 c 2
 425 171 l 1
 372 108 311 39 213 39 c 0
 118 39 50 128 50 223 c 0
 50 332 137 424 246 424 c 0
EndSplineSet
EndChar

StartChar: notequal
Encoding: 8800 8800 238
Width: 572
Flags: HW
HStem: 113 64<59.5959 197.5 290 508.405> 255 64<60.0718 276.5 370 508.405>
LayerCount: 2
Fore
SplineSet
370 319 m 1
 512 319 l 2
 515 319 518 320 518 314 c 0
 518 305 514 283 508 261 c 0
 506 255 502 255 502 255 c 1
 334 255 l 1
 290 177 l 1
 510 177 l 2
 514 177 518 179 518 172 c 0
 518 163 514 141 508 119 c 0
 506 113 502 113 502 113 c 1
 254 113 l 1
 200 14 l 1
 198 13 197 12 193 12 c 0
 190 12 173 16 160 32 c 0
 156 36 156 40 156 40 c 1
 198 113 l 1
 58 113 l 1
 58 113 50 113 50 123 c 0
 50 127 53 148 60 172 c 0
 62 178 66 177 66 177 c 1
 233 177 l 1
 276 255 l 1
 58 255 l 1
 58 255 50 255 50 265 c 1
 50 267 53 294 60 314 c 0
 62 318 65 319 66 319 c 1
 312 319 l 1
 364 413 l 1
 364 413 367 416 371 416 c 0
 380 416 392 410 402 398 c 0
 407 393 408 388 408 388 c 1
 370 319 l 1
EndSplineSet
EndChar

StartChar: lessequal
Encoding: 8804 8804 239
Width: 516
Flags: HW
HStem: 6 56<43.5959 434.482>
LayerCount: 2
Fore
SplineSet
432 62 m 1
 432 62 440 63 438 51 c 0
 431 3 427 9 424 6 c 1
 42 6 l 1
 42 6 32 5 34 19 c 0
 36 33 38 37 44 57 c 0
 46 63 50 62 50 62 c 1
 432 62 l 1
446 136 m 0
 446 129 436 86 430 86 c 0
 429 86 428 87 426 88 c 2
 50 279 l 2
 35 287 32 301 32 318 c 0
 32 329 40 337 50 342 c 2
 420 529 l 2
 422 530 423 531 424 531 c 0
 427 531 435 521 442 484 c 0
 443 478 438 475 438 475 c 1
 112 310 l 1
 444 142 l 1
 444 142 446 141 446 136 c 0
EndSplineSet
EndChar

StartChar: greaterequal
Encoding: 8805 8805 240
Width: 515
Flags: HW
HStem: 6 56<73.1017 465.404>
LayerCount: 2
Fore
SplineSet
72 483 m 0
 72 501 84 531 88 531 c 0
 89 531 90 530 92 529 c 2
 462 342 l 2
 472 337 480 329 480 318 c 0
 480 301 477 287 462 279 c 2
 88 88 l 2
 83 86 81 82 76 95 c 0
 70 110 66 132 66 136 c 0
 66 140 68 142 68 142 c 1
 400 310 l 1
 74 475 l 1
 74 475 72 476 72 483 c 0
70 15 m 0
 70 16 73 62 84 62 c 2
 468 62 l 2
 470 62 474 61 474 54 c 0
 474 46 471 29 466 13 c 0
 464 7 458 6 458 6 c 1
 76 6 l 1
 76 6 70 5 70 15 c 0
EndSplineSet
EndChar

StartChar: propersubset
Encoding: 8834 8834 241
Width: 458
Flags: HW
HStem: 14 21<306.539 327> 362 54<299.778 322>
VStem: 225 38<69.5815 171.082>
LayerCount: 2
Fore
SplineSet
318 213 m 1
 286 213 263 183 263 134 c 1
 263 85 291 47 322 39 c 1
 321 36 412 35 412 35 c 1
 412 35 327 32 327 14 c 1
 271 10 225 52 225 108 c 1
 225 162 168 212 222 212 c 1
 206 212 224 260 224 316 c 1
 224 370 268 420 322 416 c 1
 322 412 422 404 420 396 c 1
 419 393 420 388 420 382 c 1
 420 366 314 362 314 362 c 1
 276 362 318 213 318 213 c 1
EndSplineSet
EndChar

StartChar: dotlessi
Encoding: 305 305 242
Width: 284
Flags: HW
HStem: -4 33<25.1616 90.9741 207.909 270.224> 365 28<24.7947 86.6723> 421 20G<176.693 199.193>
VStem: 98 104<36.9863 356.638>
LayerCount: 2
Fore
SplineSet
202 317 m 1
 202 130 l 2
 202 96 202 64 208 46 c 0
 212 34 256 29 268 29 c 1
 272 23 272 2 268 -4 c 1
 228 -1 189 2 149 2 c 0
 109 2 68 -1 28 -4 c 1
 24 2 24 23 28 29 c 1
 40 29 87 34 91 46 c 0
 97 64 98 94 98 130 c 2
 98 279 l 2
 98 291 97 332 91 346 c 0
 83 362 34 365 27 365 c 1
 25 367 23 391 27 393 c 1
 91 399 157 421 196 441 c 1
 202 440 210 428 210 424 c 1
 208 416 202 377 202 365 c 1
 202 354 202 320 202 317 c 1
EndSplineSet
EndChar

StartChar: uni0302
Encoding: 770 770 243
Width: 365
Flags: HW
HStem: 492 158
VStem: 56 218
LayerCount: 2
Fore
SplineSet
266 492 m 0
 255 492 193 538 165 562 c 1
 137 537 77 492 66 492 c 0
 60 492 56 508 56 516 c 1
 63 524 83 544 116 586 c 0
 134 608 144 625 154 641 c 0
 158 648 160 650 165 650 c 1
 170 650 172 647 176 641 c 0
 187 625 196 608 212 588 c 0
 246 544 270 521 274 516 c 1
 274 506 272 492 266 492 c 0
EndSplineSet
EndChar

StartChar: tildecomb
Encoding: 771 771 244
Width: 693
Flags: HW
HStem: 512 54<214.588 304.156> 568 54<87.003 176.385>
VStem: 56 282
LayerCount: 2
Fore
SplineSet
138 622 m 0
 166 622 185 607 205 594 c 0
 226 580 254 566 270 566 c 0
 310 566 323 608 331 612 c 1
 337 612 338 605 338 601 c 0
 338 585 328 567 322 556 c 0
 304 528 280 512 254 512 c 0
 226 512 208 525 188 538 c 0
 167 552 142 568 122 568 c 0
 82 568 73 525 65 521 c 1
 59 521 56 530 56 534 c 0
 56 550 64 567 70 578 c 0
 88 606 112 622 138 622 c 0
EndSplineSet
EndChar

StartChar: f_f
Encoding: 61696 61696 245
Width: 606
Flags: HW
HStem: -4 21G<247.568 270.818> 18 62<184.76 197.491 351.507 359.294> 313 18<426.793 459.869> 313 10<571.602 576.23> 340 12<398.43 426.679> 430 192<240.887 354.568>
VStem: 101 90<343.308 380.5> 197 177<432 546.836>
LayerCount: 2
Fore
SplineSet
451 389 m 1x2f
 429 389 414 439 414 434 c 1
 414 436 414 401 412 401 c 1
 385 401 l 2
 386 401 384 396 384 392 c 0
 384 342 381 274 377 270 c 1
 377 253 324 238 328 224 c 1
 330 218 355 74 359 74 c 1
 361 59 361 30 363 19 c 1
 344 15 342 15 328 15 c 1
 309 13 283 0 259 -4 c 1xaf
 236 0 221 17 204 17 c 0
 190 17 202 24 183 28 c 1
 183 44 185 74 187 80 c 1
 193 80 216 152 218 202 c 0
 220 212 220 228 218 243 c 2
 191 380 l 1
 190 380 101 382 101 384 c 1
 101 390 107 273 109 273 c 2
 109 258 130 244 132 236 c 1
 135 230 162 229 168 231 c 1
 170 229 170 222 168 220 c 1
 148 290 194 342 230 342 c 0
 241 342 263 338 259 320 c 1
 273 340 311 359 335 361 c 1
 371 361 418 355 424 352 c 1
 431 342 434 325 405 340 c 1
 380 340 376 512 353 512 c 1
 329 512 283 471 284 433 c 2
 283 433 283 413 283 417 c 1
 283 419 292 430 300 430 c 2
 371 430 l 1
 373 430 374 433 374 430 c 1
 374 480 427 523 471 516 c 1
 501 516 472 506 479 498 c 1
 491 516 515 532 540 530 c 0
 549 485 558 418 561 416 c 1
 563 395 563 376 567 358 c 0
 569 338 585 323 581 323 c 0
 577 323 569 311 565 313 c 1x5f
 541 317 520 313 497 317 c 0
 473 321 452 309 428 313 c 1
 422 319 429 327 428 331 c 0
 431 335 463 334 461 344 c 0
 461 360 457 385 451 389 c 1x2f
387 536 m 0
 388 540 390 543 390 547 c 0
 390 551 387 562 385 566 c 0
 378 579 355 622 303 622 c 0
 220 622 195 543 196 461 c 2
 197 433 l 1
 197 432 287 431 288 431 c 1
 373 448 l 2
 375 458 376 449 376 451 c 2
 376 461 376 452 376 452 c 1
 376 472 383 518 387 536 c 0
EndSplineSet
EndChar

StartChar: f_i
Encoding: 61697 61697 246
Width: 576
Flags: HW
HStem: 208 18<251.81 259.568> 221 7<125.094 168.135> 232 45<347.068 374.75> 346 28<149.496 220.729> 426 80<143.793 243.786>
VStem: 127 117<431 490.232> 225 110<56.741 219.254> 347 44<264.449 276.5> 422 19<349.539 377.973>
LayerCount: 2
Fore
SplineSet
347 277 m 1xbd80
 370 277 404 350 422 356 c 1
 422 361 424 386 416 394 c 0
 411 403 403 394 389 392 c 0
 387 376 335 373 335 356 c 2
 333 356 332 243 332 241 c 1
 332 181 333 104 335 96 c 1
 337 74 359 56 369 42 c 1
 373 34 399 17 401 15 c 1
 383 16 368 2 348 -1 c 1
 308 0 267 1 227 0 c 1
 203 2 177 9 158 11 c 1
 162 13 186 32 190 38 c 0
 198 46 223 67 225 87 c 1
 228 100 228 216 228 220 c 2
 228 230 226 310 221 362 c 0
 216 372 198 374 182 374 c 1
 103 374 l 1
 102 374 101 245 101 247 c 1
 101 239 106 244 111 236 c 1
 113 230 159 228 165 228 c 1
 169 226 170 217 168 216 c 1
 148 217 131 221 112 221 c 0x7b80
 92 286 140 347 194 346 c 1
 222 348 235 357 245 358 c 1
 272 354 312 344 314 329 c 0
 316 317 299 314 279 329 c 1
 262 329 250 470 244 483 c 1
 238 495 200 506 180 506 c 1
 150 506 126 465 127 431 c 1
 127 433 136 426 142 426 c 2
 142 425 160 424 161 424 c 1
 265 432 l 2
 267 490 338 563 412 569 c 0
 436 569 462 556 472 546 c 0
 485 537 496 520 496 506 c 0
 494 480 482 453 469 436 c 1
 457 436 450 354 446 364 c 1
 442 354 441 348 441 339 c 0
 436 343 455 342 441 342 c 0
 415 342 392 280 391 232 c 1
 371 233 342 212 322 212 c 1
 301 212 275 209 254 208 c 1
 252 210 252 226 254 226 c 1
 260 226 284 232 286 238 c 1
 289 251 347 273 347 277 c 1xbd80
EndSplineSet
EndChar

StartChar: f_f_i
Encoding: 61698 61698 247
Width: 871
Flags: HW
HStem: 277 18<200.606 232.761 355.606 387.761 468.244 495.25 516.606 546.965 624.208 650.203> 277 2<459.285 460.993> 281 114<203.375 296.407 426.875 427.875> 465 28<458.786 542.864> 550 74<562.858 612.111>
VStem: 239 220<341 353.5 419 464.381 495.95 569.995> 239 58<300.192 392.86> 391 36<300.345 365.764> 552 65<307.592 455.025> 615 7<499.5 501>
LayerCount: 2
Fore
SplineSet
487 368 m 1x79
 445 368 433 430 434 392 c 2
 434 396 434 388 428 396 c 1
 424 402 400 401 394 401 c 2
 428 401 l 2
 427 401 l 2
 427 286 l 1
 427 279 431 287 435 281 c 0
 437 277 460 275 464 277 c 0
 466 281 463 279 461 279 c 1
 436 288 508 361 487 368 c 1x79
337 388 m 1
 304 388 288 419 288 419 c 1
 288 421 287 397 285 397 c 2
 285 396 202 395 203 395 c 2
 201 395 297 394 297 392 c 1
 299 347 299 285 299 287 c 2
 299 270 299 258 303 244 c 1
 305 254 332 265 340 279 c 0
 344 281 343 270 342 268 c 1
 322 271 292 279 272 281 c 0x7b
 248 285 225 277 203 277 c 1
 197 284 201 293 203 295 c 0
 206 299 235 301 236 308 c 0
 236 326 239 341 239 346 c 1
 236 350 239 414 239 460 c 0
 236 466 239 462 237 464 c 1
 234 468 210 462 210 464 c 1
 206 468 209 463 209 467 c 0
 206 478 214 492 216 494 c 1
 213 498 237 492 237 494 c 1
 235 498 239 494 239 497 c 1
 236 501 239 498 239 500 c 0
 236 573 303 618 357 620 c 0
 385 624 423 615 439 600 c 1
 453 622 506 625 528 627 c 0
 556 631 572 624 580 624 c 0
 598 625 617 606 617 587 c 0x9c80
 614 571 601 548 580 550 c 0
 560 554 551 559 545 573 c 0
 537 590 530 594 510 596 c 0
 478 600 459 552 459 516 c 1
 456 520 459 494 459 496 c 1
 456 500 462 491 462 493 c 1
 459 497 566 491 566 493 c 1
 566 497 593 493 609 500 c 0
 607 504 615 499 615 501 c 0
 616 505 622 493 622 492 c 0x9c40
 617 480 617 458 617 442 c 1
 614 446 617 350 617 352 c 1
 614 340 618 319 621 307 c 0
 619 306 645 292 649 294 c 0
 649 298 652 280 650 278 c 1
 626 284 604 280 584 282 c 0
 560 286 541 278 519 278 c 1
 513 285 517 292 519 294 c 0
 522 298 547 300 548 307 c 0
 548 325 552 340 552 345 c 1
 549 349 552 416 552 418 c 1
 549 428 551 446 543 456 c 0
 532 470 528 463 514 465 c 0
 511 469 462 463 462 465 c 1
 458 469 459 462 459 462 c 0
 456 422 459 352 459 354 c 1
 456 342 460 320 463 308 c 0
 461 307 490 293 494 295 c 0x9c80
 494 299 497 279 495 277 c 1
 471 283 447 279 427 281 c 0x7c80
 403 285 380 277 358 277 c 1
 352 284 356 293 358 295 c 0x9c80
 361 299 390 301 391 308 c 0
 391 326 379 384 337 388 c 1
EndSplineSet
EndChar

StartChar: f_l
Encoding: 61699 61699 248
Width: 587
Flags: HW
HStem: -4 33<178.558 244.249 368.354 427.037> 424 79<144.475 207.548> 525 24<359.353 363.25>
VStem: 136 72<424.875 426.5 432 494.848> 217 138<425.5 427 430 498> 251 104<114.5 437.75> 252 90<404.5 455.5>
LayerCount: 2
Fore
SplineSet
251 125 m 2xf4
 251 125 252 396 252 440 c 1xf2
 252 456 250 466 242 480 c 1
 236 492 201 503 181 503 c 1
 151 503 127 462 128 426 c 1
 128 432 134 426 136 426 c 2
 136 425 158 424 159 424 c 2
 161 424 217 425 217 427 c 2xf8
 219 427 219 433 219 430 c 1
 219 498 269 541 313 534 c 1
 328 534 295 522 308 522 c 1
 322 522 338 532 340 530 c 1
 340 485 342 422 342 422 c 2xf2
 345 405 347 384 351 368 c 1
 353 362 373 340 377 312 c 1
 379 312 379 69 378 66 c 1
 358 50 330 39 314 25 c 0
 294 19 292 12 275 11 c 1
 275 13 275 18 277 15 c 1
 263 16 274 24 256 30 c 0
 238 43 225 64 205 66 c 1
 203 68 203 152 205 196 c 0
 211 198 233 203 233 209 c 1
 236 221 210 237 210 244 c 2
 209 244 208 438 208 440 c 1
 208 452 211 496 210 504 c 1
 205 514 201 543 175 543 c 1
 146 543 132 499 132 456 c 2
 132 432 l 1
 132 496 194 558 269 558 c 1
 281 558 349 549 357 549 c 1
 380 549 411 557 413 554 c 1
 413 550 412 541 408 534 c 1
 411 534 363 527 363 525 c 1
 361 525 355 502 355 472 c 2xf8
 355 142 l 1
 355 108 355 79 362 52 c 0
 365 41 416 29 424 29 c 0
 429 29 428 2 426 -4 c 1
 386 -2 342 3 304 3 c 0
 262 3 223 -2 181 -4 c 1
 176 1 176 29 181 29 c 0
 193 29 241 41 244 52 c 0
 250 78 251 115 251 125 c 2xf4
EndSplineSet
EndChar

StartChar: f_f_l
Encoding: 61700 61700 249
Width: 879
Flags: HW
HStem: 0 29<161.477 216.688> 204 4<464.111 475.75> 212 14<389.924 446.897> 342 29<198.567 233.398> 352 19<340.235 441.942> 424 134<216.369 276.298> 605 59<652.753 684.54>
VStem: 197 192<426.034 427 427.019 534.311> 234 104<60.3881 365.871> 470 18<240.378 259> 472 9<360.577 368.305 396.727 461.348>
LayerCount: 2
Fore
SplineSet
599 132 m 2xee40
 599 115 598 294 602 280 c 1
 604 280 628 298 628 306 c 0
 626 316 600 329 574 326 c 1
 523 327 479 284 459 240 c 1
 438 240 412 211 391 210 c 1
 389 212 389 226 393 226 c 1
 399 226 479 232 481 238 c 1xee20
 487 251 488 273 488 273 c 1xee40
 488 269 485 330 481 368 c 1
 481 370 429 371 427 371 c 2xee20
 425 371 339 370 339 368 c 1
 337 323 338 252 338 250 c 1
 338 188 338 112 342 98 c 1
 344 76 365 56 373 42 c 0
 377 36 403 18 406 15 c 1
 388 16 375 2 354 -1 c 1
 313 0 273 1 233 0 c 1
 211 1 183 2 162 4 c 1
 160 10 160 29 164 29 c 0
 176 29 223 41 226 52 c 0
 233 80 234 113 234 134 c 2
 234 134 234 320 234 364 c 1
 234 367 232 371 229 371 c 2xf6a0
 107 371 l 2
 104 371 102 371 102 371 c 0xeea0
 102 333 108 282 110 282 c 2
 110 266 131 252 135 238 c 1
 138 232 161 229 165 231 c 1
 167 231 168 223 167 220 c 1
 147 290 196 342 231 342 c 0xf6a0
 241 342 265 338 261 320 c 1
 277 338 301 351 349 354 c 0
 361 357 374 352 383 352 c 0
 409 352 461 364 467 370 c 0
 474 386 478 391 478 406 c 1
 478 406 472 499 472 471 c 2xeea0
 472 473 472 259 470 259 c 2
 470 242 443 228 447 214 c 1
 447 208 470 202 474 204 c 0
 476 210 480 211 482 208 c 1
 462 209 457 212 437 212 c 1
 417 212 395 211 374 211 c 1
 372 213 372 234 374 234 c 1
 380 306 460 362 508 368 c 0
 548 381 571 377 576 372 c 1
 595 398 621 605 646 605 c 1
 661 619 679 616 686 630 c 0
 696 642 704 664 686 664 c 1
 657 664 635 622 636 584 c 2
 639 584 643 558 643 556 c 1
 643 555 639 538 640 510 c 2
 695 282 l 2
 697 266 698 250 702 234 c 0
 704 224 726 205 726 198 c 1
 728 198 677 187 676 184 c 1
 654 185 638 185 619 183 c 0
 599 138 599 125 599 132 c 2xee40
356 589 m 0
 310 593 288 596 246 558 c 1
 213 558 197 498 197 454 c 2
 197 453 198 427 200 427 c 2
 200 426 286 424 287 424 c 2
 289 424 386 425 386 427 c 2
 388 427 389 431 389 433 c 1xe7
 389 443 394 500 399 521 c 0
 400 525 400 530 400 534 c 0
 400 540 398 548 396 552 c 0
 391 562 378 587 356 589 c 0
EndSplineSet
EndChar

StartChar: f_b
Encoding: 61701 61701 250
Width: 847
Flags: HW
HStem: 2 40<522.033 607.88> 372 52<37.8611 94.3735 200.413 312.336> 676 20G<268.375 342.375 494.875 499.375>
VStem: 94 103<97.1852 370.682 425.218 426.5 426.52 542.771> 389 112<60.4644 322.93> 397 104<66.3395 362.625 408.456 583.076>
LayerCount: 2
Fore
SplineSet
94 134 m 2xf4
 94 134 94 276 94 365 c 0
 94 368 92 372 89 372 c 2
 36 372 l 2
 34 372 33 374 33 378 c 0
 33 391 43 424 48 424 c 2
 89 424 l 2
 92 424 94 427 94 430 c 2
 94 439 l 1
 94 577 208 696 329 696 c 0
 356 696 387 675 408 675 c 0
 444 675 492 694 498 694 c 1
 501 694 506 688 506 686 c 1
 509 686 506 658 506 628 c 1
 506 628 501 536 501 508 c 2xf4
 501 506 501 406 504 408 c 1
 512 412 527 420 555 422 c 0
 623 428 695 404 711 335 c 0
 781 266 760 167 695 110 c 0
 652 46 612 2 520 2 c 0
 479 2 446 -1 432 -1 c 1
 424 -1 414 -8 411 -8 c 1
 407 -6 394 -2 396 4 c 1
 397 20 389 36 389 66 c 1xf8
 389 70 397 283 397 325 c 1
 397 339 396 531 390 545 c 1
 384 563 374 598 350 606 c 0
 316 616 267 604 243 566 c 1
 213 566 197 498 197 454 c 2
 197 453 199 426 200 426 c 2
 200 425 257 424 258 424 c 2
 260 424 316 423 316 420 c 1
 318 416 316 402 312 392 c 1
 312 388 259 379 255 372 c 1
 253 372 200 371 200 369 c 1
 198 324 197 260 197 258 c 1
 197 196 197 110 201 96 c 1
 203 74 229 54 237 40 c 0
 241 34 263 14 266 11 c 1
 248 12 219 3 199 0 c 1
 158 1 118 0 77 -1 c 1
 54 1 42 16 24 15 c 1
 29 16 53 27 55 35 c 0
 58 51 94 113 94 134 c 2xf4
501 317 m 2xf8
 501 100 l 2
 501 64 535 42 603 42 c 0
 671 42 697 119 697 201 c 0
 697 313 648 379 576 379 c 0
 533 379 501 356 501 317 c 2xf8
EndSplineSet
EndChar

StartChar: f_f_b
Encoding: 61702 61702 251
Width: 1141
Flags: HW
HStem: -4 26<22.7604 48.8604 237.555 268.662> 368 60<41.1677 91.8551 91.875 92.9551> 408 1<604.632 606.952> 568 119<598.641 660.817>
VStem: 94 103<90.7746 367.415 367.5 370.341> 389 106<107.228 259.703> 389 93<246.48 370.603> 546 50<323 388.514> 555 39<310.5 391>
LayerCount: 2
Fore
SplineSet
389 134 m 2xdd
 389 134 389 320 389 364 c 1
 389 367 387 371 384 371 c 2
 203 371 l 2
 199 371 197 368 197 365 c 0
 197 275 198 142 198 142 c 2
 198 108 199 79 206 52 c 0
 209 41 257 30 265 30 c 0
 270 30 270 2 268 -4 c 1
 228 -2 186 3 146 3 c 0
 104 3 67 -2 25 -4 c 1
 21 0 21 19 23 22 c 0
 29 25 55 36 57 42 c 0
 66 55 88 81 90 90 c 1
 94 106 94 187 94 249 c 1
 94 251 94 368 92 368 c 2
 92 370 65 371 63 371 c 2
 62 371 35 372 35 374 c 1
 34 380 39 402 41 404 c 1
 41 410 67 424 69 424 c 2
 71 424 92 426 92 428 c 2
 94 428 94 432 94 434 c 1
 94 502 157 560 212 560 c 1
 242 632 335 678 399 662 c 1
 453 679 501 662 553 654 c 1
 584 680 623 687 656 687 c 0
 692 687 739 684 757 684 c 0
 776 684 797 688 799 686 c 1
 799 686 795 664 795 636 c 2
 798 636 801 553 801 551 c 1
 801 549 795 526 798 501 c 1
 806 507 821 428 846 428 c 1
 906 426 950 379 953 313 c 0
 961 250 938 215 889 215 c 0
 916 215 954 175 925 118 c 0
 916 54 855 -8 789 -8 c 1
 757 -8 733 -1 723 -1 c 1
 711 1 693 -2 691 4 c 1
 695 20 695 34 695 60 c 1
 692 60 684 255 684 260 c 0
 684 278 691 307 685 362 c 1
 679 374 670 568 650 568 c 1
 621 578 595 557 593 527 c 1
 588 537 564 545 538 545 c 1
 508 544 493 496 494 452 c 2
 550 426 l 2
 552 425 554 423 555 420 c 1
 555 416 608 401 604 394 c 1
 606 394 555 394 555 391 c 1xda80
 553 387 550 376 546 368 c 1
 546 323 495 260 495 260 c 2
 493 243 491 227 495 212 c 0
 497 162 524 84 528 84 c 1
 530 68 531 37 533 21 c 1
 514 17 508 15 492 15 c 0
 474 15 447 0 425 -4 c 1
 403 0 390 18 372 18 c 0
 358 18 371 24 352 28 c 1
 354 42 389 113 389 134 c 2xdd
617 433 m 1
 614 437 602 378 560 378 c 1
 527 362 520 305 554 261 c 1
 584 261 594 269 594 310 c 1
 594 359 579 398 555 398 c 1
 529 398 617 453 617 433 c 1
535 473 m 1
 493 473 481 319 482 281 c 2
 482 261 507 235 541 235 c 1
 580 234 594 278 596 318 c 1
 596 380 648 406 602 406 c 1
 586 406 651 406 605 408 c 1
 588 408 651 409 605 409 c 0xbb
 588 419 654 440 609 448 c 0
 592 450 655 452 609 454 c 0
 592 458 653 470 605 472 c 0
 583 480 556 490 535 473 c 1
EndSplineSet
EndChar

StartChar: f_k
Encoding: 61703 61703 252
Width: 856
Flags: HW
HStem: -3 21G<398.625 420.625> 18 20<361.875 367.875> 208 22<214.222 239.515> 430 92<432.562 490.813> 594 70<389.754 419.49>
VStem: 249 6<271.949 282.5>
LayerCount: 2
Fore
SplineSet
454 259 m 1x7c
 450 239 408 195 384 153 c 1
 423 107 486 54 504 44 c 1
 516 36 542 13 545 10 c 1
 526 11 499 10 479 6 c 0
 458 4 432 -1 410 -3 c 1xbc
 388 1 371 18 355 18 c 0
 341 18 355 24 336 28 c 1
 336 44 337 76 339 80 c 1
 345 80 357 153 357 201 c 0
 357 203 356 206 354 206 c 2
 255 285 l 1
 254 285 247 284 247 286 c 1
 247 292 253 282 255 282 c 1
 255 266 275 252 279 238 c 1
 282 232 308 229 312 231 c 1
 314 231 314 221 313 218 c 1
 293 284 340 349 395 349 c 0
 387 349 385 339 373 338 c 1
 391 340 420 360 427 360 c 0
 436 360 462 359 464 362 c 1
 467 374 462 367 462 346 c 2
 462 380 l 1
 466 386 474 414 474 426 c 0
 514 476 503 512 477 522 c 0
 447 532 411 482 408 440 c 1
 406 444 407 431 409 432 c 1
 409 431 447 430 469 430 c 1
 487 430 554 429 576 430 c 1
 582 428 581 411 579 408 c 0
 565 404 548 387 538 377 c 1
 528 371 446 350 418 322 c 1
 454 282 498 224 512 212 c 1
 522 158 541 84 545 84 c 1
 547 68 547 47 551 30 c 0
 553 22 574 13 578 12 c 1
 560 13 537 3 517 0 c 1
 477 1 437 0 397 -1 c 1
 374 1 362 16 344 15 c 1
 348 16 360 23 360 29 c 0
 360 33 362 38 362 38 c 1
 368 38 316 125 318 131 c 1
 322 147 317 156 317 174 c 1
 317 174 317 213 317 257 c 1
 317 241 316 229 318 215 c 1
 320 209 319 202 323 202 c 1
 325 202 324 188 323 187 c 1
 303 195 279 212 262 212 c 1
 241 212 235 209 214 208 c 1
 213 210 214 228 216 230 c 1
 222 230 247 242 249 248 c 1
 252 334 305 410 352 414 c 1
 367 414 386 594 399 594 c 1
 415 608 431 627 427 641 c 1
 421 653 413 664 393 664 c 1
 367 664 346 616 348 576 c 1
 348 576 343 540 343 512 c 2
 343 511 344 335 345 335 c 1
 349 336 409 336 413 340 c 1
 459 378 478 387 478 394 c 0
 478 400 455 381 449 378 c 1
 447 382 396 389 398 390 c 1
 396 390 435 389 435 387 c 1
 453 342 460 263 454 259 c 1x7c
EndSplineSet
EndChar

StartChar: f_f_k
Encoding: 61704 61704 253
Width: 1150
Flags: HW
HStem: -4 21G<119.625 141.875> 106 12<858.877 862.375> 371 56<494.913 606.836> 550 8<233.459 250.213>
VStem: 64 136<109.177 205.637 217.702 252.5 252.584 259.703> 71 126<431 488.969> 87 114<197.171 251.684> 386 106<97.1852 252.5 425.809 426.5 426.52 427 427.003 534.311> 848 28<498 533>
LayerCount: 2
Fore
SplineSet
692 316 m 2xf580
 692 330 691 530 685 544 c 1
 679 562 668 598 644 606 c 0
 610 616 561 604 537 566 c 1
 507 566 492 498 492 454 c 2
 492 453 493 427 494 427 c 2
 494 426 551 424 552 424 c 2
 554 424 610 423 610 420 c 1
 612 416 611 401 607 391 c 1
 607 387 553 378 549 371 c 1
 547 371 495 370 495 368 c 1
 493 323 492 260 492 258 c 1
 492 196 492 110 496 96 c 1
 498 74 524 54 532 40 c 0
 536 34 558 14 561 11 c 1
 543 12 514 3 494 0 c 1
 453 1 413 0 372 -1 c 1
 349 1 337 16 319 15 c 1
 324 16 348 27 350 35 c 0
 353 51 354 76 355 80 c 1
 361 80 382 154 384 204 c 0
 388 221 387 234 386 252 c 1
 301 368 l 2
 299 370 298 370 296 368 c 1
 296 323 201 260 201 260 c 2
 199 243 197 227 201 212 c 0
 203 162 229 84 233 84 c 1
 235 68 236 37 238 21 c 1
 219 17 214 15 198 15 c 0
 180 15 153 0 131 -4 c 1
 109 0 95 17 77 17 c 0
 63 17 76 24 57 28 c 1
 59 42 59 66 59 72 c 1
 59 75 60 150 61 194 c 0
 67 196 87 202 87 208 c 1xf380
 91 224 65 234 65 252 c 1
 64 252 64 368 64 370 c 1
 64 378 68 401 69 401 c 2
 63 401 l 2
 63 401 64 403 64 407 c 1xf980
 64 413 69 431 71 431 c 1
 71 499 155 550 210 550 c 1
 242 550 278 549 294 534 c 1
 311 551 336 567 384 567 c 1
 396 639 467 680 522 680 c 0
 580 680 630 662 640 654 c 1
 662 680 691 688 717 686 c 1
 732 686 746 652 758 624 c 1
 774 624 791 476 793 476 c 1
 797 477 808 479 812 483 c 1
 860 521 876 525 876 533 c 1
 876 543 851 524 848 498 c 1
 846 502 847 340 849 341 c 1
 853 342 894 341 919 345 c 0
 981 383 1011 393 1033 404 c 1
 1037 412 1015 391 1011 395 c 1
 995 399 980 397 976 395 c 1
 966 389 975 368 947 340 c 1
 1002 300 1063 245 1099 236 c 1
 1113 225 1128 209 1130 209 c 0
 1123 209 1104 198 1098 191 c 0
 1094 185 1052 152 1024 122 c 1
 1042 82 1055 38 1049 28 c 1
 1039 20 1039 11 1023 10 c 1
 1022 12 1023 24 1025 20 c 0
 1031 18 1042 20 1042 22 c 1
 1022 24 1007 26 987 26 c 1
 967 26 882 107 862 106 c 1
 860 108 855 118 857 118 c 1
 863 118 875 89 875 93 c 1
 875 77 875 62 878 49 c 1
 880 43 832 116 836 116 c 1
 838 116 832 99 831 96 c 1
 811 97 783 70 763 70 c 1
 743 54 716 35 698 21 c 1
 697 18 722 30 728 30 c 0
 736 30 762 26 762 28 c 1
 745 42 731 64 712 68 c 1
 692 68 692 309 692 316 c 2xf580
356 589 m 0
 311 593 288 596 246 558 c 1
 213 558 197 498 197 454 c 2xf580
 197 453 198 427 200 427 c 2xf980
 200 426 286 424 287 424 c 2
 289 424 386 425 386 427 c 2
 388 427 389 431 389 433 c 1
 389 443 394 500 398 521 c 0
 399 525 400 530 400 534 c 0
 400 540 397 548 395 552 c 0
 390 562 378 587 356 589 c 0
EndSplineSet
EndChar

StartChar: f_h
Encoding: 61705 61705 254
Width: 853
Flags: HW
HStem: -4 26<22.3567 50.0731 233.966 265.662> 21 63<525.136 533.684 638.074 656.812 800.388 813.112> 344 66<530.083 588.901> 372 52<39.8935 90.8551 196.377 313.38> 645 42<295.099 348.769>
VStem: 93 104<90.7753 371.355 424.689 427.5 427.503 498.259> 396 109<385.5 489.424 489.5 598.982>
LayerCount: 2
Fore
SplineSet
396 124 m 2x8e
 396 506 l 2
 396 528 394 563 384 584 c 0
 374 607 339 645 293 645 c 0
 233 645 195 557 196 475 c 2
 197 429 l 2
 197 427 199 424 201 424 c 2
 312 424 l 2
 317 424 317 423 317 417 c 0
 317 408 312 386 305 372 c 1
 202 372 l 2
 199 372 197 369 197 366 c 0
 197 276 197 142 197 142 c 2
 197 108 197 79 204 52 c 0
 207 41 254 28 262 28 c 0
 267 28 267 2 265 -4 c 1
 225 -2 186 3 146 3 c 0
 104 3 67 -2 25 -4 c 1
 21 0 21 19 23 22 c 0
 29 25 55 35 57 41 c 0
 66 54 86 81 88 90 c 1
 92 106 93 188 93 250 c 1
 93 252 93 324 91 368 c 1
 91 370 64 372 62 372 c 2x9e
 61 372 34 373 34 375 c 1
 33 381 38 402 40 404 c 1
 40 410 66 424 68 424 c 2
 70 424 91 426 91 428 c 2
 93 428 93 430 93 432 c 1
 93 497 154 567 228 567 c 1
 240 639 305 687 360 687 c 0
 396 687 444 684 462 684 c 0
 481 684 501 688 503 686 c 1
 503 686 499 664 499 636 c 2
 502 636 505 539 505 537 c 1
 505 535 500 518 502 490 c 1
 503 490 504 385 505 386 c 1
 513 394 540 410 566 410 c 1
 608 409 644 379 644 335 c 1
 654 345 679 294 707 294 c 1
 768 277 777 202 781 154 c 1
 783 148 808 84 812 84 c 1
 814 68 815 37 817 21 c 1x6e
 798 17 795 15 779 15 c 0
 761 15 736 0 714 -4 c 1x8e
 692 0 676 18 660 18 c 0
 646 18 655 24 636 28 c 1
 636 44 638 76 640 80 c 1
 646 80 668 129 670 135 c 1
 673 201 665 237 635 244 c 1
 617 244 603 286 598 278 c 1
 596 329 578 346 548 344 c 1
 527 344 505 240 503 238 c 1
 502 220 499 203 503 188 c 1
 505 182 529 84 533 84 c 1
 535 68 535 37 537 21 c 1x6e
 518 17 517 15 501 15 c 0
 483 15 456 0 434 -4 c 1
 412 0 396 18 380 18 c 0
 366 18 377 24 358 28 c 1
 358 44 396 114 396 124 c 2x8e
EndSplineSet
EndChar

StartChar: f_f_h
Encoding: 61706 61706 255
Width: 1148
Flags: HW
HStem: -4 26<162.26 188.36 377.055 408.162> 186 42<643.502 721.885> 210 18<707.636 729.755> 346 24<230.875 231.355 231.375 232.875 337.088 350.875 381.375 430.339> 360 10<420.194 472.251> 424 134<216.369 276.288>
VStem: 105 4<375.405 398> 137 28<236.916 282.617> 197 192<426.034 427 427.019 534.311> 234 103<90.7746 319.786> 637 12<238.135 269.439> 797 30<256.195 259.5 344.5 352.934> 827 138<50.4931 141.946 142 195.787>
LayerCount: 2
Fore
SplineSet
827 124 m 2x8f28
 827 370 l 2
 827 437 807 466 771 480 c 0
 745 492 713 483 691 481 c 0
 661 480 636 437 637 397 c 2
 637 284 l 2
 637 266 639 252 643 238 c 1
 645 232 725 228 729 228 c 1
 734 228 734 216 733 210 c 1xaf28
 713 206 695 193 673 186 c 1
 653 186 587 185 567 184 c 1
 563 186 562 197 564 195 c 0
 570 150 593 92 595 98 c 1
 598 94 598 92 602 86 c 1
 604 80 630 266 634 266 c 1
 636 274 633 284 629 288 c 1
 604 300 550 330 505 330 c 0
 453 330 412 282 391 236 c 1
 389 238 389 228 391 228 c 1
 397 227 424 232 426 238 c 1
 429 251 485 272 485 276 c 2
 487 276 487 346 487 388 c 0
 487 385 484 377 479 370 c 1xcf28
 342 370 l 2x9728
 338 370 337 368 337 365 c 0
 337 275 338 142 338 142 c 2
 338 108 338 79 345 52 c 0
 348 41 397 30 405 30 c 0
 410 30 409 2 407 -4 c 1
 367 -2 325 3 285 3 c 0
 243 3 206 -2 164 -4 c 1
 160 0 160 19 162 22 c 0
 168 25 195 36 197 42 c 0
 206 55 227 81 229 90 c 1
 233 106 234 187 234 249 c 1
 234 251 233 368 231 368 c 2
 231 370 204 370 202 370 c 2x8f68
 201 370 105 372 105 374 c 1
 103 380 107 400 109 398 c 1
 109 353 131 282 131 282 c 2
 133 266 133 253 137 241 c 1
 139 235 161 234 165 234 c 0
 167 302 231 342 285 340 c 1
 295 341 317 338 313 322 c 1
 309 339 324 347 351 346 c 1x9768
 362 347 373 342 381 345 c 0
 401 348 432 360 438 360 c 0
 447 360 471 359 473 362 c 1
 477 378 472 366 472 356 c 1
 472 380 l 2
 472 380 l 1
 473 380 448 382 449 383 c 1
 457 391 481 410 507 412 c 1
 549 418 590 404 592 360 c 2
 612 284 l 2
 614 267 614 254 618 242 c 1
 620 236 645 236 649 236 c 1
 651 308 710 341 756 338 c 1
 772 339 765 316 751 308 c 1
 749 334 751 347 755 346 c 1
 767 348 787 352 802 352 c 0
 824 352 864 370 867 376 c 1
 870 389 872 410 872 414 c 2
 875 414 878 453 878 451 c 1
 878 504 864 509 834 481 c 1
 816 481 802 360 797 352 c 1
 795 350 796 346 796 344 c 1
 797 343 797 260 797 260 c 1x8f70
 807 252 833 262 864 248 c 0
 926 242 959 177 963 142 c 1
 965 142 966 68 965 65 c 1
 945 49 918 39 902 25 c 0
 882 19 880 12 863 11 c 1
 863 13 863 18 865 15 c 1
 851 16 862 24 844 30 c 0
 826 43 827 114 827 124 c 2x8f28
356 589 m 0
 311 593 288 596 246 558 c 1
 213 558 197 498 197 454 c 2
 197 453 198 427 200 427 c 2
 200 426 286 424 287 424 c 2
 289 424 386 425 386 427 c 2
 388 427 389 431 389 433 c 1x87a0
 389 443 394 500 398 521 c 0
 399 525 400 530 400 534 c 0
 400 540 397 548 395 552 c 0
 390 562 378 587 356 589 c 0
EndSplineSet
EndChar

StartChar: f_j
Encoding: 61707 61707 256
Width: 557
Flags: HW
HStem: -4 30<22.5391 75.0156 212.156 261.369> 372 52<35.4861 91.9985 195.04 197.5 197.541 373.489> 418 20G<472.25 482.25> 676 20G<266 357>
VStem: 92 103<39.682 371.997 425.218 426.5 426.516 531.297> 385 104<-8.76877 361.288>
LayerCount: 2
Fore
SplineSet
385 294 m 2xbc
 385 304 384 339 370 355 c 0
 358 371 324 372 304 372 c 1
 201 372 l 2
 198 372 195 369 195 366 c 0
 195 276 196 140 196 140 c 2
 196 106 197 78 204 50 c 0
 207 39 250 26 258 26 c 0
 263 26 262 2 260 -4 c 1
 220 -2 184 3 144 3 c 0
 102 3 68 -2 26 -4 c 1
 24 -2 22 7 22 14 c 1
 22 21 24 26 26 26 c 0
 38 26 81 39 84 50 c 0
 91 78 92 112 92 133 c 2
 92 133 92 276 92 365 c 0
 92 368 90 372 87 372 c 2
 34 372 l 2
 32 372 31 374 31 378 c 0
 31 391 41 424 46 424 c 2
 87 424 l 2
 90 424 92 427 92 430 c 2
 92 439 l 1
 92 577 205 696 326 696 c 0
 387 696 442 674 450 651 c 0
 471 633 478 610 464 590 c 0
 456 570 430 557 406 564 c 0
 382 576 358 609 327 622 c 0
 291 634 266 598 246 554 c 1
 217 554 193 488 194 450 c 2
 194 449 197 426 198 426 c 2
 198 425 255 424 256 424 c 2xdc
 278 424 417 425 435 431 c 1
 438 431 464 432 480 438 c 0
 484 438 489 430 489 428 c 0
 491 412 494 404 494 384 c 1
 492 368 489 215 489 197 c 2
 489 179 487 28 469 0 c 1
 451 -70 414 -132 378 -166 c 1
 358 -192 303 -219 288 -217 c 1
 284 -214 279 -208 279 -202 c 0
 280 -198 334 -184 334 -70 c 1
 336 -69 385 -164 385 72 c 2
 385 294 l 2xbc
EndSplineSet
EndChar

StartChar: f_f_j
Encoding: 61708 61708 257
Width: 853
Flags: HW
HStem: -4 26<22.7604 48.8604 237.555 268.662 317.26 343.36 532.055 563.162> 371 54<40.8935 91.8551 91.875 92.8984 200.891 388.423 491.877 670.661> 420 20G<783.375 787.375> 522 38<207.375 220.624> 645 48<586.099 643.244>
VStem: 94 103<90.7746 367.415 367.5 370.341 447 501.431> 389 103<70.0933 370.954 430.231 536.565> 668 116<566.068 619.845> 682 104<-61.8742 361.086>
LayerCount: 2
Fore
SplineSet
389 134 m 2xbe80
 389 134 389 320 389 364 c 1
 389 367 387 371 384 371 c 2
 203 371 l 2
 200 371 197 368 197 365 c 0
 197 275 198 142 198 142 c 2
 198 108 199 79 206 52 c 0
 209 41 257 30 265 30 c 0
 270 30 270 2 268 -4 c 1
 228 -2 186 3 146 3 c 0
 104 3 67 -2 25 -4 c 1
 21 0 21 19 23 22 c 0
 29 25 55 36 57 42 c 0
 66 55 88 81 90 90 c 1
 94 106 94 187 94 249 c 1
 94 251 94 368 92 368 c 2
 92 370 65 371 63 371 c 2
 62 371 35 372 35 374 c 1
 34 380 39 402 41 404 c 1
 41 410 67 425 69 425 c 2
 71 425 92 426 92 428 c 2
 94 428 94 432 94 434 c 1
 94 502 157 560 212 560 c 1
 242 632 335 678 399 662 c 1
 453 679 525 662 552 654 c 1
 602 680 641 695 674 693 c 0
 726 689 784 656 784 614 c 0
 784 580 758 554 724 554 c 0
 698 554 678 568 668 588 c 0xdf
 656 612 635 645 589 645 c 0
 529 645 487 557 491 475 c 1
 492 429 l 2
 492 427 495 424 497 424 c 2
 657 424 l 2
 681 424 741 425 775 437 c 0
 776 437 783 440 784 440 c 0
 791 440 793 425 793 420 c 0
 789 388 786 368 786 334 c 2
 786 94 l 2
 786 34 777 -56 742 -111 c 0
 707 -167 622 -217 590 -224 c 1
 584 -220 577 -213 576 -205 c 0
 576 -203 575 -197 576 -196 c 0
 579 -192 682 -164 682 72 c 2
 682 294 l 2
 682 304 681 339 667 355 c 0
 655 371 621 372 601 372 c 1
 498 372 l 2
 495 372 492 370 492 366 c 0
 492 276 493 142 493 142 c 2
 493 108 493 79 500 52 c 0
 503 41 552 30 560 30 c 0
 565 30 564 2 562 -4 c 1
 522 -2 480 3 440 3 c 0
 398 3 361 -2 319 -4 c 1
 315 0 315 19 317 22 c 0
 323 25 350 36 352 42 c 0
 361 55 389 113 389 134 c 2xbe80
398 537 m 0
 395 543 383 583 341 585 c 0
 308 589 289 560 287 518 c 1
 282 526 271 522 250 522 c 1
 208 521 197 485 199 447 c 2
 296 426 l 2
 298 425 300 426 301 428 c 2
 386 430 l 2
 388 446 391 466 395 481 c 1
 396 483 396 487 396 489 c 0
 396 501 398 528 398 537 c 0
EndSplineSet
EndChar

StartChar: T_h
Encoding: 61709 61709 258
Width: 1071
Flags: HW
HStem: -1 1<746.5 748.085> 14 3<732.753 778.815> 252 88<744.207 778.311> 301 45<581.108 592.873> 642 2<87.1975 94.4242>
VStem: 536 18<211.927 252.5 252.632 294.167> 795 30<64.3333 331.891>
LayerCount: 2
Fore
SplineSet
375 396 m 1xde
 331 396 253 577 209 577 c 1
 173 597 165 631 152 638 c 0
 146 642 134 645 92 644 c 1
 54 644 33 545 23 508 c 1
 24 504 30 502 32 502 c 0
 30 502 27 504 26 508 c 1
 31 540 62 642 88 642 c 1
 96 640 163 636 170 636 c 1
 214 636 239 400 279 400 c 1
 319 378 353 363 385 356 c 0
 411 352 429 364 425 364 c 1
 423 360 424 348 426 345 c 1
 448 347 482 342 504 340 c 1
 525 340 550 324 570 294 c 1
 572 297 572 201 570 205 c 1
 564 205 540 206 538 212 c 0
 535 221 536 236 536 258 c 1
 546 268 571 526 599 526 c 1
 660 526 742 467 742 432 c 1
 756 432 782 372 784 366 c 1
 788 341 788 320 792 298 c 1
 794 292 818 86 822 86 c 1
 824 64 824 37 819 24 c 1
 797 18 760 17 734 17 c 1
 711 13 697 0 679 -4 c 1
 696 0 724 14 748 14 c 0
 775 14 822 17 843 21 c 1
 848 37 848 64 846 74 c 1
 840 74 820 133 818 139 c 1
 814 202 795 240 765 258 c 1
 744 258 722 320 720 318 c 1
 719 327 741 344 761 342 c 1
 787 342 795 216 795 180 c 2
 795 164 794 110 798 96 c 1
 800 69 824 48 824 38 c 0
 824 32 808 19 800 15 c 1
 778 13 763 2 746 -1 c 1
 745 1 754 1 754 0 c 1
 772 2 801 13 823 11 c 1
 831 14 854 31 853 40 c 1
 849 53 827 69 825 83 c 1
 821 93 821 316 821 338 c 2
 821 370 802 412 764 412 c 1
 724 491 690 527 632 523 c 0
 605 509 572 471 558 436 c 1
 557 435 555 252 554 252 c 1xee
 554 234 554 221 558 209 c 0
 560 203 586 301 590 301 c 0
 592 321 598 347 598 344 c 1
 598 344 593 347 589 346 c 1
 567 347 467 387 375 396 c 1xde
EndSplineSet
EndChar

StartChar: zero.onum
Encoding: 63280 63280 259
Width: 537
Flags: HW
LayerCount: 2
Fore
SplineSet
256 210 m 0
 270 210 278 217 278 223 c 0
 278 231 270 232 258 232 c 0
 244 232 236 226 236 220 c 0
 236 212 244 210 256 210 c 0
257 450 m 0
 384 450 485 348 485 222 c 0
 485 96 386 -7 258 -7 c 0
 130 -7 29 96 29 222 c 0
 29 349 129 450 257 450 c 0
EndSplineSet
EndChar

StartChar: one.onum
Encoding: 63281 63281 260
Width: 302
Flags: HW
HStem: 31 18<191.164 200.889> 182 12<42.0184 45.1406>
VStem: 31 241
LayerCount: 2
Fore
SplineSet
171 396 m 1
 191 398 215 285 236 288 c 1
 238 274 241 254 243 240 c 0
 245 232 269 226 272 226 c 0
 268 226 246 211 245 203 c 0
 243 187 242 160 242 155 c 1
 222 156 207 76 188 76 c 1
 167 59 155 43 138 28 c 1
 137 25 160 30 166 30 c 0
 174 30 197 29 199 31 c 0
 202 37 201 43 201 49 c 1
 181 50 156 169 136 169 c 1
 115 173 90 183 60 182 c 1
 51 184 29 194 31 194 c 0
 34 194 55 213 58 223 c 1
 89 244 121 279 139 288 c 1
 142 370 l 1
 145 387 144 390 139 402 c 0
 134 395 125 414 120 412 c 0
 114 396 110 414 110 412 c 0
 106 396 107 422 107 424 c 0
 105 410 108 430 108 430 c 1
 126 415 151 411 171 396 c 1
EndSplineSet
EndChar

StartChar: two.onum
Encoding: 63282 63282 261
Width: 451
Flags: HW
HStem: 0 86<162.362 354.705> 380 77<147.544 233.435>
VStem: 255 110<268.741 359.819> 375 34<115.412 158.453>
LayerCount: 2
Fore
SplineSet
228 457 m 0
 310 457 365 401 365 335 c 0
 365 289 330 246 300 216 c 1
 269 189 188 118 162 98 c 1
 159 95 161 86 166 86 c 2
 294 86 l 2
 353 86 357 111 375 150 c 0
 377 155 382 159 388 159 c 0
 392 159 405 156 409 151 c 1
 398 100 383 52 374 -0 c 1
 228 0 l 1
 228 0 37 0 33 0 c 1
 26 2 25 12 25 20 c 1
 137 128 255 236 255 308 c 0
 255 340 234 380 176 380 c 0
 109 380 74 322 54 304 c 1
 47 303 42 313 40 317 c 1
 38 321 36 328 36 330 c 0
 46 350 126 457 228 457 c 0
EndSplineSet
EndChar

StartChar: three.onum
Encoding: 63283 63283 262
Width: 430
Flags: HW
HStem: -186 50<77.75 195.558> 390 68<151.502 260>
VStem: 248 96<278.241 373.669> 276 112<-23.6765 98.6732>
LayerCount: 2
Fore
SplineSet
238 458 m 0xe0
 283 458 344 426 344 354 c 0xe0
 344 290 291 227 246 194 c 1
 290 192 388 149 388 54 c 0
 388 -78 211 -186 91 -186 c 0
 65 -186 46 -180 30 -174 c 1
 26 -166 22 -154 22 -146 c 0
 22 -124 46 -101 66 -101 c 0
 103 -101 104 -136 146 -136 c 0
 218 -136 276 -65 276 23 c 0xd0
 276 87 238 138 178 138 c 0
 156 138 134 133 116 127 c 1
 109 129 107 139 107 147 c 0
 107 151 108 163 110 168 c 1
 176 191 248 242 248 319 c 0
 248 364 218 390 185 390 c 0
 136 390 107 352 93 340 c 0
 90 338 88 336 86 336 c 0
 80 336 73 349 73 356 c 1
 73 358 73 360 74 362 c 0
 109 413 162 458 238 458 c 0xe0
EndSplineSet
EndChar

StartChar: four.onum
Encoding: 63284 63284 263
Width: 499
Flags: HW
HStem: 6 65<108.502 284.45 386.002 453.063>
VStem: 284 102<-184.404 5.49998 71.0476 297.996>
LayerCount: 2
Fore
SplineSet
333 -187 m 0
 303 -187 284 -181 284 -172 c 2
 284 0 l 1
 283 5 279 6 276 6 c 2
 37 6 l 1
 29 13 22 26 22 44 c 1
 82 116 293 380 346 446 c 1
 352 454 362 459 370 459 c 0
 376 459 386 455 386 449 c 2
 386 79 l 2
 386 74 389 72 395 71 c 1
 438 71 l 2
 450 71 454 58 454 20 c 0
 454 14 449 8 447 6 c 1
 392 6 l 2
 388 6 386 3 386 -2 c 2
 386 -178 l 1
 386 -178 371 -187 333 -187 c 0
284 78 m 1
 286 289 l 2
 286 292 282 298 280 298 c 1
 280 298 281 297 280 296 c 2
 110 83 l 2
 109 82 108 81 108 80 c 0
 108 76 112 71 116 71 c 2
 276 70 l 1
 279 71 283 72 284 78 c 1
EndSplineSet
EndChar

StartChar: five.onum
Encoding: 63285 63285 264
Width: 381
Flags: HW
HStem: 246 2<82.3634 88.255>
VStem: 164 38<202.444 236.54>
LayerCount: 2
Fore
SplineSet
184 147 m 1
 186 146 189 143 191 134 c 0
 227 126 293 138 289 198 c 1
 222 237 159 265 97 279 c 0
 89 279 86 280 86 282 c 1
 86 284 92 323 100 363 c 1
 100 362 106 363 112 362 c 0
 204 351 294 302 312 254 c 1
 314 162 238 125 154 116 c 1
 153 110 150 105 146 103 c 1
 96 105 80 107 76 107 c 0
 103 107 164 132 164 194 c 1
 164 252 123 242 82 248 c 1
 79 246 82 243 84 246 c 0
 134 232 202 316 202 264 c 0
 202 192 127 134 63 134 c 1
 97 136 166 139 184 147 c 1
EndSplineSet
EndChar

StartChar: six.onum
Encoding: 63286 63286 265
Width: 473
Flags: HW
HStem: -6 46<181.514 282.8> 332 49<179.666 277.892>
VStem: 28 112<110.466 302.198> 313 112<100.43 285.477>
LayerCount: 2
Fore
SplineSet
254 381 m 0
 360 381 425 288 425 190 c 0
 425 83 336 -6 230 -6 c 0
 126 -6 28 84 28 204 c 0
 28 415 231 567 383 637 c 1
 395 634 402 617 402 606 c 1
 305 558 215 468 171 352 c 1
 191 366 222 381 254 381 c 0
226 332 m 0
 186 332 162 308 154 299 c 1
 146 265 140 230 140 192 c 0
 140 102 173 40 236 40 c 0
 275 40 313 76 313 176 c 0
 313 261 291 332 226 332 c 0
EndSplineSet
EndChar

StartChar: seven.onum
Encoding: 63287 63287 266
Width: 489
Flags: HW
HStem: 358 88<85.0672 356>
VStem: 28 32<286.742 320.355>
LayerCount: 2
Fore
SplineSet
372 446 m 2
 398 446 432 449 438 449 c 0
 444 449 444 445 444 440 c 0
 444 427 436 405 418 373 c 2
 118 -186 l 1
 115 -187 112 -187 110 -187 c 0
 94 -187 81 -171 81 -158 c 0
 81 -155 81 -151 83 -148 c 2
 356 358 l 1
 314 358 166 358 127 358 c 1
 84 358 67 305 60 285 c 1
 52 284 36 283 28 291 c 1
 34 337 49 396 53 434 c 0
 54 442 63 446 72 446 c 2
 372 446 l 2
EndSplineSet
EndChar

StartChar: eight.onum
Encoding: 63288 63288 267
Width: 457
Flags: HW
HStem: 146 191<150.5 255> 310 20<145 157.5>
VStem: 148 147<423.815 560.52>
LayerCount: 2
Fore
SplineSet
104 316 m 1xa0
 104 330 151 337 220 337 c 1
 286 337 338 328 338 306 c 1
 338 306 280 306 238 302 c 1
 234 304 230 303 230 302 c 0
 260 280 287 256 286 220 c 0
 276 166 104 306 104 316 c 1xa0
148 487 m 1
 148 425 195 397 235 371 c 0
 237 369 241 368 244 368 c 0
 247 368 250 369 252 371 c 0
 288 399 295 437 295 483 c 1
 295 541 270 585 222 585 c 1
 174 585 148 545 148 487 c 1
75 321 m 1
 75 325 144 330 216 330 c 1x60
 298 330 366 325 366 317 c 1
 366 321 276 324 252 318 c 0
 250 318 246 316 246 316 c 0
 258 306 308 275 308 234 c 1
 280 166 254 146 200 146 c 1xa0
 120 132 100 168 100 228 c 1
 72 262 142 298 158 306 c 0
 130 293 160 309 158 310 c 0x60
 112 312 75 309 75 321 c 1
EndSplineSet
EndChar

StartChar: nine.onum
Encoding: 63289 63289 268
Width: 474
Flags: HW
HStem: 70 49<175.608 273.834> 410 46<170.7 271.986>
VStem: 28 112<165.023 350.07> 312 112<148.302 340.034>
LayerCount: 2
Fore
SplineSet
223 456 m 0
 327 456 424 367 424 247 c 0
 424 36 222 -116 70 -186 c 1
 59 -182 51 -167 51 -156 c 1
 148 -108 238 -18 282 98 c 1
 262 84 231 70 199 70 c 0
 93 70 28 162 28 260 c 0
 28 367 117 456 223 456 c 0
217 410 m 0
 178 410 140 375 140 275 c 0
 140 190 162 119 227 119 c 0
 267 119 292 143 300 152 c 1
 308 186 312 221 312 259 c 0
 312 349 280 410 217 410 c 0
EndSplineSet
EndChar

StartChar: uni0304
Encoding: 772 772 269
Width: 415
Flags: HW
HStem: 558 44<70.2435 319.866>
VStem: 69 253<558.423 602>
LayerCount: 2
Fore
SplineSet
69 567 m 0
 69 581 74 602 81 602 c 2
 316 602 l 2
 318 602 322 601 322 594 c 0
 322 578 314 567 312 558 c 1
 304 558 73 558 73 558 c 1
 73 558 69 561 69 567 c 0
EndSplineSet
EndChar

StartChar: gravecomb.cap
Encoding: 63632 63632 270
Width: 245
Flags: HW
HStem: 726 137
VStem: 27 192
LayerCount: 2
Fore
SplineSet
219 743 m 0
 219 735 212 726 206 726 c 0
 190 726 27 794 27 830 c 0
 27 850 53 863 81 863 c 0
 89 863 95 862 99 860 c 0
 139 830 219 751 219 743 c 0
EndSplineSet
EndChar

StartChar: acutecomb.cap
Encoding: 63633 63633 271
Width: 245
Flags: HW
HStem: 726 137
VStem: 27 192
LayerCount: 2
Fore
SplineSet
27 743 m 0
 27 751 106 830 146 860 c 0
 150 862 156 863 164 863 c 0
 192 863 219 850 219 830 c 0
 219 794 55 726 39 726 c 0
 33 726 27 735 27 743 c 0
EndSplineSet
EndChar

StartChar: uni0302.cap
Encoding: 63634 63634 272
Width: 305
Flags: HW
HStem: 715 136
VStem: 34 244
LayerCount: 2
Fore
SplineSet
268 715 m 0
 256 715 187 755 156 775 c 1
 125 753 56 715 44 715 c 0
 37 715 34 728 34 734 c 1
 42 742 65 759 101 795 c 0
 121 814 134 828 144 842 c 0
 149 848 151 851 155 851 c 0
 159 851 164 847 168 842 c 0
 180 828 190 814 208 796 c 0
 246 758 274 738 278 734 c 1
 278 726 274 715 268 715 c 0
EndSplineSet
EndChar

StartChar: uni030A.cap
Encoding: 63635 63635 273
Width: 381
Flags: HW
HStem: 581 40<139.235 220.336> 730 39<139.235 220.336>
VStem: 86 40<634.351 716.41> 234 39<633.925 716.83>
LayerCount: 2
Fore
SplineSet
126 676 m 0
 126 646 150 621 180 621 c 0
 210 621 234 646 234 676 c 0
 234 706 210 730 180 730 c 0
 150 730 126 706 126 676 c 0
86 676 m 0
 86 728 129 769 180 769 c 0
 231 769 273 728 273 676 c 0
 273 624 231 581 180 581 c 0
 129 581 86 624 86 676 c 0
EndSplineSet
EndChar

StartChar: uni030A
Encoding: 778 778 274
Width: 362
Flags: HW
HStem: 506 40<134.235 215.145> 655 39<134.235 215.145>
VStem: 81 40<559.351 641.41> 228 39<557.901 642.845>
LayerCount: 2
Fore
SplineSet
121 600 m 0
 121 570 145 546 175 546 c 0
 205 546 228 570 228 600 c 0
 228 630 205 655 175 655 c 0
 145 655 121 630 121 600 c 0
81 600 m 0
 81 652 124 694 175 694 c 0
 226 694 267 652 267 600 c 0
 267 548 226 506 175 506 c 0
 124 506 81 548 81 600 c 0
EndSplineSet
EndChar

StartChar: tildecomb.cap
Encoding: 63636 63636 275
Width: 675
Flags: HW
HStem: 731 52<304.075 410.858> 785 51<154.022 261.005>
VStem: 118 331
LayerCount: 2
Fore
SplineSet
215 836 m 0
 247 836 270 824 294 811 c 0
 319 797 348 783 366 783 c 0
 413 783 432 823 441 827 c 1
 445 827 449 819 449 815 c 0
 449 800 440 783 432 773 c 0
 410 746 382 731 351 731 c 0
 319 731 297 743 273 756 c 0
 248 770 224 785 200 785 c 0
 153 785 134 743 125 739 c 1
 121 739 118 748 118 752 c 0
 118 767 126 784 134 794 c 0
 156 821 184 836 215 836 c 0
EndSplineSet
EndChar

StartChar: uni0304.cap
Encoding: 63637 63637 276
Width: 412
Flags: HW
HStem: 652 43<63.0021 347.599>
VStem: 62 286<652.241 695>
LayerCount: 2
Fore
SplineSet
62 666 m 0
 62 673 67 695 74 695 c 2
 342 695 l 2
 344 695 348 693 348 686 c 0
 348 670 345 657 341 652 c 1
 333 652 109 652 67 652 c 1
 63 654 62 660 62 666 c 0
EndSplineSet
EndChar

StartChar: uni0306.cap
Encoding: 63638 63638 277
Width: 253
Flags: HW
HStem: 615 50<63.2996 189.526>
VStem: 16 22<701.553 710.462> 212 22<700.779 710.462>
LayerCount: 2
Fore
SplineSet
212 718 m 1
 220 717 234 707 234 700 c 0
 234 698 235 696 234 694 c 0
 213 644 170 615 126 615 c 0
 82 615 39 644 18 694 c 0
 17 696 16 698 16 700 c 0
 16 707 30 717 38 718 c 1
 52 689 84 665 126 665 c 0
 169 665 198 687 212 718 c 1
EndSplineSet
EndChar

StartChar: uni0306
Encoding: 774 774 278
Width: 254
Flags: HW
HStem: 574 30<38.7297 109.113 141.188 209.724>
VStem: 225 2<627.345 628.999>
LayerCount: 2
Fore
SplineSet
171 604 m 1
 195 604 220 611 225 629 c 1
 225 629 227 628 227 627 c 0
 223 601 209 576 182 574 c 0
 155 574 131 590 123 616 c 0
 118 590 95 569 68 570 c 1
 41 574 25 604 24 632 c 1
 28 622 48 602 72 602 c 0
 97 604 145 594 171 604 c 1
EndSplineSet
EndChar

StartChar: uni0327.cap
Encoding: 63639 63639 279
Width: 757
Flags: HW
HStem: -170 29<171.713 254.477> -68 42<217.518 277>
VStem: 264 51<-136.104 -70.1426>
LayerCount: 2
Fore
SplineSet
235 -27 m 1
 239 -27 257 -26 262 -26 c 1
 292 -26 315 -51 315 -81 c 0
 315 -133 271 -170 208 -170 c 0
 189 -170 170 -163 162 -157 c 1
 160 -153 158 -144 158 -138 c 0
 158 -131 164 -126 168 -126 c 1
 177 -127 193 -141 214 -141 c 0
 248 -141 264 -124 264 -106 c 0
 264 -84 251 -68 232 -68 c 0
 222 -68 214 -72 202 -76 c 1
 200 -76 189 -66 190 -60 c 1
 200 -43 216 -17 224 -1 c 1
 253 -1 l 1
 253 -1 237 -22 235 -27 c 1
EndSplineSet
EndChar

StartChar: uni0327
Encoding: 807 807 280
Width: 464
Flags: HW
HStem: -154 28<167.358 249.28> -64 37<228.5 253.06>
VStem: 256 44<-122.514 -64.8705>
LayerCount: 2
Fore
SplineSet
228 -28 m 1
 228 -28 246 -27 250 -27 c 1
 278 -27 300 -51 300 -77 c 0
 300 -124 260 -154 204 -154 c 0
 187 -154 169 -148 163 -142 c 1
 162 -138 160 -131 160 -126 c 0
 160 -119 167 -112 171 -112 c 0
 179 -112 195 -126 214 -126 c 0
 242 -126 256 -111 256 -95 c 0
 256 -76 243 -64 228 -64 c 0
 220 -64 210 -66 200 -70 c 0
 198 -70 186 -60 188 -56 c 0
 197 -41 210 -17 218 -3 c 1
 244 -3 l 1
 228 -28 l 1
EndSplineSet
EndChar

StartChar: uni0307.cap
Encoding: 63640 63640 281
Width: 297
Flags: HW
HStem: 716 118<118.297 208.703>
VStem: 105 117<728.11 820.89>
LayerCount: 2
Fore
SplineSet
105 774 m 0
 105 806 132 834 164 834 c 0
 196 834 222 806 222 774 c 0
 222 742 196 716 164 716 c 0
 132 716 105 742 105 774 c 0
EndSplineSet
EndChar

StartChar: uni0323.cap
Encoding: 63641 63641 282
Width: 296
Flags: HW
HStem: 266 124<103.074 198.926>
VStem: 89 124<279.574 375.426>
LayerCount: 2
Fore
SplineSet
89 328 m 0
 89 362 117 390 151 390 c 0
 185 390 213 362 213 328 c 0
 213 294 185 266 151 266 c 0
 117 266 89 294 89 328 c 0
EndSplineSet
EndChar

StartChar: uni0305.cap
Encoding: 63642 63642 283
Width: 420
Flags: HW
HStem: 299 86<49.25 324.087>
LayerCount: 2
Fore
SplineSet
40 329 m 0
 40 344 52 385 72 385 c 1
 86 385 388 374 388 360 c 1
 389 346 380 334 366 330 c 0
 352 321 376 304 362 302 c 0
 347 299 372 299 358 299 c 1
 344 299 82 299 68 299 c 1
 54 299 40 310 40 329 c 0
EndSplineSet
EndChar

StartChar: uni0305
Encoding: 773 773 284
Width: 561
Flags: HW
HStem: 736 68<-11.5258 578.403>
LayerCount: 2
Fore
SplineSet
-16 746 m 0
 -16 748 -13 804 -2 804 c 2
 580 804 l 2
 582 804 586 803 586 795 c 0
 586 777 579 748 578 744 c 0
 576 738 570 736 570 736 c 1
 -10 736 l 1
 -10 736 -16 736 -16 746 c 0
EndSplineSet
EndChar

StartChar: hookabovecomb.cap
Encoding: 63643 63643 285
Width: 370
Flags: HW
HStem: 618 54<155.814 341.443> 688 24<35.8828 62.925>
VStem: 4 30<658.787 686.736>
LayerCount: 2
Fore
SplineSet
53 712 m 0
 73 713 88 725 94 709 c 1
 94 691 374 678 360 672 c 1
 350 668 345 664 345 654 c 1
 345 644 342 630 342 626 c 1
 341 622 325 618 318 618 c 1
 316 620 23 625 23 627 c 1
 23 641 38 648 46 652 c 1
 58 657 64 662 64 672 c 1
 64 678 61 688 51 688 c 1
 39 688 34 680 34 670 c 1
 34 662 22 658 15 658 c 1
 11 658 4 661 4 667 c 1
 4 693 28 707 53 712 c 0
EndSplineSet
EndChar

StartChar: uni030B.cap
Encoding: 63644 63644 286
Width: 403
Flags: HW
HStem: 702 136
LayerCount: 2
Fore
SplineSet
342 838 m 0
 376 831 380 809 379 803 c 0
 371 765 208 700 198 702 c 4
 191 703 186 714 187 720 c 0
 188 725 262 802 306 836 c 0
 312 840 328 841 342 838 c 0
180 838 m 0
 214 831 218 809 217 803 c 0
 209 765 46 700 36 702 c 0
 29 703 24 714 25 720 c 0
 26 725 100 802 144 836 c 0
 150 840 166 841 180 838 c 0
EndSplineSet
EndChar

StartChar: uni0308.cap
Encoding: 63645 63645 287
Width: 392
Flags: HW
HStem: 742 116<41.6101 133.89 254.302 346.89>
VStem: 29 118<755.093 845.407> 242 118<755.297 845.203>
LayerCount: 2
Fore
SplineSet
301 858 m 1
 333 858 360 832 360 800 c 1
 360 768 332 742 300 742 c 1
 268 742 242 768 242 800 c 1
 242 832 269 858 301 858 c 1
88 858 m 1
 120 858 147 832 147 800 c 1
 147 768 120 742 88 742 c 1
 56 742 29 768 29 800 c 1
 29 832 56 858 88 858 c 1
EndSplineSet
EndChar

StartChar: uni0308
Encoding: 776 776 288
Width: 354
Flags: HW
HStem: 468 116<35.9187 126.965 221.727 312.773>
VStem: 23 116<481.416 570.084> 209 116<481.213 570.287>
LayerCount: 2
Fore
SplineSet
268 584 m 0
 300 584 325 558 325 526 c 0
 325 494 299 468 267 468 c 0
 235 468 209 494 209 526 c 0
 209 558 236 584 268 584 c 0
82 584 m 0
 114 584 139 558 139 526 c 0
 139 494 114 468 82 468 c 0
 50 468 23 494 23 526 c 0
 23 558 50 584 82 584 c 0
EndSplineSet
EndChar

StartChar: uni0308.narrow
Encoding: 63646 63646 289
Width: 349
Flags: HW
HStem: 505 118<40.6102 132.593 221.407 313.093>
VStem: 26 120<518.703 609.797> 208 120<518.703 609.797>
LayerCount: 2
Fore
SplineSet
268 623 m 0
 300 623 328 596 328 564 c 0
 328 532 299 505 267 505 c 0
 235 505 208 532 208 564 c 0
 208 596 236 623 268 623 c 0
87 623 m 0
 119 623 146 596 146 564 c 0
 146 532 118 505 86 505 c 0
 54 505 26 532 26 564 c 0
 26 596 55 623 87 623 c 0
EndSplineSet
EndChar

StartChar: uni0307
Encoding: 775 775 290
Width: 297
Flags: HW
HStem: 508 118<94.2968 184.703>
VStem: 81 117<520.61 613.39>
LayerCount: 2
Fore
SplineSet
81 567 m 0
 81 599 108 626 140 626 c 0
 172 626 198 599 198 567 c 0
 198 535 172 508 140 508 c 0
 108 508 81 535 81 567 c 0
EndSplineSet
EndChar

StartChar: hookabovecomb
Encoding: 777 777 291
Width: 181
Flags: HW
HStem: 631 34<75.0858 127.239>
VStem: 18 54<575.32 628.638> 52 45<489.123 535.882> 130 48<566.53 630.63>
LayerCount: 2
Fore
SplineSet
116 665 m 0xd0
 154 665 178 642 178 610 c 0
 178 575 152 550 127 540 c 0
 107 532 97 526 97 514 c 1
 97 509 100 503 102 500 c 1
 102 496 84 489 74 489 c 1
 68 491 52 502 52 514 c 1
 52 540 81 552 97 560 c 0xb0
 119 570 130 582 130 600 c 0
 130 614 124 631 104 631 c 0
 82 631 72 618 72 595 c 0
 72 579 50 574 37 574 c 0
 29 574 18 579 18 587 c 0
 18 629 70 665 116 665 c 0xd0
EndSplineSet
EndChar

StartChar: uni030B
Encoding: 779 779 292
Width: 374
Flags: HW
HStem: 524 162<178 195>
VStem: 38 304
LayerCount: 2
Fore
SplineSet
298 686 m 0
 333 686 342 666 342 660 c 0
 342 621 195 524 185 524 c 0
 178 524 170 534 170 540 c 0
 170 546 228 636 264 678 c 0
 269 683 284 686 298 686 c 0
164 686 m 0
 199 686 208 666 208 660 c 0
 208 621 62 524 52 524 c 0
 45 524 38 534 38 540 c 0
 38 546 94 636 130 678 c 0
 135 683 150 686 164 686 c 0
EndSplineSet
EndChar

StartChar: uni030C
Encoding: 780 780 293
Width: 365
Flags: HW
HStem: 493 158
VStem: 56 218
LayerCount: 2
Fore
SplineSet
165 581 m 1
 193 605 255 651 266 651 c 0
 272 651 274 638 274 628 c 1
 270 623 246 600 212 556 c 0
 196 536 187 518 176 502 c 0
 172 496 171 493 166 493 c 1
 162 493 158 495 154 502 c 0
 144 518 134 535 116 557 c 0
 83 599 63 620 56 628 c 1
 56 636 60 651 66 651 c 0
 77 651 137 606 165 581 c 1
EndSplineSet
EndChar

StartChar: uni0312
Encoding: 786 786 295
Width: 222
Flags: HW
HStem: 478 174
VStem: 19 77<519 586.808>
LayerCount: 2
Fore
SplineSet
84 478 m 0
 66 475 42 481 32 486 c 1
 24 495 19 512 19 526 c 0
 19 585 78 632 134 652 c 1
 142 651 153 644 153 640 c 1
 137 632 96 606 96 578 c 0
 96 560 140 558 140 523 c 0
 140 509 126 486 84 478 c 0
EndSplineSet
EndChar

StartChar: uni0326
Encoding: 806 806 296
Width: 222
Flags: HW
HStem: -220 174
VStem: 78 76<-154.223 -85.75>
LayerCount: 2
Fore
SplineSet
89 -46 m 4
 107 -43 132 -48 142 -53 c 5
 150 -62 154 -79 154 -93 c 4
 154 -152 96 -200 40 -220 c 5
 32 -219 20 -211 20 -207 c 5
 36 -199 78 -174 78 -146 c 4
 78 -128 34 -125 34 -90 c 4
 34 -76 47 -54 89 -46 c 4
EndSplineSet
EndChar

StartChar: uni0315
Encoding: 789 789 297
Width: 216
Flags: HW
HStem: 459 211
VStem: 118 66<533.807 625.5>
LayerCount: 2
Fore
SplineSet
143 670 m 0
 151 670 161 667 168 664 c 1
 175 654 184 642 184 609 c 0
 184 559 150 503 104 459 c 1
 97 459 83 465 83 470 c 1
 104 493 118 520 118 550 c 0
 118 597 86 594 86 628 c 0
 86 646 108 670 143 670 c 0
EndSplineSet
EndChar

StartChar: dotbelowcomb
Encoding: 803 803 298
Width: 296
Flags: HW
HStem: -162 124<103.074 198.926>
VStem: 89 124<-147.926 -52.0743>
LayerCount: 2
Fore
SplineSet
89 -100 m 0
 89 -66 117 -38 151 -38 c 0
 185 -38 213 -66 213 -100 c 0
 213 -134 185 -162 151 -162 c 0
 117 -162 89 -134 89 -100 c 0
EndSplineSet
EndChar

StartChar: uni0237
Encoding: 567 567 401
Width: 257
Flags: HW
HStem: 365 28<14.4768 76.3544> 421 20G<166.375 188.875>
VStem: 87 104<-42.7502 356.638>
LayerCount: 2
Fore
SplineSet
-17 -202 m 1
 13 -180 87 -132 87 54 c 2
 87 279 l 2
 87 291 86 332 80 346 c 0
 72 362 23 365 16 365 c 1
 14 367 13 391 17 393 c 1
 81 399 147 421 186 441 c 1
 192 440 200 428 200 424 c 1
 198 416 191 379 191 365 c 1
 191 354 191 319 191 316 c 1
 191 94 l 1
 191 -44 136 -128 82 -172 c 0
 50 -198 4 -217 -11 -217 c 1
 -15 -214 -17 -206 -17 -202 c 1
EndSplineSet
EndChar

StartChar: Aogonek
Encoding: 260 260 403
Width: 644
Flags: HW
HStem: -221 64<485.879 552.267> -4 21G<-13.5346 8.4654> 3 26<140.148 198.299 394.087 450.273 603.795 652.744> 238 45<204.215 376.215> 642 20G<327.216 335.216>
VStem: 416 64<-151.17 -84.6329>
LayerCount: 2
Fore
SplineSet
292 506 m 1x9c
 204 290 l 1
 204 290 204 286 206 286 c 0
 229 284 268 283 291 283 c 0
 322 283 342 284 373 286 c 0
 375 286 376 291 376 291 c 1
 292 506 l 1x9c
652 -4 m 1xdc
 639 -3 628 -2 613 -1 c 0
 547 4 480 -68 480 -112 c 0
 480 -130 489 -157 525 -157 c 0
 565 -157 595 -122 603 -118 c 0
 605 -118 608 -122 608 -130 c 0
 608 -135 605 -148 602 -152 c 0
 584 -176 538 -221 488 -221 c 0
 444 -221 416 -184 416 -144 c 0
 416 -92 481 -26 535 3 c 1
 533 3 532 3 530 3 c 0xbc
 484 3 438 -2 397 -4 c 1
 392 1 392 28 397 30 c 1
 411 30 443 35 455 45 c 0
 459 49 461 54 461 60 c 0
 461 80 398 234 398 234 c 1
 398 234 395 238 392 238 c 0
 360 240 318 238 293 238 c 0
 252 238 229 238 189 236 c 0
 187 236 183 233 183 232 c 2
 183 232 156 168 142 130 c 0
 131 100 124 70 124 60 c 0
 124 35 188 30 196 30 c 1
 200 25 199 1 197 -4 c 1xdc
 159 -1 139 3 95 3 c 0xbc
 49 3 28 -1 -12 -4 c 1xdc
 -16 0 -16 20 -13 29 c 1xbc
 -1 29 41 40 51 54 c 0
 69 81 79 104 92 136 c 2
 92 136 265 551 295 629 c 0
 301 643 322 662 332 662 c 0
 338 662 344 660 346 658 c 1
 550 137 l 2
 563 103 572 80 577 68 c 0
 591 36 642 30 650 30 c 1
 655 22 654 0 652 -4 c 1xdc
EndSplineSet
EndChar

StartChar: aogonek
Encoding: 261 261 404
Width: 446
Flags: HW
HStem: -218 64<270.686 337.074> -8 62<119 216.205> 404 38<158.645 276>
VStem: 30 109<71.1359 169.361> 44 94<293.744 362.551> 201 64<-148.17 -80.2406> 268 103<65.8703 223 257.257 374.206>
LayerCount: 2
Fore
SplineSet
430 39 m 1xee
 422 32 402 16 382 6 c 0
 328 -22 265 -64 265 -108 c 0
 265 -126 274 -154 310 -154 c 0
 350 -154 380 -119 388 -115 c 0
 390 -115 393 -119 393 -127 c 0
 393 -132 390 -144 387 -148 c 0
 369 -172 323 -218 273 -218 c 0
 229 -218 201 -180 201 -140 c 0
 201 -87 261 -28 316 0 c 1
 295 10 277 32 272 52 c 1
 262 42 190 -8 154 -8 c 0
 83 -8 30 48 30 110 c 0xf6
 30 150 58 182 82 190 c 0
 129 206 222 241 262 257 c 1
 267 263 268 268 268 280 c 2
 268 306 l 2
 268 354 237 404 195 404 c 0
 159 404 146 374 138 332 c 0
 132 304 117 286 87 286 c 0
 63 286 44 306 44 330 c 0
 44 338 48 353 54 363 c 1
 76 384 161 442 241 442 c 0
 311 442 371 382 371 298 c 2
 371 101 l 2
 371 74 380 57 398 57 c 0
 414 57 425 66 429 68 c 1
 433 67 434 60 434 56 c 0
 434 50 433 44 430 39 c 1xee
204 54 m 0
 234 54 268 77 268 85 c 2
 268 223 l 1
 244 214 207 202 188 192 c 0
 156 176 139 150 139 120 c 0
 140 80 172 54 204 54 c 0
EndSplineSet
EndChar

StartChar: dcroat
Encoding: 273 273 405
Width: 527
Flags: HW
HStem: -8 63<205.581 289.521> 24 30<455.477 508.312> 396 46<194.85 324.522> 526 36<199.493 505.194> 626 29<273.539 333.18> 674 20<432.25 446.25>
VStem: 32 113<128.106 294.263> 342 104<70.2976 376.13 436.009 617.756>
LayerCount: 2
Fore
SplineSet
204 562 m 1x3f
 233 562 487 562 501 562 c 1
 504 562 506 558 506 554 c 1
 506 547 504 533 501 526 c 1
 472 526 218 526 204 526 c 1
 201 526 199 532 199 536 c 1
 199 543 200 556 204 562 c 1x3f
EndSplineSet
Refer: 68 100 N 1 0 0 1 0 0 2
EndChar

StartChar: Eogonek
Encoding: 280 280 406
Width: 590
Flags: HW
HStem: -221 64<394.572 460.96> -3 33<36.3545 105.385> -1 41<232.842 438.731> 311 42<225.386 387.825> 620 36<228.559 436.667> 628 33<36.9642 105.385>
VStem: 112 114<55.1138 308.713 353.951 617.462> 325 64<-151.17 -83.4599> 420 32<378.533 431.41> 486 36<517.117 564.804>
LayerCount: 2
Fore
SplineSet
169 656 m 0x9bc0
 237 656 409 664 493 664 c 1
 500 614 513 567 522 522 c 1
 519 519 508 517 501 517 c 0
 494 517 488 519 486 524 c 0
 464 592 431 620 374 620 c 2
 290 620 l 2
 272 620 234 619 230 609 c 0
 225 595 226 571 226 543 c 2
 226 362 l 2
 226 356 246 353 268 353 c 2
 321 353 l 2
 399 353 404 362 420 424 c 0
 421 429 427 432 434 432 c 0
 441 432 449 429 452 426 c 1
 452 236 l 1
 450 234 442 232 435 232 c 0
 428 232 422 235 420 240 c 0
 406 292 397 299 388 304 c 0
 376 310 335 311 297 311 c 0
 269 311 226 310 226 300 c 2
 226 128 l 2
 226 118 225 66 232 54 c 0
 242 42 266 40 300 40 c 2
 357 40 l 2xbbc0
 399 40 441 48 467 68 c 0
 493 88 509 122 525 166 c 0
 526 170 532 172 539 172 c 0
 549 172 564 169 567 166 c 1
 548 112 520 41 513 -3 c 1xd3c0
 459 -9 389 -68 389 -112 c 0
 389 -130 398 -157 434 -157 c 0
 474 -157 504 -122 512 -118 c 1
 514 -118 517 -122 517 -130 c 0
 517 -135 514 -148 511 -152 c 0
 493 -176 447 -221 397 -221 c 0
 353 -221 325 -184 325 -144 c 0
 325 -91 385 -31 440 -3 c 1
 361 -2 260 -1 163 -1 c 0xb3c0
 107 -1 65 -3 39 -3 c 1
 35 3 35 24 39 30 c 1
 51 30 101 34 105 46 c 0
 111 64 112 94 112 130 c 2
 112 528 l 2
 112 564 111 594 105 612 c 0
 101 624 51 628 39 628 c 1
 35 634 35 655 39 661 c 1xd7c0
 82 659 129 656 169 656 c 0x9bc0
EndSplineSet
EndChar

StartChar: eogonek
Encoding: 281 281 407
Width: 441
Flags: HW
HStem: -221 64<264.379 330.767> -8 74<206.407 307.129> 245 38<138.923 281.129> 254 33<178.683 299.726> 404 38<183.24 270.755>
VStem: 32 100<144.773 245 283.5 298.109> 194 64<-151.17 -71.9697> 300 104<287.632 371.86>
LayerCount: 2
Fore
SplineSet
352 31 m 4xef
 291 -18 258 -61 258 -112 c 4
 258 -130 268 -157 304 -157 c 4
 344 -157 374 -122 382 -118 c 5
 384 -118 386 -122 386 -130 c 4
 386 -135 384 -148 381 -152 c 4
 363 -176 317 -221 267 -221 c 4
 223 -221 194 -184 194 -144 c 4
 194 -96 232 -39 267 -6 c 5
 258 -8 248 -8 238 -8 c 0
 123 -8 32 76 32 200 c 0
 32 330 140 442 242 442 c 0
 368 442 404 348 404 299 c 0
 404 273 396 255 379 254 c 0xdf
 329 250 175 246 132 245 c 1
 130 111 218 66 284 66 c 0
 340 66 379 98 396 117 c 1
 400 116 406 108 406 101 c 0
 406 95 403 86 401 82 c 0
 393 69 375 49 352 31 c 4xef
136 283 m 1xef
 145 283 265 285 282 287 c 0xdf
 294 287 300 295 300 307 c 0
 300 342 281 404 228 404 c 0
 156 404 135 300 136 283 c 1xef
EndSplineSet
EndChar

StartChar: Hbar
Encoding: 294 294 408
Width: 732
Flags: HW
HStem: -4 34<36.3545 105.385 231.887 300.917 427.355 496.385 622.887 691.917> 321 41<226.556 502.881> 488 38<46.3369 677.828> 628 34<36.3545 105.385 231.887 300.917 427.355 496.385 622.887 691.917>
VStem: 112 114<38.4863 315.952 365.001 620.014> 503 114<38.4863 317.998 365.001 620.014>
LayerCount: 2
Fore
SplineSet
676 488 m 1
 647 488 62 488 48 488 c 1
 44 488 43 517 49 526 c 1
 78 526 662 526 676 526 c 1
 680 526 680 497 676 488 c 1
EndSplineSet
Refer: 40 72 N 1 0 0 1 0 0 2
EndChar

StartChar: hbar
Encoding: 295 295 409
Width: 544
Flags: HW
HStem: -4 33<13.3539 79.1664 196.102 258.417 296.854 356.671 473.604 539.417> 372 70<266.195 390.579> 526 36<27.4929 333.194> 626 29<17.4238 77.065> 674 20<176.135 190.135>
VStem: 86 104<36.9863 343.267 364.524 618.305> 363 104<36.9863 341.846>
LayerCount: 2
Fore
SplineSet
32 562 m 5
 61 562 315 562 329 562 c 5
 332 562 334 558 334 554 c 5
 334 547 332 533 329 526 c 5
 300 526 46 526 32 526 c 5
 29 526 27 532 27 536 c 5
 27 543 28 556 32 562 c 5
EndSplineSet
Refer: 72 104 N 1 0 0 1 -0 0 2
EndChar

StartChar: Iogonek
Encoding: 302 302 410
Width: 338
Flags: HW
HStem: -221 64<151.879 218.267> -4 33<36.3545 105.165 232.107 300.917> 629 33<36.3545 105.165 232.107 300.917>
VStem: 82 64<-151.17 -73.567> 112 114<36.9863 621.514>
LayerCount: 2
Fore
SplineSet
169 656 m 0xe8
 209 656 258 659 298 662 c 1
 302 656 302 635 298 629 c 1
 286 629 236 624 232 612 c 0
 226 594 226 564 226 528 c 2
 226 130 l 2xe8
 226 94 226 64 232 46 c 0
 236 34 286 29 298 29 c 1
 302 23 302 2 298 -4 c 1
 270 -2 237 1 206 2 c 5
 167 -36 146 -71 146 -112 c 4
 146 -130 155 -157 191 -157 c 4
 231 -157 261 -122 269 -118 c 4
 271 -118 274 -122 274 -130 c 4
 274 -135 271 -148 268 -152 c 4
 250 -176 204 -221 154 -221 c 4
 110 -221 82 -184 82 -144 c 4xf0
 82 -99 125 -33 159 2 c 5
 120 2 76 -1 39 -4 c 1
 35 2 35 23 39 29 c 1
 51 29 101 34 105 46 c 0
 111 64 112 94 112 130 c 2
 112 528 l 2
 112 564 111 594 105 612 c 0
 101 624 51 629 39 629 c 1
 35 635 35 656 39 662 c 1
 79 659 129 656 169 656 c 0xe8
EndSplineSet
EndChar

StartChar: iogonek
Encoding: 303 303 411
Width: 287
Flags: HW
HStem: -221 64<133.879 200.267> -4 33<27.3165 93.1289 210.064 272.379> 365 28<26.9495 88.8272> 421 20G<178.848 201.348> 544 122<95.6769 190.316>
VStem: 64 64<-151.17 -73.5799> 82 123<557.329 651.671> 100 104<36.9863 356.638>
LayerCount: 2
Fore
SplineSet
82 604 m 0xfa
 82 638 109 666 143 666 c 0
 177 666 205 638 205 604 c 0
 205 570 177 544 143 544 c 0
 109 544 82 570 82 604 c 0xfa
204 317 m 2xf9
 204 130 l 2xf9
 204 96 204 64 210 46 c 0
 214 34 258 29 270 29 c 1
 274 23 274 2 270 -4 c 1
 242 -2 215 1 188 2 c 5
 149 -35 128 -71 128 -112 c 4
 128 -130 137 -157 173 -157 c 4
 213 -157 243 -122 251 -118 c 4
 253 -118 256 -122 256 -130 c 4
 256 -135 253 -148 250 -152 c 4
 232 -176 186 -221 136 -221 c 4
 92 -221 64 -184 64 -144 c 4xfc
 64 -99 107 -33 141 2 c 5
 104 2 67 -1 30 -4 c 1
 26 2 26 23 30 29 c 1
 42 29 89 34 93 46 c 0
 100 64 100 94 100 130 c 2
 100 279 l 2
 100 291 100 332 93 346 c 0
 85 362 36 365 29 365 c 1
 27 367 25 391 29 393 c 1
 93 399 159 421 198 441 c 1
 204 440 212 428 212 424 c 1
 210 416 205 377 204 365 c 0
 204 354 204 320 204 317 c 2xf9
EndSplineSet
EndChar

StartChar: kgreenlandic
Encoding: 312 312 414
Width: 564
Flags: HW
HStem: -4 33<28.7005 93.3528 211.657 276.571 494.211 561.327> 4 27<497.69 563.503> 365 28<27.1018 88.9794> 400 32<314.901 370.954 463.816 533.115>
VStem: 101 104<36.9863 130.5 279 356.638>
LayerCount: 2
Fore
SplineSet
101 130 m 2x78
 101 94 101 64 94 46 c 0
 90 34 43 29 31 29 c 1
 27 23 27 2 31 -4 c 1
 71 -1 112 2 152 2 c 0
 192 2 234 -1 274 -4 c 1
 278 2 278 23 274 29 c 1xb8
 262 29 215 34 211 46 c 0
 205 64 205 94 205 130 c 2
 205 202 l 1
 205 202 214 198 218 192 c 0
 271 130 349 46 349 46 c 2
 371 20 421 -5 479 -5 c 0
 511 -5 550 0 562 4 c 1
 564 8 565 24 561 31 c 1
 532 31 496 35 456 76 c 0
 416 118 368 170 295 252 c 1
 355 304 426 362 442 374 c 0
 466 390 508 398 530 400 c 1
 534 404 536 424 531 432 c 1
 497 430 467 428 432 428 c 0
 395 428 332 430 318 432 c 1
 313 430 312 408 316 400 c 1
 330 399 372 395 372 381 c 0
 372 369 343 344 282 292 c 0
 248 262 221 242 204 236 c 1
 204 317 l 1
 204 320 204 354 204 365 c 1
 204 377 210 416 212 424 c 1
 212 428 204 440 198 441 c 1
 159 421 94 399 30 393 c 1
 26 391 27 367 29 365 c 1
 36 365 85 362 93 346 c 0
 99 332 100 290 100 279 c 2
 101 130 l 2x78
EndSplineSet
EndChar

StartChar: Lslash
Encoding: 321 321 415
Width: 566
Flags: HW
HStem: -3 33<36.1222 105.153> -1 41<232.61 453.603> 629 33<36.1222 104.933 231.875 300.685>
VStem: 112 114<55.1149 621.514>
LayerCount: 2
Fore
SplineSet
48 177 m 1x30
 42 183 27 203 31 207 c 1
 392 461 l 1
 398 455 414 436 410 432 c 1
 48 177 l 1x30
EndSplineSet
Refer: 44 76 N 1 0 0 1 -0 0 2
EndChar

StartChar: lslash
Encoding: 322 322 416
Width: 280
Flags: HW
HStem: -4 33<13.8539 79.6664 196.604 262.417> 626 29<17.9238 77.565> 674 20<176.635 190.635>
VStem: 86 104<36.9863 618.305>
LayerCount: 2
Fore
SplineSet
34 235 m 1
 28 241 14 261 18 265 c 1
 259 433 l 1
 265 427 281 408 277 404 c 1
 34 235 l 1
EndSplineSet
Refer: 76 108 N 1 0 0 1 0 0 2
EndChar

StartChar: Eng
Encoding: 330 330 417
Width: 763
Flags: HW
HStem: -222 54<372.75 488.215> -4 33<30.352 104.446 196.067 269.064> 630 33<33.8172 103.484 502.576 577.703 664.546 741.373>
VStem: 122 55<44.3719 543.171> 594 54<207 617.183>
LayerCount: 2
Fore
SplineSet
648 130 m 2
 648 -87 547 -222 383 -222 c 0
 363 -222 333 -212 323 -204 c 1
 317 -196 311 -186 311 -172 c 0
 311 -140 334 -110 366 -110 c 0
 386 -110 403 -126 418 -141 c 0
 432 -155 448 -168 462 -168 c 0
 505 -168 557 -88 568 56 c 1
 177 544 l 1
 177 136 l 2
 177 100 179 68 187 53 c 0
 193 39 254 30 266 30 c 1
 272 22 270 2 268 -4 c 1
 228 -2 192 3 148 3 c 0
 102 3 78 -2 32 -4 c 1
 28 3 28 23 32 29 c 1
 44 29 103 37 111 52 c 0
 119 67 122 99 122 137 c 0
 122 203 122 465 122 531 c 0
 122 564 119 593 108 610 c 0
 100 622 48 630 36 630 c 1
 31 636 31 658 35 663 c 1
 73 661 104 658 144 658 c 0
 176 658 213 660 236 662 c 1
 280 583 476 361 593 207 c 1
 594 211 594 249 594 256 c 2
 594 510 l 2
 594 547 591 593 583 609 c 0
 576 623 519 630 505 630 c 1
 501 634 500 655 504 663 c 1
 547 661 577 656 622 656 c 0
 667 656 697 661 740 663 c 1
 742 657 745 640 739 630 c 1
 729 630 666 624 658 608 c 0
 651 594 648 550 648 512 c 2
 648 130 l 2
EndSplineSet
EndChar

StartChar: eng
Encoding: 331 331 418
Width: 541
Flags: HW
HStem: -4 33<27.3165 93.1289 210.064 272.379> 365 28<26.9495 88.8272> 372 70<280.259 404.496>
VStem: 100 104<36.9863 343.149> 377 104<-40.9047 342.068>
LayerCount: 2
Fore
SplineSet
377 57 m 2xb8
 377 220 l 2
 377 318 361 372 295 372 c 0xb8
 257 372 204 331 204 317 c 2
 204 130 l 2
 204 96 204 64 210 46 c 0
 214 34 258 29 270 29 c 1
 274 23 274 2 270 -4 c 1
 230 -1 191 2 151 2 c 0
 110 2 70 -1 30 -4 c 1
 26 2 26 23 30 29 c 1
 42 29 89 34 93 46 c 0
 100 64 100 94 100 130 c 2
 100 279 l 2
 100 291 100 332 93 346 c 0
 85 362 36 365 29 365 c 1
 27 367 25 391 29 393 c 1xd8
 93 399 159 421 198 441 c 1
 204 441 212 429 212 424 c 1
 210 416 204 374 204 370 c 0
 204 368 204 364 206 364 c 1
 208 364 209 366 211 368 c 0
 235 395 301 442 348 442 c 0
 459 442 481 370 481 218 c 2
 481 94 l 1
 481 -44 426 -128 372 -172 c 0
 340 -198 295 -217 280 -217 c 1
 276 -214 273 -206 273 -202 c 1
 303 -180 377 -130 377 57 c 2xb8
EndSplineSet
EndChar

